<svg width="264" height="748" viewBox="0 0 264 748" fill="none" xmlns="http://www.w3.org/2000/svg">
<g filter="url(#filter0_d_910_306)">
<rect x="10" y="8" width="244" height="728" rx="15" fill="white"/>
<rect x="10" y="8" width="244" height="676" fill="url(#paint0_linear_910_306)"/>
<g clip-path="url(#clip0_910_306)">
<rect x="161.161" y="20.0938" width="95.2195" height="111.883" fill="url(#paint1_linear_910_306)"/>
<rect x="-76.8877" y="26.3086" width="205.578" height="162.173" transform="rotate(-18.2958 -76.8877 26.3086)" fill="url(#paint2_linear_910_306)"/>
<rect width="209.483" height="24.761" transform="translate(-53.083 148.73) rotate(-18.2359)" fill="#1C95ED"/>
<path d="M26.1345 139.567C26.4846 139.451 26.7662 139.314 26.9793 139.156C27.1953 138.991 27.3553 138.813 27.4593 138.622C27.5677 138.429 27.6237 138.226 27.6274 138.013C27.6341 137.795 27.6009 137.575 27.5279 137.353C27.3789 136.901 27.107 136.598 26.712 136.443C26.32 136.282 25.7916 136.311 25.1267 136.53L23.2054 137.163L24.2064 140.202L26.1345 139.567ZM21.8582 133.075L22.8439 136.066L24.3997 135.554C25.0645 135.335 25.5186 135.043 25.7619 134.678C26.0051 134.312 26.0472 133.888 25.888 133.405C25.7142 132.878 25.4335 132.548 25.0459 132.415C24.6626 132.281 24.143 132.322 23.4871 132.538L21.8582 133.075ZM23.0862 131.321C23.6978 131.12 24.2406 131.007 24.7144 130.984C25.1867 130.956 25.5983 131.005 25.9491 131.13C26.2998 131.255 26.5913 131.454 26.8236 131.726C27.0588 131.993 27.2406 132.321 27.3691 132.711C27.4436 132.937 27.4804 133.168 27.4796 133.404C27.4818 133.634 27.4404 133.867 27.3554 134.101C27.2735 134.329 27.148 134.553 26.979 134.77C26.81 134.988 26.5931 135.195 26.3283 135.39C27.7795 135.231 28.6949 135.728 29.0746 136.881C29.209 137.288 29.2548 137.688 29.2121 138.081C29.1724 138.467 29.0472 138.833 28.8364 139.177C28.6286 139.516 28.3346 139.824 27.9544 140.102C27.5742 140.38 27.1115 140.608 26.5663 140.788L23.0559 141.944L19.9016 132.371L23.0862 131.321ZM34.452 133.583C34.3731 133.344 34.2646 133.134 34.1265 132.953C33.9914 132.767 33.8325 132.62 33.6499 132.514C33.4658 132.402 33.2602 132.337 33.033 132.319C32.8088 132.294 32.5681 132.325 32.311 132.409C31.7925 132.58 31.4336 132.863 31.2345 133.258C31.0354 133.653 30.9843 134.131 31.0812 134.694L34.452 133.583ZM31.3305 135.585C31.4752 135.964 31.6453 136.279 31.8407 136.529C32.0347 136.775 32.2465 136.963 32.4763 137.094C32.7105 137.223 32.9604 137.295 33.2259 137.311C33.4945 137.321 33.775 137.278 34.0676 137.181C34.3468 137.089 34.5781 136.979 34.7616 136.849C34.9436 136.716 35.0975 136.586 35.2234 136.461C35.3478 136.332 35.4529 136.219 35.5389 136.122C35.6233 136.02 35.7099 135.955 35.7985 135.926C35.9138 135.888 36.017 135.903 36.1083 135.971L36.6869 136.362C36.5842 136.617 36.4491 136.849 36.2816 137.056C36.1141 137.264 35.9253 137.451 35.7152 137.619C35.5036 137.782 35.2773 137.923 35.0364 138.041C34.7969 138.164 34.5574 138.265 34.3181 138.344C33.8483 138.499 33.3861 138.565 32.9317 138.543C32.4802 138.515 32.0556 138.397 31.6579 138.189C31.2646 137.979 30.9092 137.676 30.5919 137.28C30.2789 136.882 30.0253 136.388 29.8311 135.799C29.6763 135.329 29.6049 134.866 29.6168 134.41C29.6331 133.952 29.729 133.528 29.9045 133.136C30.0845 132.742 30.3432 132.394 30.6807 132.091C31.0212 131.783 31.4419 131.546 31.9427 131.381C32.3594 131.244 32.7676 131.185 33.1675 131.206C33.5659 131.222 33.9367 131.318 34.2799 131.495C34.6231 131.672 34.9285 131.928 35.1959 132.262C35.4663 132.591 35.6811 132.996 35.8402 133.48C35.9133 133.701 35.9378 133.858 35.9139 133.949C35.8899 134.041 35.8137 134.107 35.6852 134.15L31.3305 135.585ZM40.657 129.991C40.642 130.065 40.6167 130.122 40.5811 130.163C40.5456 130.205 40.4946 130.236 40.4281 130.258C40.3527 130.283 40.2634 130.288 40.1602 130.273C40.0555 130.253 39.9338 130.234 39.7951 130.216C39.6565 130.198 39.4978 130.194 39.3192 130.203C39.1436 130.207 38.9472 130.245 38.73 130.316C38.5527 130.375 38.3983 130.45 38.2666 130.543C38.1379 130.629 38.0357 130.729 37.9601 130.843C37.8874 130.95 37.842 131.066 37.8238 131.19C37.8042 131.309 37.8142 131.429 37.8536 131.549C37.9062 131.708 37.9987 131.825 38.1313 131.899C38.2638 131.974 38.423 132.024 38.6089 132.051C38.7933 132.074 38.9976 132.083 39.222 132.078C39.4463 132.073 39.6765 132.071 39.9126 132.072C40.1488 132.072 40.3841 132.086 40.6186 132.112C40.8532 132.138 41.0729 132.193 41.2777 132.278C41.4811 132.358 41.6637 132.48 41.8254 132.643C41.9857 132.801 42.1112 133.018 42.2017 133.293C42.3068 133.612 42.3463 133.925 42.3202 134.234C42.294 134.542 42.203 134.832 42.0471 135.105C41.8912 135.377 41.6653 135.624 41.3694 135.844C41.0779 136.063 40.7194 136.243 40.2939 136.383C40.059 136.46 39.8234 136.513 39.5872 136.542C39.3569 136.574 39.1303 136.587 38.9075 136.582C38.6876 136.57 38.4745 136.542 38.268 136.497C38.066 136.451 37.8788 136.39 37.7064 136.314L37.8592 135.659C37.8772 135.58 37.9092 135.513 37.9551 135.458C38.004 135.398 38.0728 135.353 38.1614 135.324C38.2545 135.293 38.3556 135.294 38.4647 135.327C38.5768 135.354 38.7043 135.383 38.8473 135.415C38.9948 135.445 39.1652 135.462 39.3585 135.467C39.5504 135.468 39.7748 135.426 40.0319 135.341C40.2446 135.271 40.4205 135.186 40.5596 135.086C40.6972 134.982 40.8024 134.869 40.8751 134.747C40.9479 134.624 40.9903 134.5 41.0026 134.373C41.0134 134.242 40.9976 134.112 40.9553 133.983C40.8983 133.81 40.8028 133.685 40.6688 133.606C40.5348 133.527 40.3726 133.475 40.1823 133.449C39.9965 133.422 39.7892 133.412 39.5604 133.418C39.3361 133.424 39.1059 133.426 38.8698 133.425C38.6336 133.424 38.3961 133.411 38.1571 133.387C37.9226 133.361 37.6999 133.304 37.4892 133.216C37.2814 133.123 37.0952 132.99 36.9305 132.818C36.7644 132.642 36.6324 132.405 36.5345 132.108C36.4455 131.838 36.414 131.564 36.44 131.285C36.4705 131.004 36.5592 130.737 36.7062 130.482C36.8576 130.226 37.0687 129.994 37.3395 129.787C37.6133 129.574 37.9518 129.401 38.3551 129.268C38.8117 129.118 39.2502 129.054 39.6707 129.078C40.0912 129.101 40.4694 129.198 40.8053 129.367L40.657 129.991ZM46.4507 134.354C45.8878 134.54 45.4016 134.525 44.992 134.312C44.5855 134.092 44.2873 133.694 44.0975 133.117L42.7963 129.168L42.0517 129.414C41.9719 129.44 41.8952 129.438 41.8215 129.408C41.7463 129.374 41.692 129.306 41.6584 129.204L41.4678 128.626L42.5122 128.105L42.1785 126.041C42.1758 125.958 42.1938 125.886 42.2324 125.824C42.2695 125.758 42.3324 125.71 42.421 125.681L43.1524 125.44L43.8862 127.667L45.7677 127.047L46.1072 128.077L44.2257 128.697L45.494 132.547C45.5743 132.791 45.6955 132.957 45.8575 133.046C46.0196 133.135 46.2003 133.147 46.3997 133.081C46.5106 133.045 46.6015 133 46.6725 132.947C46.742 132.89 46.8005 132.836 46.8479 132.786C46.8939 132.732 46.9324 132.685 46.9635 132.645C46.9976 132.599 47.0346 132.57 47.0745 132.557C47.1543 132.53 47.2332 132.554 47.3111 132.626L47.9666 133.184C47.8093 133.452 47.5974 133.689 47.3311 133.895C47.0633 134.096 46.7698 134.249 46.4507 134.354ZM54.1072 126.51C54.4529 126.396 54.7419 126.252 54.9742 126.077C55.211 125.901 55.3895 125.705 55.5098 125.488C55.633 125.266 55.701 125.025 55.7137 124.765C55.7264 124.505 55.6861 124.234 55.5926 123.95C55.5006 123.671 55.3738 123.435 55.2121 123.242C55.0549 123.049 54.8643 122.903 54.6403 122.804C54.4163 122.706 54.1582 122.661 53.866 122.669C53.5767 122.671 53.2548 122.73 52.9002 122.847L51.4775 123.316L52.6845 126.979L54.1072 126.51ZM52.4994 121.63C53.1243 121.424 53.6892 121.319 54.1939 121.315C54.703 121.31 55.1499 121.391 55.5345 121.559C55.922 121.721 56.2503 121.964 56.5192 122.288C56.7867 122.608 56.9942 122.992 57.1417 123.44C57.2921 123.896 57.3525 124.34 57.323 124.773C57.292 125.201 57.1688 125.602 56.9536 125.978C56.7368 126.349 56.4257 126.687 56.0203 126.993C55.6179 127.293 55.1153 127.542 54.5125 127.74L53.0897 128.209L54.231 131.673L52.6752 132.185L49.5209 122.612L52.4994 121.63ZM59.9375 123.668C60.0086 123.168 60.1547 122.747 60.3758 122.403C60.5954 122.056 60.9157 121.813 61.3368 121.674C61.4831 121.626 61.6263 121.598 61.7665 121.591C61.9053 121.58 62.0366 121.591 62.1604 121.624L62.4156 122.734C62.4227 122.815 62.4114 122.878 62.3817 122.922C62.355 122.96 62.3106 122.989 62.2486 123.01C62.1821 123.032 62.0831 123.052 61.9517 123.071C61.8189 123.085 61.6837 123.115 61.5463 123.16C61.3469 123.226 61.1791 123.313 61.0429 123.422C60.9112 123.529 60.8016 123.659 60.714 123.81C60.6308 123.96 60.569 124.131 60.5285 124.321C60.488 124.511 60.4614 124.721 60.4488 124.952L61.8376 129.167L60.4082 129.638L58.1739 122.856L59.0049 122.582C59.1556 122.533 59.2693 122.527 59.3459 122.566C59.421 122.6 59.4923 122.682 59.5597 122.812L59.9375 123.668ZM64.5715 120.748L66.8058 127.53L65.3764 128.001L63.1421 121.219L64.5715 120.748ZM64.1362 118.622C64.1785 118.75 64.1921 118.881 64.1769 119.014C64.1661 119.145 64.131 119.27 64.0715 119.387C64.0106 119.501 63.9291 119.604 63.827 119.696C63.7278 119.783 63.6117 119.848 63.4788 119.892C63.3502 119.935 63.2203 119.95 63.089 119.94C62.9607 119.923 62.8405 119.886 62.7286 119.83C62.6151 119.769 62.5129 119.69 62.4217 119.592C62.335 119.493 62.2704 119.379 62.2281 119.25C62.1843 119.117 62.1678 118.985 62.1786 118.854C62.1938 118.721 62.2296 118.599 62.2861 118.487C62.3411 118.371 62.416 118.27 62.5107 118.184C62.6084 118.093 62.7215 118.027 62.8501 117.984C62.9831 117.94 63.1159 117.926 63.2487 117.941C63.3844 117.951 63.5112 117.985 63.6291 118.044C63.7455 118.099 63.847 118.177 63.9337 118.276C64.0249 118.373 64.0924 118.489 64.1362 118.622ZM71.5992 119.907C71.5738 119.979 71.5463 120.037 71.5166 120.082C71.487 120.126 71.4345 120.16 71.3591 120.185C71.2838 120.21 71.1952 120.21 71.0935 120.184C70.9962 120.157 70.8797 120.132 70.744 120.108C70.6113 120.078 70.4564 120.062 70.2793 120.062C70.1022 120.061 69.894 120.1 69.6547 120.179C69.3444 120.281 69.0901 120.427 68.8917 120.615C68.6977 120.801 68.5553 121.025 68.4643 121.286C68.3764 121.541 68.3414 121.83 68.3595 122.154C68.3805 122.471 68.4516 122.814 68.5728 123.181C68.6984 123.563 68.8523 123.888 69.0343 124.157C69.2164 124.426 69.4186 124.637 69.6409 124.79C69.8676 124.941 70.1093 125.034 70.366 125.067C70.6271 125.099 70.8972 125.069 71.1765 124.977C71.4513 124.886 71.6641 124.779 71.8151 124.656C71.966 124.532 72.086 124.412 72.1749 124.294C72.2639 124.176 72.3373 124.071 72.3952 123.978C72.4575 123.884 72.5352 123.822 72.6283 123.791C72.7435 123.753 72.8468 123.768 72.938 123.836L73.5166 124.228C73.4183 124.481 73.2921 124.71 73.1379 124.913C72.9837 125.116 72.8105 125.298 72.618 125.46C72.4242 125.617 72.2134 125.753 71.9858 125.867C71.7596 125.986 71.5246 126.086 71.2808 126.166C70.8597 126.305 70.4397 126.357 70.0207 126.323C69.6047 126.283 69.2103 126.16 68.8377 125.954C68.468 125.741 68.1326 125.447 67.8314 125.069C67.5331 124.686 67.2927 124.217 67.1102 123.663C66.9452 123.162 66.8635 122.676 66.8651 122.204C66.8653 121.727 66.9495 121.289 67.1176 120.89C67.2902 120.489 67.5497 120.136 67.8961 119.83C68.241 119.52 68.6772 119.278 69.2046 119.104C69.6966 118.942 70.155 118.879 70.5799 118.916C71.0092 118.952 71.4183 119.067 71.8073 119.263L71.5992 119.907ZM77.9525 119.251C77.8736 119.011 77.7651 118.802 77.627 118.621C77.4919 118.435 77.333 118.288 77.1504 118.181C76.9663 118.07 76.7607 118.005 76.5335 117.986C76.3093 117.962 76.0686 117.992 75.8115 118.077C75.293 118.248 74.9341 118.531 74.735 118.925C74.5359 119.32 74.4848 119.799 74.5817 120.361L77.9525 119.251ZM74.831 121.252C74.9757 121.632 75.1458 121.947 75.3412 122.197C75.5352 122.443 75.747 122.631 75.9768 122.761C76.211 122.891 76.4609 122.963 76.7264 122.979C76.995 122.989 77.2755 122.945 77.5681 122.849C77.8473 122.757 78.0786 122.646 78.2621 122.517C78.4441 122.383 78.598 122.254 78.7239 122.129C78.8483 122 78.9534 121.886 79.0394 121.789C79.1238 121.688 79.2104 121.622 79.299 121.593C79.4143 121.555 79.5175 121.57 79.6088 121.638L80.1874 122.03C80.0847 122.285 79.9496 122.516 79.7821 122.724C79.6146 122.931 79.4258 123.119 79.2157 123.286C79.0041 123.449 78.7778 123.59 78.5368 123.709C78.2974 123.832 78.0579 123.933 77.8186 124.012C77.3488 124.167 76.8866 124.233 76.4322 124.211C75.9807 124.183 75.5561 124.064 75.1584 123.856C74.7651 123.647 74.4097 123.344 74.0924 122.947C73.7794 122.549 73.5258 122.056 73.3316 121.466C73.1768 120.996 73.1054 120.533 73.1173 120.077C73.1336 119.62 73.2295 119.195 73.405 118.803C73.585 118.41 73.8437 118.062 74.1812 117.759C74.5217 117.45 74.9424 117.213 75.4432 117.048C75.8599 116.911 76.2681 116.853 76.668 116.873C77.0664 116.89 77.4372 116.986 77.7804 117.163C78.1236 117.34 78.429 117.595 78.6964 117.93C78.9668 118.258 79.1816 118.664 79.3407 119.147C79.4138 119.369 79.4383 119.525 79.4144 119.617C79.3904 119.708 79.3142 119.775 79.1857 119.817L74.831 121.252Z" fill="white"/>
<path opacity="0.2" d="M-3.15978 -76.7541C5.04269 -95.934 27.1475 -104.947 46.4227 -96.9714L246.518 -14.1748C266.792 -5.78539 275.804 17.9554 266.203 37.6851L220.605 131.386C211.717 149.651 190.058 157.727 171.381 149.739L-23.0392 66.5937C-42.3801 58.3224 -51.3538 35.9383 -43.0825 16.5974L-3.15978 -76.7541Z" fill="url(#paint3_linear_910_306)"/>
<path d="M30.2485 -82.523C40.6688 -100.571 63.6598 -106.894 81.8433 -96.7109L244.998 -5.34421C264.095 5.35021 270.271 29.902 258.507 48.3593L202.537 136.17C191.58 153.361 169.03 158.877 151.375 148.684L-6.60026 57.4765C-24.8174 46.9589 -31.059 23.6647 -20.5414 5.44761L30.2485 -82.523Z" fill="url(#paint4_linear_910_306)"/>
</g>
<path d="M117.55 40.724L116.494 37.838C116.442 37.71 116.388 37.558 116.332 37.382C116.276 37.206 116.22 37.016 116.164 36.812C116.112 37.016 116.058 37.208 116.002 37.388C115.946 37.564 115.892 37.718 115.84 37.85L114.79 40.724H117.55ZM120.4 44H119.152C119.012 44 118.898 43.966 118.81 43.898C118.722 43.826 118.656 43.738 118.612 43.634L117.964 41.864H114.37L113.722 43.634C113.69 43.726 113.628 43.81 113.536 43.886C113.444 43.962 113.33 44 113.194 44H111.934L115.348 35.324H116.992L120.4 44ZM125.67 39.146C125.626 39.202 125.582 39.246 125.538 39.278C125.498 39.31 125.438 39.326 125.358 39.326C125.282 39.326 125.208 39.304 125.136 39.26C125.064 39.212 124.978 39.16 124.878 39.104C124.778 39.044 124.658 38.992 124.518 38.948C124.382 38.9 124.212 38.876 124.008 38.876C123.748 38.876 123.52 38.924 123.324 39.02C123.128 39.112 122.964 39.246 122.832 39.422C122.704 39.598 122.608 39.812 122.544 40.064C122.48 40.312 122.448 40.594 122.448 40.91C122.448 41.238 122.482 41.53 122.55 41.786C122.622 42.042 122.724 42.258 122.856 42.434C122.988 42.606 123.148 42.738 123.336 42.83C123.524 42.918 123.736 42.962 123.972 42.962C124.208 42.962 124.398 42.934 124.542 42.878C124.69 42.818 124.814 42.754 124.914 42.686C125.014 42.614 125.1 42.55 125.172 42.494C125.248 42.434 125.332 42.404 125.424 42.404C125.544 42.404 125.634 42.45 125.694 42.542L126.12 43.082C125.956 43.274 125.778 43.436 125.586 43.568C125.394 43.696 125.194 43.8 124.986 43.88C124.782 43.956 124.57 44.01 124.35 44.042C124.134 44.074 123.918 44.09 123.702 44.09C123.322 44.09 122.964 44.02 122.628 43.88C122.292 43.736 121.998 43.528 121.746 43.256C121.494 42.984 121.294 42.652 121.146 42.26C121.002 41.864 120.93 41.414 120.93 40.91C120.93 40.458 120.994 40.04 121.122 39.656C121.254 39.268 121.446 38.934 121.698 38.654C121.95 38.37 122.262 38.148 122.634 37.988C123.006 37.828 123.434 37.748 123.918 37.748C124.378 37.748 124.78 37.822 125.124 37.97C125.472 38.118 125.784 38.33 126.06 38.606L125.67 39.146ZM128.807 38.912C128.999 38.544 129.227 38.256 129.491 38.048C129.755 37.836 130.067 37.73 130.427 37.73C130.711 37.73 130.939 37.792 131.111 37.916L131.015 39.026C130.995 39.098 130.965 39.15 130.925 39.182C130.889 39.21 130.839 39.224 130.775 39.224C130.715 39.224 130.625 39.214 130.505 39.194C130.389 39.174 130.275 39.164 130.163 39.164C129.999 39.164 129.853 39.188 129.725 39.236C129.597 39.284 129.481 39.354 129.377 39.446C129.277 39.534 129.187 39.642 129.107 39.77C129.031 39.898 128.959 40.044 128.891 40.208V44H127.409V37.844H128.279C128.431 37.844 128.537 37.872 128.597 37.928C128.657 37.98 128.697 38.076 128.717 38.216L128.807 38.912ZM137.838 37.844L134.484 45.692C134.44 45.796 134.382 45.874 134.31 45.926C134.242 45.982 134.136 46.01 133.992 46.01H132.888L134.04 43.538L131.55 37.844H132.852C132.968 37.844 133.058 37.872 133.122 37.928C133.19 37.984 133.24 38.048 133.272 38.12L134.58 41.312C134.624 41.42 134.66 41.528 134.688 41.636C134.72 41.744 134.75 41.854 134.778 41.966C134.814 41.854 134.85 41.744 134.886 41.636C134.922 41.524 134.962 41.414 135.006 41.306L136.242 38.12C136.274 38.04 136.326 37.974 136.398 37.922C136.474 37.87 136.558 37.844 136.65 37.844H137.838ZM140.434 35.084V44H138.952V35.084H140.434ZM143.806 37.844V44H142.318V37.844H143.806ZM144.01 36.05C144.01 36.178 143.984 36.298 143.932 36.41C143.88 36.522 143.81 36.62 143.722 36.704C143.638 36.788 143.538 36.856 143.422 36.908C143.306 36.956 143.182 36.98 143.05 36.98C142.922 36.98 142.8 36.956 142.684 36.908C142.572 36.856 142.474 36.788 142.39 36.704C142.306 36.62 142.238 36.522 142.186 36.41C142.138 36.298 142.114 36.178 142.114 36.05C142.114 35.918 142.138 35.794 142.186 35.678C142.238 35.562 142.306 35.462 142.39 35.378C142.474 35.294 142.572 35.228 142.684 35.18C142.8 35.128 142.922 35.102 143.05 35.102C143.182 35.102 143.306 35.128 143.422 35.18C143.538 35.228 143.638 35.294 143.722 35.378C143.81 35.462 143.88 35.562 143.932 35.678C143.984 35.794 144.01 35.918 144.01 36.05ZM150.087 39.146C150.043 39.202 149.999 39.246 149.955 39.278C149.915 39.31 149.855 39.326 149.775 39.326C149.699 39.326 149.625 39.304 149.553 39.26C149.481 39.212 149.395 39.16 149.295 39.104C149.195 39.044 149.075 38.992 148.935 38.948C148.799 38.9 148.629 38.876 148.425 38.876C148.165 38.876 147.937 38.924 147.741 39.02C147.545 39.112 147.381 39.246 147.249 39.422C147.121 39.598 147.025 39.812 146.961 40.064C146.897 40.312 146.865 40.594 146.865 40.91C146.865 41.238 146.899 41.53 146.967 41.786C147.039 42.042 147.141 42.258 147.273 42.434C147.405 42.606 147.565 42.738 147.753 42.83C147.941 42.918 148.153 42.962 148.389 42.962C148.625 42.962 148.815 42.934 148.959 42.878C149.107 42.818 149.231 42.754 149.331 42.686C149.431 42.614 149.517 42.55 149.589 42.494C149.665 42.434 149.749 42.404 149.841 42.404C149.961 42.404 150.051 42.45 150.111 42.542L150.537 43.082C150.373 43.274 150.195 43.436 150.003 43.568C149.811 43.696 149.611 43.8 149.403 43.88C149.199 43.956 148.987 44.01 148.767 44.042C148.551 44.074 148.335 44.09 148.119 44.09C147.739 44.09 147.381 44.02 147.045 43.88C146.709 43.736 146.415 43.528 146.163 43.256C145.911 42.984 145.711 42.652 145.563 42.26C145.419 41.864 145.347 41.414 145.347 40.91C145.347 40.458 145.411 40.04 145.539 39.656C145.671 39.268 145.863 38.934 146.115 38.654C146.367 38.37 146.679 38.148 147.051 37.988C147.423 37.828 147.851 37.748 148.335 37.748C148.795 37.748 149.197 37.822 149.541 37.97C149.889 38.118 150.201 38.33 150.477 38.606L150.087 39.146Z" fill="#444444"/>
<rect x="102.5" y="28.5" width="58" height="21" rx="10.5" stroke="#444444"/>
<path d="M107.92 60.28C108.193 60.28 108.433 60.2467 108.64 60.18C108.85 60.1133 109.025 60.02 109.165 59.9C109.305 59.7767 109.41 59.6317 109.48 59.465C109.55 59.295 109.585 59.1083 109.585 58.905C109.585 58.4917 109.448 58.18 109.175 57.97C108.905 57.76 108.498 57.655 107.955 57.655H106.95V60.28H107.92ZM111.27 64H110.32C110.13 64 109.992 63.925 109.905 63.775L108.13 61.285C108.073 61.2017 108.012 61.1433 107.945 61.11C107.878 61.0733 107.778 61.055 107.645 61.055H106.95V64H105.885V56.82H107.955C108.418 56.82 108.817 56.8683 109.15 56.965C109.487 57.0583 109.763 57.1933 109.98 57.37C110.2 57.5433 110.362 57.7533 110.465 58C110.572 58.2467 110.625 58.5233 110.625 58.83C110.625 59.08 110.587 59.315 110.51 59.535C110.433 59.755 110.32 59.9533 110.17 60.13C110.023 60.3033 109.843 60.4533 109.63 60.58C109.417 60.7067 109.175 60.8033 108.905 60.87C109.038 60.95 109.153 61.0617 109.25 61.205L111.27 64ZM112.9 62.75C113.06 62.96 113.232 63.1067 113.415 63.19C113.602 63.2733 113.81 63.315 114.04 63.315C114.487 63.315 114.832 63.155 115.075 62.835C115.322 62.5117 115.445 62.0417 115.445 61.425C115.445 61.1017 115.417 60.8267 115.36 60.6C115.307 60.37 115.227 60.1833 115.12 60.04C115.017 59.8933 114.889 59.7867 114.735 59.72C114.582 59.65 114.409 59.615 114.215 59.615C113.932 59.615 113.685 59.6783 113.475 59.805C113.269 59.9317 113.077 60.1117 112.9 60.345V62.75ZM112.85 59.68C112.957 59.5533 113.07 59.4383 113.19 59.335C113.314 59.2283 113.445 59.1383 113.585 59.065C113.725 58.9883 113.874 58.93 114.03 58.89C114.19 58.8467 114.36 58.825 114.54 58.825C114.83 58.825 115.092 58.8817 115.325 58.995C115.562 59.1083 115.764 59.275 115.93 59.495C116.097 59.715 116.225 59.9867 116.315 60.31C116.409 60.6333 116.455 61.005 116.455 61.425C116.455 61.8017 116.404 62.1517 116.3 62.475C116.2 62.795 116.055 63.0733 115.865 63.31C115.679 63.5467 115.449 63.7333 115.175 63.87C114.905 64.0033 114.6 64.07 114.26 64.07C113.957 64.07 113.697 64.02 113.48 63.92C113.264 63.82 113.07 63.68 112.9 63.5V65.705H111.925V58.92H112.51C112.647 58.92 112.732 58.985 112.765 59.115L112.85 59.68ZM117.39 63.415C117.39 63.325 117.407 63.24 117.44 63.16C117.474 63.08 117.519 63.01 117.575 62.95C117.635 62.89 117.705 62.8433 117.785 62.81C117.865 62.7733 117.952 62.755 118.045 62.755C118.135 62.755 118.22 62.7733 118.3 62.81C118.38 62.8433 118.45 62.89 118.51 62.95C118.57 63.01 118.617 63.08 118.65 63.16C118.687 63.24 118.705 63.325 118.705 63.415C118.705 63.5083 118.687 63.595 118.65 63.675C118.617 63.755 118.57 63.825 118.51 63.885C118.45 63.945 118.38 63.9917 118.3 64.025C118.22 64.0583 118.135 64.075 118.045 64.075C117.952 64.075 117.865 64.0583 117.785 64.025C117.705 63.9917 117.635 63.945 117.575 63.885C117.519 63.825 117.474 63.755 117.44 63.675C117.407 63.595 117.39 63.5083 117.39 63.415ZM127.268 60.41C127.268 61.0367 127.199 61.58 127.063 62.04C126.929 62.5 126.744 62.8817 126.508 63.185C126.274 63.485 125.998 63.7083 125.678 63.855C125.361 64.0017 125.019 64.075 124.653 64.075C124.286 64.075 123.943 64.0017 123.623 63.855C123.306 63.7083 123.031 63.485 122.798 63.185C122.564 62.8817 122.381 62.5 122.248 62.04C122.114 61.58 122.048 61.0367 122.048 60.41C122.048 59.7833 122.114 59.24 122.248 58.78C122.381 58.3167 122.564 57.935 122.798 57.635C123.031 57.3317 123.306 57.1067 123.623 56.96C123.943 56.8133 124.286 56.74 124.653 56.74C125.019 56.74 125.361 56.8133 125.678 56.96C125.998 57.1067 126.274 57.3317 126.508 57.635C126.744 57.935 126.929 58.3167 127.063 58.78C127.199 59.24 127.268 59.7833 127.268 60.41ZM126.258 60.41C126.258 59.87 126.213 59.4183 126.123 59.055C126.036 58.6917 125.918 58.4 125.768 58.18C125.621 57.9567 125.451 57.7983 125.258 57.705C125.064 57.6117 124.863 57.565 124.653 57.565C124.443 57.565 124.241 57.6117 124.048 57.705C123.854 57.7983 123.683 57.9567 123.533 58.18C123.386 58.4 123.269 58.6917 123.183 59.055C123.096 59.4183 123.053 59.87 123.053 60.41C123.053 60.95 123.096 61.4017 123.183 61.765C123.269 62.1283 123.386 62.42 123.533 62.64C123.683 62.86 123.854 63.0167 124.048 63.11C124.241 63.2033 124.443 63.25 124.653 63.25C124.863 63.25 125.064 63.2033 125.258 63.11C125.451 63.0167 125.621 62.86 125.768 62.64C125.918 62.42 126.036 62.1283 126.123 61.765C126.213 61.4017 126.258 60.95 126.258 60.41ZM128.084 63.415C128.084 63.325 128.1 63.24 128.134 63.16C128.167 63.08 128.212 63.01 128.269 62.95C128.329 62.89 128.399 62.8433 128.479 62.81C128.559 62.7733 128.645 62.755 128.739 62.755C128.829 62.755 128.914 62.7733 128.994 62.81C129.074 62.8433 129.144 62.89 129.204 62.95C129.264 63.01 129.31 63.08 129.344 63.16C129.38 63.24 129.399 63.325 129.399 63.415C129.399 63.5083 129.38 63.595 129.344 63.675C129.31 63.755 129.264 63.825 129.204 63.885C129.144 63.945 129.074 63.9917 128.994 64.025C128.914 64.0583 128.829 64.075 128.739 64.075C128.645 64.075 128.559 64.0583 128.479 64.025C128.399 63.9917 128.329 63.945 128.269 63.885C128.212 63.825 128.167 63.755 128.134 63.675C128.1 63.595 128.084 63.5083 128.084 63.415ZM135.432 60.41C135.432 61.0367 135.364 61.58 135.227 62.04C135.094 62.5 134.909 62.8817 134.672 63.185C134.439 63.485 134.162 63.7083 133.842 63.855C133.525 64.0017 133.184 64.075 132.817 64.075C132.45 64.075 132.107 64.0017 131.787 63.855C131.47 63.7083 131.195 63.485 130.962 63.185C130.729 62.8817 130.545 62.5 130.412 62.04C130.279 61.58 130.212 61.0367 130.212 60.41C130.212 59.7833 130.279 59.24 130.412 58.78C130.545 58.3167 130.729 57.935 130.962 57.635C131.195 57.3317 131.47 57.1067 131.787 56.96C132.107 56.8133 132.45 56.74 132.817 56.74C133.184 56.74 133.525 56.8133 133.842 56.96C134.162 57.1067 134.439 57.3317 134.672 57.635C134.909 57.935 135.094 58.3167 135.227 58.78C135.364 59.24 135.432 59.7833 135.432 60.41ZM134.422 60.41C134.422 59.87 134.377 59.4183 134.287 59.055C134.2 58.6917 134.082 58.4 133.932 58.18C133.785 57.9567 133.615 57.7983 133.422 57.705C133.229 57.6117 133.027 57.565 132.817 57.565C132.607 57.565 132.405 57.6117 132.212 57.705C132.019 57.7983 131.847 57.9567 131.697 58.18C131.55 58.4 131.434 58.6917 131.347 59.055C131.26 59.4183 131.217 59.87 131.217 60.41C131.217 60.95 131.26 61.4017 131.347 61.765C131.434 62.1283 131.55 62.42 131.697 62.64C131.847 62.86 132.019 63.0167 132.212 63.11C132.405 63.2033 132.607 63.25 132.817 63.25C133.027 63.25 133.229 63.2033 133.422 63.11C133.615 63.0167 133.785 62.86 133.932 62.64C134.082 62.42 134.2 62.1283 134.287 61.765C134.377 61.4017 134.422 60.95 134.422 60.41ZM141.233 60.41C141.233 61.0367 141.164 61.58 141.028 62.04C140.894 62.5 140.709 62.8817 140.473 63.185C140.239 63.485 139.963 63.7083 139.643 63.855C139.326 64.0017 138.984 64.075 138.618 64.075C138.251 64.075 137.908 64.0017 137.588 63.855C137.271 63.7083 136.996 63.485 136.763 63.185C136.529 62.8817 136.346 62.5 136.213 62.04C136.079 61.58 136.013 61.0367 136.013 60.41C136.013 59.7833 136.079 59.24 136.213 58.78C136.346 58.3167 136.529 57.935 136.763 57.635C136.996 57.3317 137.271 57.1067 137.588 56.96C137.908 56.8133 138.251 56.74 138.618 56.74C138.984 56.74 139.326 56.8133 139.643 56.96C139.963 57.1067 140.239 57.3317 140.473 57.635C140.709 57.935 140.894 58.3167 141.028 58.78C141.164 59.24 141.233 59.7833 141.233 60.41ZM140.223 60.41C140.223 59.87 140.178 59.4183 140.088 59.055C140.001 58.6917 139.883 58.4 139.733 58.18C139.586 57.9567 139.416 57.7983 139.223 57.705C139.029 57.6117 138.828 57.565 138.618 57.565C138.408 57.565 138.206 57.6117 138.013 57.705C137.819 57.7983 137.648 57.9567 137.498 58.18C137.351 58.4 137.234 58.6917 137.148 59.055C137.061 59.4183 137.018 59.87 137.018 60.41C137.018 60.95 137.061 61.4017 137.148 61.765C137.234 62.1283 137.351 62.42 137.498 62.64C137.648 62.86 137.819 63.0167 138.013 63.11C138.206 63.2033 138.408 63.25 138.618 63.25C138.828 63.25 139.029 63.2033 139.223 63.11C139.416 63.0167 139.586 62.86 139.733 62.64C139.883 62.42 140.001 62.1283 140.088 61.765C140.178 61.4017 140.223 60.95 140.223 60.41ZM147.033 60.41C147.033 61.0367 146.965 61.58 146.828 62.04C146.695 62.5 146.51 62.8817 146.273 63.185C146.04 63.485 145.763 63.7083 145.443 63.855C145.127 64.0017 144.785 64.075 144.418 64.075C144.052 64.075 143.708 64.0017 143.388 63.855C143.072 63.7083 142.797 63.485 142.563 63.185C142.33 62.8817 142.147 62.5 142.013 62.04C141.88 61.58 141.813 61.0367 141.813 60.41C141.813 59.7833 141.88 59.24 142.013 58.78C142.147 58.3167 142.33 57.935 142.563 57.635C142.797 57.3317 143.072 57.1067 143.388 56.96C143.708 56.8133 144.052 56.74 144.418 56.74C144.785 56.74 145.127 56.8133 145.443 56.96C145.763 57.1067 146.04 57.3317 146.273 57.635C146.51 57.935 146.695 58.3167 146.828 58.78C146.965 59.24 147.033 59.7833 147.033 60.41ZM146.023 60.41C146.023 59.87 145.978 59.4183 145.888 59.055C145.802 58.6917 145.683 58.4 145.533 58.18C145.387 57.9567 145.217 57.7983 145.023 57.705C144.83 57.6117 144.628 57.565 144.418 57.565C144.208 57.565 144.007 57.6117 143.813 57.705C143.62 57.7983 143.448 57.9567 143.298 58.18C143.152 58.4 143.035 58.6917 142.948 59.055C142.862 59.4183 142.818 59.87 142.818 60.41C142.818 60.95 142.862 61.4017 142.948 61.765C143.035 62.1283 143.152 62.42 143.298 62.64C143.448 62.86 143.62 63.0167 143.813 63.11C144.007 63.2033 144.208 63.25 144.418 63.25C144.628 63.25 144.83 63.2033 145.023 63.11C145.217 63.0167 145.387 62.86 145.533 62.64C145.683 62.42 145.802 62.1283 145.888 61.765C145.978 61.4017 146.023 60.95 146.023 60.41Z" fill="#FD3E3E"/>
<path d="M105 61.23H147.323V61.69H105V61.23Z" fill="#FD3E3E"/>
<path d="M82.98 82.42C83.4867 82.42 83.9267 82.3567 84.3 82.23C84.68 82.1033 84.99 81.93 85.23 81.71C85.4767 81.4833 85.66 81.2167 85.78 80.91C85.9 80.6033 85.96 80.2667 85.96 79.9C85.96 79.1667 85.7167 78.6033 85.23 78.21C84.75 77.8167 84.0133 77.62 83.02 77.62H81.3V82.42H82.98ZM89.9 90H87.47C87.01 90 86.6767 89.82 86.47 89.46L83.43 84.83C83.3167 84.6567 83.19 84.5333 83.05 84.46C82.9167 84.3867 82.7167 84.35 82.45 84.35H81.3V90H78.61V75.54H83.02C84 75.54 84.84 75.6433 85.54 75.85C86.2467 76.05 86.8233 76.3333 87.27 76.7C87.7233 77.0667 88.0567 77.5067 88.27 78.02C88.4833 78.5267 88.59 79.0867 88.59 79.7C88.59 80.1867 88.5167 80.6467 88.37 81.08C88.23 81.5133 88.0233 81.9067 87.75 82.26C87.4833 82.6133 87.15 82.9233 86.75 83.19C86.3567 83.4567 85.9067 83.6667 85.4 83.82C85.5733 83.92 85.7333 84.04 85.88 84.18C86.0267 84.3133 86.16 84.4733 86.28 84.66L89.9 90ZM93.4048 87.34C93.6848 87.68 93.9882 87.92 94.3148 88.06C94.6482 88.2 95.0082 88.27 95.3948 88.27C95.7682 88.27 96.1048 88.2 96.4048 88.06C96.7048 87.92 96.9582 87.7067 97.1648 87.42C97.3782 87.1333 97.5415 86.7733 97.6548 86.34C97.7682 85.9 97.8248 85.3833 97.8248 84.79C97.8248 84.19 97.7748 83.6833 97.6748 83.27C97.5815 82.85 97.4448 82.51 97.2648 82.25C97.0848 81.99 96.8648 81.8 96.6048 81.68C96.3515 81.56 96.0615 81.5 95.7348 81.5C95.2215 81.5 94.7848 81.61 94.4248 81.83C94.0648 82.0433 93.7248 82.3467 93.4048 82.74V87.34ZM93.2748 81.14C93.6948 80.6667 94.1715 80.2833 94.7048 79.99C95.2382 79.6967 95.8648 79.55 96.5848 79.55C97.1448 79.55 97.6548 79.6667 98.1148 79.9C98.5815 80.1333 98.9815 80.4733 99.3148 80.92C99.6548 81.36 99.9148 81.9067 100.095 82.56C100.282 83.2067 100.375 83.95 100.375 84.79C100.375 85.5567 100.272 86.2667 100.065 86.92C99.8582 87.5733 99.5615 88.14 99.1748 88.62C98.7948 89.1 98.3315 89.4767 97.7848 89.75C97.2448 90.0167 96.6382 90.15 95.9648 90.15C95.3915 90.15 94.9015 90.0633 94.4948 89.89C94.0882 89.71 93.7248 89.4633 93.4048 89.15V93.35H90.9348V79.74H92.4448C92.7648 79.74 92.9748 79.89 93.0748 80.19L93.2748 81.14ZM101.942 88.64C101.942 88.4333 101.979 88.2367 102.052 88.05C102.132 87.8633 102.239 87.7033 102.372 87.57C102.505 87.4367 102.665 87.33 102.852 87.25C103.039 87.17 103.239 87.13 103.452 87.13C103.665 87.13 103.862 87.17 104.042 87.25C104.229 87.33 104.389 87.4367 104.522 87.57C104.662 87.7033 104.772 87.8633 104.852 88.05C104.932 88.2367 104.972 88.4333 104.972 88.64C104.972 88.8533 104.932 89.0533 104.852 89.24C104.772 89.42 104.662 89.5767 104.522 89.71C104.389 89.8433 104.229 89.9467 104.042 90.02C103.862 90.1 103.665 90.14 103.452 90.14C103.239 90.14 103.039 90.1 102.852 90.02C102.665 89.9467 102.505 89.8433 102.372 89.71C102.239 89.5767 102.132 89.42 102.052 89.24C101.979 89.0533 101.942 88.8533 101.942 88.64ZM121.041 88.15V90H113.041V88.15H115.971V79.72C115.971 79.3867 115.981 79.0433 116.001 78.69L113.921 80.43C113.801 80.5233 113.681 80.5833 113.561 80.61C113.448 80.63 113.338 80.63 113.231 80.61C113.131 80.59 113.041 80.5567 112.961 80.51C112.881 80.4567 112.821 80.4 112.781 80.34L112.001 79.27L116.411 75.52H118.441V88.15H121.041ZM133.393 82.77C133.393 84.03 133.256 85.1267 132.983 86.06C132.716 86.9867 132.343 87.7533 131.863 88.36C131.39 88.9667 130.826 89.42 130.173 89.72C129.526 90.0133 128.826 90.16 128.073 90.16C127.32 90.16 126.62 90.0133 125.973 89.72C125.333 89.42 124.776 88.9667 124.303 88.36C123.83 87.7533 123.46 86.9867 123.193 86.06C122.926 85.1267 122.793 84.03 122.793 82.77C122.793 81.5033 122.926 80.4067 123.193 79.48C123.46 78.5533 123.83 77.7867 124.303 77.18C124.776 76.5733 125.333 76.1233 125.973 75.83C126.62 75.53 127.32 75.38 128.073 75.38C128.826 75.38 129.526 75.53 130.173 75.83C130.826 76.1233 131.39 76.5733 131.863 77.18C132.343 77.7867 132.716 78.5533 132.983 79.48C133.256 80.4067 133.393 81.5033 133.393 82.77ZM130.843 82.77C130.843 81.7233 130.766 80.8567 130.613 80.17C130.46 79.4833 130.253 78.9367 129.993 78.53C129.74 78.1233 129.446 77.84 129.113 77.68C128.78 77.5133 128.433 77.43 128.073 77.43C127.72 77.43 127.376 77.5133 127.043 77.68C126.716 77.84 126.426 78.1233 126.173 78.53C125.92 78.9367 125.716 79.4833 125.563 80.17C125.416 80.8567 125.343 81.7233 125.343 82.77C125.343 83.8167 125.416 84.6833 125.563 85.37C125.716 86.0567 125.92 86.6033 126.173 87.01C126.426 87.4167 126.716 87.7033 127.043 87.87C127.376 88.03 127.72 88.11 128.073 88.11C128.433 88.11 128.78 88.03 129.113 87.87C129.446 87.7033 129.74 87.4167 129.993 87.01C130.253 86.6033 130.46 86.0567 130.613 85.37C130.766 84.6833 130.843 83.8167 130.843 82.77ZM134.755 88.64C134.755 88.4333 134.791 88.2367 134.865 88.05C134.945 87.8633 135.051 87.7033 135.185 87.57C135.318 87.4367 135.478 87.33 135.665 87.25C135.851 87.17 136.051 87.13 136.265 87.13C136.478 87.13 136.675 87.17 136.855 87.25C137.041 87.33 137.201 87.4367 137.335 87.57C137.475 87.7033 137.585 87.8633 137.665 88.05C137.745 88.2367 137.785 88.4333 137.785 88.64C137.785 88.8533 137.745 89.0533 137.665 89.24C137.585 89.42 137.475 89.5767 137.335 89.71C137.201 89.8433 137.041 89.9467 136.855 90.02C136.675 90.1 136.478 90.14 136.265 90.14C136.051 90.14 135.851 90.1 135.665 90.02C135.478 89.9467 135.318 89.8433 135.185 89.71C135.051 89.5767 134.945 89.42 134.865 89.24C134.791 89.0533 134.755 88.8533 134.755 88.64ZM149.741 82.77C149.741 84.03 149.604 85.1267 149.331 86.06C149.064 86.9867 148.691 87.7533 148.211 88.36C147.737 88.9667 147.174 89.42 146.521 89.72C145.874 90.0133 145.174 90.16 144.421 90.16C143.667 90.16 142.967 90.0133 142.321 89.72C141.681 89.42 141.124 88.9667 140.651 88.36C140.177 87.7533 139.807 86.9867 139.541 86.06C139.274 85.1267 139.141 84.03 139.141 82.77C139.141 81.5033 139.274 80.4067 139.541 79.48C139.807 78.5533 140.177 77.7867 140.651 77.18C141.124 76.5733 141.681 76.1233 142.321 75.83C142.967 75.53 143.667 75.38 144.421 75.38C145.174 75.38 145.874 75.53 146.521 75.83C147.174 76.1233 147.737 76.5733 148.211 77.18C148.691 77.7867 149.064 78.5533 149.331 79.48C149.604 80.4067 149.741 81.5033 149.741 82.77ZM147.191 82.77C147.191 81.7233 147.114 80.8567 146.961 80.17C146.807 79.4833 146.601 78.9367 146.341 78.53C146.087 78.1233 145.794 77.84 145.461 77.68C145.127 77.5133 144.781 77.43 144.421 77.43C144.067 77.43 143.724 77.5133 143.391 77.68C143.064 77.84 142.774 78.1233 142.521 78.53C142.267 78.9367 142.064 79.4833 141.911 80.17C141.764 80.8567 141.691 81.7233 141.691 82.77C141.691 83.8167 141.764 84.6833 141.911 85.37C142.064 86.0567 142.267 86.6033 142.521 87.01C142.774 87.4167 143.064 87.7033 143.391 87.87C143.724 88.03 144.067 88.11 144.421 88.11C144.781 88.11 145.127 88.03 145.461 87.87C145.794 87.7033 146.087 87.4167 146.341 87.01C146.601 86.6033 146.807 86.0567 146.961 85.37C147.114 84.6833 147.191 83.8167 147.191 82.77ZM161.342 82.77C161.342 84.03 161.206 85.1267 160.932 86.06C160.666 86.9867 160.292 87.7533 159.812 88.36C159.339 88.9667 158.776 89.42 158.122 89.72C157.476 90.0133 156.776 90.16 156.022 90.16C155.269 90.16 154.569 90.0133 153.922 89.72C153.282 89.42 152.726 88.9667 152.252 88.36C151.779 87.7533 151.409 86.9867 151.142 86.06C150.876 85.1267 150.742 84.03 150.742 82.77C150.742 81.5033 150.876 80.4067 151.142 79.48C151.409 78.5533 151.779 77.7867 152.252 77.18C152.726 76.5733 153.282 76.1233 153.922 75.83C154.569 75.53 155.269 75.38 156.022 75.38C156.776 75.38 157.476 75.53 158.122 75.83C158.776 76.1233 159.339 76.5733 159.812 77.18C160.292 77.7867 160.666 78.5533 160.932 79.48C161.206 80.4067 161.342 81.5033 161.342 82.77ZM158.792 82.77C158.792 81.7233 158.716 80.8567 158.562 80.17C158.409 79.4833 158.202 78.9367 157.942 78.53C157.689 78.1233 157.396 77.84 157.062 77.68C156.729 77.5133 156.382 77.43 156.022 77.43C155.669 77.43 155.326 77.5133 154.992 77.68C154.666 77.84 154.376 78.1233 154.122 78.53C153.869 78.9367 153.666 79.4833 153.512 80.17C153.366 80.8567 153.292 81.7233 153.292 82.77C153.292 83.8167 153.366 84.6833 153.512 85.37C153.666 86.0567 153.869 86.6033 154.122 87.01C154.376 87.4167 154.666 87.7033 154.992 87.87C155.326 88.03 155.669 88.11 156.022 88.11C156.382 88.11 156.729 88.03 157.062 87.87C157.396 87.7033 157.689 87.4167 157.942 87.01C158.202 86.6033 158.409 86.0567 158.562 85.37C158.716 84.6833 158.792 83.8167 158.792 82.77ZM172.944 82.77C172.944 84.03 172.807 85.1267 172.534 86.06C172.267 86.9867 171.894 87.7533 171.414 88.36C170.94 88.9667 170.377 89.42 169.724 89.72C169.077 90.0133 168.377 90.16 167.624 90.16C166.87 90.16 166.17 90.0133 165.524 89.72C164.884 89.42 164.327 88.9667 163.854 88.36C163.38 87.7533 163.01 86.9867 162.744 86.06C162.477 85.1267 162.344 84.03 162.344 82.77C162.344 81.5033 162.477 80.4067 162.744 79.48C163.01 78.5533 163.38 77.7867 163.854 77.18C164.327 76.5733 164.884 76.1233 165.524 75.83C166.17 75.53 166.87 75.38 167.624 75.38C168.377 75.38 169.077 75.53 169.724 75.83C170.377 76.1233 170.94 76.5733 171.414 77.18C171.894 77.7867 172.267 78.5533 172.534 79.48C172.807 80.4067 172.944 81.5033 172.944 82.77ZM170.394 82.77C170.394 81.7233 170.317 80.8567 170.164 80.17C170.01 79.4833 169.804 78.9367 169.544 78.53C169.29 78.1233 168.997 77.84 168.664 77.68C168.33 77.5133 167.984 77.43 167.624 77.43C167.27 77.43 166.927 77.5133 166.594 77.68C166.267 77.84 165.977 78.1233 165.724 78.53C165.47 78.9367 165.267 79.4833 165.114 80.17C164.967 80.8567 164.894 81.7233 164.894 82.77C164.894 83.8167 164.967 84.6833 165.114 85.37C165.267 86.0567 165.47 86.6033 165.724 87.01C165.977 87.4167 166.267 87.7033 166.594 87.87C166.927 88.03 167.27 88.11 167.624 88.11C167.984 88.11 168.33 88.03 168.664 87.87C168.997 87.7033 169.29 87.4167 169.544 87.01C169.804 86.6033 170.01 86.0567 170.164 85.37C170.317 84.6833 170.394 83.8167 170.394 82.77Z" fill="#303030"/>
<path d="M51.0956 180.367C55.9277 180.367 59.9071 184.346 59.9071 189.178C59.9071 194.046 55.9277 197.99 51.0956 197.99C46.2281 197.99 42.2842 194.046 42.2842 189.178C42.2842 184.346 46.2281 180.367 51.0956 180.367ZM51.0956 182.072C47.1518 182.072 43.9897 185.27 43.9897 189.178C43.9897 193.122 47.1518 196.284 51.0956 196.284C55.0039 196.284 58.2016 193.122 58.2016 189.178C58.2016 185.27 55.0039 182.072 51.0956 182.072ZM56.0698 186.727C56.212 186.869 56.212 187.153 56.0698 187.331L49.9232 193.406C49.7455 193.584 49.4968 193.584 49.3192 193.406L46.0859 190.138C45.9438 189.995 45.9438 189.711 46.0859 189.534L46.9031 188.752C47.0808 188.574 47.3295 188.574 47.5071 188.752L49.6389 190.884L54.6486 185.91C54.8263 185.732 55.1105 185.732 55.2526 185.91L56.0698 186.727Z" fill="#45B516"/>
<path d="M70.5024 184.465V192.996H69.3716V184.465H70.5024ZM75.6528 184.465L72.1079 188.443L70.1157 190.512L69.9282 189.305L71.4282 187.652L74.2935 184.465H75.6528ZM74.563 192.996L71.4048 188.836L72.0786 187.939L75.9106 192.996H74.563ZM79.2212 193.113C78.7798 193.113 78.3794 193.039 78.02 192.891C77.6646 192.738 77.3579 192.525 77.1001 192.252C76.8462 191.979 76.6509 191.654 76.5142 191.279C76.3774 190.904 76.3091 190.494 76.3091 190.049V189.803C76.3091 189.287 76.3853 188.828 76.5376 188.426C76.6899 188.02 76.897 187.676 77.1587 187.395C77.4204 187.113 77.7173 186.9 78.0493 186.756C78.3813 186.611 78.7251 186.539 79.0806 186.539C79.5337 186.539 79.9243 186.617 80.2524 186.773C80.5845 186.93 80.856 187.148 81.0669 187.43C81.2778 187.707 81.4341 188.035 81.5356 188.414C81.6372 188.789 81.688 189.199 81.688 189.645V190.131H76.9536V189.246H80.604V189.164C80.5884 188.883 80.5298 188.609 80.4282 188.344C80.3306 188.078 80.1743 187.859 79.9595 187.688C79.7446 187.516 79.4517 187.43 79.0806 187.43C78.8345 187.43 78.6079 187.482 78.4009 187.588C78.1938 187.689 78.0161 187.842 77.8677 188.045C77.7192 188.248 77.604 188.496 77.522 188.789C77.4399 189.082 77.3989 189.42 77.3989 189.803V190.049C77.3989 190.35 77.4399 190.633 77.522 190.898C77.6079 191.16 77.731 191.391 77.8911 191.59C78.0552 191.789 78.2524 191.945 78.4829 192.059C78.7173 192.172 78.9829 192.229 79.2798 192.229C79.6626 192.229 79.9868 192.15 80.2524 191.994C80.5181 191.838 80.7505 191.629 80.9497 191.367L81.606 191.889C81.4692 192.096 81.2954 192.293 81.0845 192.48C80.8735 192.668 80.6138 192.82 80.3052 192.938C80.0005 193.055 79.6392 193.113 79.2212 193.113ZM85.6079 186.656V187.488H82.1802V186.656H85.6079ZM83.3403 185.115H84.4243V191.426C84.4243 191.641 84.4575 191.803 84.5239 191.912C84.5903 192.021 84.6763 192.094 84.7817 192.129C84.8872 192.164 85.0005 192.182 85.1216 192.182C85.2114 192.182 85.3052 192.174 85.4028 192.158C85.5044 192.139 85.5806 192.123 85.6313 192.111L85.6372 192.996C85.5513 193.023 85.438 193.049 85.2974 193.072C85.1606 193.1 84.9946 193.113 84.7993 193.113C84.5337 193.113 84.2896 193.061 84.0669 192.955C83.8442 192.85 83.6665 192.674 83.5337 192.428C83.4048 192.178 83.3403 191.842 83.3403 191.42V185.115ZM89.5103 193.113C89.0688 193.113 88.6685 193.039 88.3091 192.891C87.9536 192.738 87.647 192.525 87.3892 192.252C87.1353 191.979 86.9399 191.654 86.8032 191.279C86.6665 190.904 86.5981 190.494 86.5981 190.049V189.803C86.5981 189.287 86.6743 188.828 86.8267 188.426C86.979 188.02 87.186 187.676 87.4478 187.395C87.7095 187.113 88.0063 186.9 88.3384 186.756C88.6704 186.611 89.0142 186.539 89.3696 186.539C89.8228 186.539 90.2134 186.617 90.5415 186.773C90.8735 186.93 91.145 187.148 91.356 187.43C91.5669 187.707 91.7231 188.035 91.8247 188.414C91.9263 188.789 91.9771 189.199 91.9771 189.645V190.131H87.2427V189.246H90.8931V189.164C90.8774 188.883 90.8188 188.609 90.7173 188.344C90.6196 188.078 90.4634 187.859 90.2485 187.688C90.0337 187.516 89.7407 187.43 89.3696 187.43C89.1235 187.43 88.897 187.482 88.6899 187.588C88.4829 187.689 88.3052 187.842 88.1567 188.045C88.0083 188.248 87.8931 188.496 87.811 188.789C87.729 189.082 87.688 189.42 87.688 189.803V190.049C87.688 190.35 87.729 190.633 87.811 190.898C87.897 191.16 88.02 191.391 88.1802 191.59C88.3442 191.789 88.5415 191.945 88.772 192.059C89.0063 192.172 89.272 192.229 89.5688 192.229C89.9517 192.229 90.2759 192.15 90.5415 191.994C90.8071 191.838 91.0396 191.629 91.2388 191.367L91.895 191.889C91.7583 192.096 91.5845 192.293 91.3735 192.48C91.1626 192.668 90.9028 192.82 90.5942 192.938C90.2896 193.055 89.9282 193.113 89.5103 193.113ZM94.3267 187.652V192.996H93.2427V186.656H94.2974L94.3267 187.652ZM96.3071 186.621L96.3013 187.629C96.2114 187.609 96.1255 187.598 96.0435 187.594C95.9653 187.586 95.8755 187.582 95.7739 187.582C95.5239 187.582 95.3032 187.621 95.1118 187.699C94.9204 187.777 94.7583 187.887 94.6255 188.027C94.4927 188.168 94.3872 188.336 94.3091 188.531C94.2349 188.723 94.186 188.934 94.1626 189.164L93.8579 189.34C93.8579 188.957 93.895 188.598 93.9692 188.262C94.0474 187.926 94.1665 187.629 94.3267 187.371C94.4868 187.109 94.6899 186.906 94.936 186.762C95.186 186.613 95.4829 186.539 95.8267 186.539C95.9048 186.539 95.9946 186.549 96.0962 186.568C96.1978 186.584 96.2681 186.602 96.3071 186.621ZM100.813 191.912V188.648C100.813 188.398 100.762 188.182 100.661 187.998C100.563 187.811 100.415 187.666 100.215 187.564C100.016 187.463 99.77 187.412 99.4771 187.412C99.2036 187.412 98.9634 187.459 98.7563 187.553C98.5532 187.646 98.3931 187.77 98.2759 187.922C98.1626 188.074 98.106 188.238 98.106 188.414H97.022C97.022 188.188 97.0806 187.963 97.1978 187.74C97.3149 187.518 97.4829 187.316 97.7017 187.137C97.9243 186.953 98.1899 186.809 98.4985 186.703C98.811 186.594 99.1587 186.539 99.5415 186.539C100.002 186.539 100.409 186.617 100.76 186.773C101.116 186.93 101.393 187.166 101.592 187.482C101.795 187.795 101.897 188.188 101.897 188.66V191.613C101.897 191.824 101.915 192.049 101.95 192.287C101.989 192.525 102.045 192.73 102.12 192.902V192.996H100.989C100.934 192.871 100.891 192.705 100.86 192.498C100.829 192.287 100.813 192.092 100.813 191.912ZM101 189.152L101.012 189.914H99.9165C99.6079 189.914 99.3325 189.939 99.0903 189.99C98.8481 190.037 98.645 190.109 98.481 190.207C98.3169 190.305 98.1919 190.428 98.106 190.576C98.02 190.721 97.9771 190.891 97.9771 191.086C97.9771 191.285 98.022 191.467 98.1118 191.631C98.2017 191.795 98.3364 191.926 98.5161 192.023C98.6997 192.117 98.9243 192.164 99.1899 192.164C99.522 192.164 99.8149 192.094 100.069 191.953C100.323 191.812 100.524 191.641 100.672 191.438C100.825 191.234 100.907 191.037 100.918 190.846L101.381 191.367C101.354 191.531 101.28 191.713 101.159 191.912C101.038 192.111 100.875 192.303 100.672 192.486C100.473 192.666 100.235 192.816 99.9575 192.938C99.6841 193.055 99.3755 193.113 99.0317 193.113C98.6021 193.113 98.2251 193.029 97.9009 192.861C97.5806 192.693 97.3306 192.469 97.1509 192.188C96.9751 191.902 96.8872 191.584 96.8872 191.232C96.8872 190.893 96.9536 190.594 97.0864 190.336C97.2192 190.074 97.4106 189.857 97.6606 189.686C97.9106 189.51 98.2114 189.377 98.563 189.287C98.9146 189.197 99.3071 189.152 99.7407 189.152H101ZM104.686 188.01V192.996H103.602V186.656H104.627L104.686 188.01ZM104.428 189.586L103.977 189.568C103.981 189.135 104.045 188.734 104.17 188.367C104.295 187.996 104.471 187.674 104.698 187.4C104.924 187.127 105.194 186.916 105.506 186.768C105.823 186.615 106.172 186.539 106.555 186.539C106.868 186.539 107.149 186.582 107.399 186.668C107.649 186.75 107.862 186.883 108.038 187.066C108.217 187.25 108.354 187.488 108.448 187.781C108.542 188.07 108.588 188.424 108.588 188.842V192.996H107.499V188.83C107.499 188.498 107.45 188.232 107.352 188.033C107.254 187.83 107.112 187.684 106.924 187.594C106.737 187.5 106.506 187.453 106.233 187.453C105.963 187.453 105.717 187.51 105.495 187.623C105.276 187.736 105.086 187.893 104.926 188.092C104.77 188.291 104.647 188.52 104.557 188.777C104.471 189.031 104.428 189.301 104.428 189.586ZM114.342 186.656H115.327V192.861C115.327 193.42 115.213 193.896 114.987 194.291C114.76 194.686 114.444 194.984 114.038 195.188C113.635 195.395 113.17 195.498 112.643 195.498C112.424 195.498 112.167 195.463 111.87 195.393C111.577 195.326 111.288 195.211 111.002 195.047C110.721 194.887 110.485 194.67 110.293 194.396L110.862 193.752C111.127 194.072 111.405 194.295 111.694 194.42C111.987 194.545 112.276 194.607 112.561 194.607C112.905 194.607 113.202 194.543 113.452 194.414C113.702 194.285 113.895 194.094 114.032 193.84C114.172 193.59 114.243 193.281 114.243 192.914V188.051L114.342 186.656ZM109.977 189.896V189.773C109.977 189.289 110.034 188.85 110.147 188.455C110.264 188.057 110.43 187.715 110.645 187.43C110.864 187.145 111.127 186.926 111.436 186.773C111.745 186.617 112.092 186.539 112.479 186.539C112.877 186.539 113.225 186.609 113.522 186.75C113.823 186.887 114.077 187.088 114.284 187.354C114.495 187.615 114.661 187.932 114.782 188.303C114.903 188.674 114.987 189.094 115.034 189.562V190.102C114.991 190.566 114.907 190.984 114.782 191.355C114.661 191.727 114.495 192.043 114.284 192.305C114.077 192.566 113.823 192.768 113.522 192.908C113.221 193.045 112.87 193.113 112.467 193.113C112.088 193.113 111.745 193.033 111.436 192.873C111.131 192.713 110.87 192.488 110.651 192.199C110.432 191.91 110.264 191.57 110.147 191.18C110.034 190.785 109.977 190.357 109.977 189.896ZM111.061 189.773V189.896C111.061 190.213 111.092 190.51 111.155 190.787C111.221 191.064 111.321 191.309 111.454 191.52C111.59 191.73 111.764 191.896 111.975 192.018C112.186 192.135 112.438 192.193 112.731 192.193C113.09 192.193 113.387 192.117 113.622 191.965C113.856 191.812 114.042 191.611 114.178 191.361C114.319 191.111 114.428 190.84 114.506 190.547V189.135C114.463 188.92 114.397 188.713 114.307 188.514C114.221 188.311 114.108 188.131 113.967 187.975C113.831 187.814 113.661 187.688 113.458 187.594C113.254 187.5 113.016 187.453 112.743 187.453C112.446 187.453 112.19 187.516 111.975 187.641C111.764 187.762 111.59 187.93 111.454 188.145C111.321 188.355 111.221 188.602 111.155 188.883C111.092 189.16 111.061 189.457 111.061 189.773ZM120.711 191.912V188.648C120.711 188.398 120.661 188.182 120.559 187.998C120.461 187.811 120.313 187.666 120.114 187.564C119.915 187.463 119.668 187.412 119.375 187.412C119.102 187.412 118.862 187.459 118.655 187.553C118.452 187.646 118.292 187.77 118.174 187.922C118.061 188.074 118.004 188.238 118.004 188.414H116.92C116.92 188.188 116.979 187.963 117.096 187.74C117.213 187.518 117.381 187.316 117.6 187.137C117.823 186.953 118.088 186.809 118.397 186.703C118.709 186.594 119.057 186.539 119.44 186.539C119.901 186.539 120.307 186.617 120.659 186.773C121.014 186.93 121.292 187.166 121.491 187.482C121.694 187.795 121.795 188.188 121.795 188.66V191.613C121.795 191.824 121.813 192.049 121.848 192.287C121.887 192.525 121.944 192.73 122.018 192.902V192.996H120.887C120.833 192.871 120.79 192.705 120.758 192.498C120.727 192.287 120.711 192.092 120.711 191.912ZM120.899 189.152L120.911 189.914H119.815C119.506 189.914 119.231 189.939 118.989 189.99C118.747 190.037 118.543 190.109 118.379 190.207C118.215 190.305 118.09 190.428 118.004 190.576C117.918 190.721 117.875 190.891 117.875 191.086C117.875 191.285 117.92 191.467 118.01 191.631C118.1 191.795 118.235 191.926 118.415 192.023C118.598 192.117 118.823 192.164 119.088 192.164C119.42 192.164 119.713 192.094 119.967 191.953C120.221 191.812 120.422 191.641 120.571 191.438C120.723 191.234 120.805 191.037 120.817 190.846L121.28 191.367C121.252 191.531 121.178 191.713 121.057 191.912C120.936 192.111 120.774 192.303 120.571 192.486C120.372 192.666 120.133 192.816 119.856 192.938C119.583 193.055 119.274 193.113 118.93 193.113C118.5 193.113 118.124 193.029 117.799 192.861C117.479 192.693 117.229 192.469 117.049 192.188C116.874 191.902 116.786 191.584 116.786 191.232C116.786 190.893 116.852 190.594 116.985 190.336C117.118 190.074 117.309 189.857 117.559 189.686C117.809 189.51 118.11 189.377 118.461 189.287C118.813 189.197 119.206 189.152 119.639 189.152H120.899ZM124.584 188.01V192.996H123.5V186.656H124.526L124.584 188.01ZM124.327 189.586L123.875 189.568C123.879 189.135 123.944 188.734 124.069 188.367C124.194 187.996 124.37 187.674 124.596 187.4C124.823 187.127 125.092 186.916 125.405 186.768C125.721 186.615 126.071 186.539 126.454 186.539C126.766 186.539 127.047 186.582 127.297 186.668C127.547 186.75 127.76 186.883 127.936 187.066C128.116 187.25 128.252 187.488 128.346 187.781C128.44 188.07 128.487 188.424 128.487 188.842V192.996H127.397V188.83C127.397 188.498 127.348 188.232 127.25 188.033C127.153 187.83 127.01 187.684 126.823 187.594C126.635 187.5 126.405 187.453 126.131 187.453C125.862 187.453 125.616 187.51 125.393 187.623C125.174 187.736 124.985 187.893 124.825 188.092C124.668 188.291 124.545 188.52 124.456 188.777C124.37 189.031 124.327 189.301 124.327 189.586Z" fill="#4F3515"/>
</g>
<defs>
<filter id="filter0_d_910_306" x="0" y="0" width="264" height="748" filterUnits="userSpaceOnUse" color-interpolation-filters="sRGB">
<feFlood flood-opacity="0" result="BackgroundImageFix"/>
<feColorMatrix in="SourceAlpha" type="matrix" values="0 0 0 0 0 0 0 0 0 0 0 0 0 0 0 0 0 0 127 0" result="hardAlpha"/>
<feOffset dy="2"/>
<feGaussianBlur stdDeviation="5"/>
<feComposite in2="hardAlpha" operator="out"/>
<feColorMatrix type="matrix" values="0 0 0 0 0.23 0 0 0 0 0.23 0 0 0 0 0.23 0 0 0 0.25 0"/>
<feBlend mode="normal" in2="BackgroundImageFix" result="effect1_dropShadow_910_306"/>
<feBlend mode="normal" in="SourceGraphic" in2="effect1_dropShadow_910_306" result="shape"/>
</filter>
<linearGradient id="paint0_linear_910_306" x1="134.38" y1="1.63598" x2="151.097" y2="796.887" gradientUnits="userSpaceOnUse">
<stop stop-color="#F3BF72" stop-opacity="0.2"/>
<stop offset="1" stop-color="#F9DB9B" stop-opacity="0"/>
</linearGradient>
<linearGradient id="paint1_linear_910_306" x1="241.75" y1="24.5641" x2="300.349" y2="166.428" gradientUnits="userSpaceOnUse">
<stop stop-color="#FFF9DD"/>
<stop offset="1" stop-color="#F2B969"/>
<stop offset="1" stop-color="#DDC7A9"/>
</linearGradient>
<linearGradient id="paint2_linear_910_306" x1="97.1029" y1="32.7883" x2="159.091" y2="256.312" gradientUnits="userSpaceOnUse">
<stop stop-color="#FFF9DD"/>
<stop offset="1" stop-color="#F2B969"/>
<stop offset="1" stop-color="#DDC7A9"/>
</linearGradient>
<linearGradient id="paint3_linear_910_306" x1="263.771" y1="-66.3128" x2="236.821" y2="165.834" gradientUnits="userSpaceOnUse">
<stop stop-color="#FDF0B9"/>
<stop offset="1" stop-color="#F2B969"/>
<stop offset="1" stop-color="#F2B969"/>
</linearGradient>
<linearGradient id="paint4_linear_910_306" x1="272.186" y1="-52.8948" x2="225.131" y2="173.765" gradientUnits="userSpaceOnUse">
<stop stop-color="#FDF0B9"/>
<stop offset="1" stop-color="#F2B969"/>
<stop offset="1" stop-color="#F2B969"/>
</linearGradient>
<clipPath id="clip0_910_306">
<rect width="244" height="173" fill="white" transform="translate(10 8)"/>
</clipPath>
</defs>
</svg>
