<svg width="264" height="748" viewBox="0 0 264 748" fill="none" xmlns="http://www.w3.org/2000/svg">
<g filter="url(#filter0_d_910_305)">
<g clip-path="url(#clip0_910_305)">
<rect x="10" y="8" width="244" height="728" rx="15" fill="white"/>
<rect x="10" y="8" width="244" height="630" fill="url(#paint0_linear_910_305)"/>
<g clip-path="url(#clip1_910_305)">
<rect x="-77" y="26.3945" width="205.578" height="162.173" transform="rotate(-18.2958 -77 26.3945)" fill="url(#paint1_linear_910_305)"/>
<rect x="161.049" y="20.1797" width="95.2195" height="111.883" fill="url(#paint2_linear_910_305)"/>
<rect width="209.483" height="24.761" transform="translate(-53.1953 148.816) rotate(-18.2359)" fill="#ED1C23"/>
<path d="M24.5974 140.121C24.9475 140.006 25.2291 139.869 25.4422 139.71C25.6582 139.546 25.8182 139.368 25.9222 139.176C26.0306 138.983 26.0866 138.781 26.0903 138.568C26.097 138.35 26.0638 138.13 25.9908 137.908C25.8418 137.456 25.5698 137.152 25.1749 136.998C24.7829 136.837 24.2545 136.866 23.5896 137.085L21.6682 137.718L22.6693 140.756L24.5974 140.121ZM20.3211 133.629L21.3068 136.621L22.8625 136.109C23.5274 135.89 23.9815 135.597 24.2247 135.232C24.468 134.867 24.5101 134.443 24.3509 133.96C24.1771 133.432 23.8964 133.102 23.5088 132.97C23.1255 132.836 22.6059 132.877 21.9499 133.093L20.3211 133.629ZM21.5491 131.876C22.1607 131.674 22.7035 131.562 23.1773 131.539C23.6496 131.511 24.0612 131.559 24.4119 131.685C24.7627 131.81 25.0542 132.008 25.2865 132.281C25.5217 132.547 25.7035 132.876 25.832 133.266C25.9065 133.492 25.9433 133.723 25.9425 133.959C25.9447 134.189 25.9033 134.421 25.8183 134.656C25.7364 134.884 25.6109 135.107 25.4419 135.325C25.2729 135.543 25.056 135.749 24.7912 135.945C26.2424 135.786 27.1578 136.283 27.5375 137.435C27.6719 137.843 27.7177 138.243 27.675 138.636C27.6353 139.022 27.5101 139.388 27.2993 139.732C27.0915 140.071 26.7975 140.379 26.4173 140.657C26.0371 140.934 25.5744 141.163 25.0292 141.342L21.5188 142.499L18.3645 132.925L21.5491 131.876ZM32.9148 134.138C32.836 133.899 32.7275 133.689 32.5894 133.508C32.4543 133.322 32.2954 133.175 32.1128 133.068C31.9287 132.957 31.7231 132.892 31.4959 132.873C31.2717 132.849 31.031 132.879 30.7739 132.964C30.2554 133.135 29.8965 133.418 29.6974 133.812C29.4983 134.207 29.4472 134.686 29.5441 135.249L32.9148 134.138ZM29.7933 136.139C29.9381 136.519 30.1082 136.834 30.3036 137.084C30.4976 137.33 30.7094 137.518 30.9392 137.648C31.1734 137.778 31.4233 137.85 31.6888 137.866C31.9574 137.876 32.2379 137.832 32.5305 137.736C32.8097 137.644 33.041 137.533 33.2245 137.404C33.4064 137.27 33.5604 137.141 33.6862 137.016C33.8107 136.887 33.9158 136.773 34.0018 136.676C34.0862 136.575 34.1728 136.509 34.2614 136.48C34.3767 136.442 34.4799 136.457 34.5712 136.526L35.1498 136.917C35.0471 137.172 34.912 137.403 34.7445 137.611C34.577 137.818 34.3882 138.006 34.1781 138.173C33.9665 138.336 33.7402 138.477 33.4992 138.596C33.2597 138.719 33.0203 138.82 32.781 138.899C32.3112 139.054 31.849 139.12 31.3946 139.098C30.9431 139.07 30.5185 138.952 30.1208 138.744C29.7275 138.534 29.3721 138.231 29.0548 137.835C28.7418 137.436 28.4882 136.943 28.294 136.353C28.1392 135.883 28.0678 135.42 28.0797 134.965C28.096 134.507 28.1919 134.082 28.3674 133.69C28.5474 133.297 28.8061 132.949 29.1436 132.646C29.4841 132.337 29.9048 132.101 30.4056 131.936C30.8223 131.798 31.2305 131.74 31.6304 131.76C32.0288 131.777 32.3996 131.873 32.7428 132.05C33.086 132.227 33.3914 132.482 33.6588 132.817C33.9292 133.145 34.144 133.551 34.3031 134.034C34.3762 134.256 34.4007 134.412 34.3768 134.504C34.3528 134.595 34.2766 134.662 34.1481 134.704L29.7933 136.139ZM39.1199 130.546C39.1049 130.62 39.0796 130.677 39.044 130.718C39.0085 130.759 38.9574 130.791 38.891 130.813C38.8156 130.838 38.7263 130.843 38.6231 130.827C38.5184 130.808 38.3967 130.789 38.258 130.771C38.1194 130.753 37.9607 130.748 37.7821 130.758C37.6065 130.762 37.4101 130.8 37.1929 130.871C37.0156 130.93 36.8612 131.005 36.7295 131.098C36.6008 131.184 36.4986 131.284 36.423 131.398C36.3503 131.505 36.3049 131.621 36.2867 131.745C36.2671 131.864 36.2771 131.984 36.3165 132.103C36.3691 132.263 36.4616 132.38 36.5942 132.454C36.7267 132.528 36.8859 132.579 37.0718 132.606C37.2562 132.629 37.4605 132.638 37.6849 132.633C37.9092 132.628 38.1394 132.625 38.3755 132.626C38.6116 132.627 38.847 132.64 39.0815 132.666C39.3161 132.692 39.5358 132.748 39.7406 132.832C39.944 132.913 40.1266 133.034 40.2883 133.197C40.4486 133.356 40.574 133.572 40.6646 133.847C40.7697 134.166 40.8092 134.48 40.7831 134.788C40.7569 135.097 40.6659 135.387 40.51 135.66C40.3541 135.932 40.1282 136.178 39.8323 136.399C39.5408 136.618 39.1823 136.797 38.7568 136.937C38.5219 137.015 38.2863 137.068 38.0501 137.097C37.8198 137.128 37.5932 137.141 37.3704 137.136C37.1505 137.125 36.9374 137.097 36.7309 137.052C36.5289 137.006 36.3417 136.945 36.1693 136.869L36.3221 136.214C36.3401 136.134 36.3721 136.067 36.418 136.013C36.4669 135.953 36.5357 135.908 36.6243 135.879C36.7174 135.848 36.8185 135.849 36.9276 135.882C37.0397 135.909 37.1672 135.938 37.3102 135.969C37.4577 136 37.6281 136.017 37.8214 136.022C38.0132 136.023 38.2377 135.981 38.4948 135.896C38.7075 135.826 38.8834 135.741 39.0225 135.641C39.1601 135.537 39.2653 135.424 39.338 135.301C39.4107 135.179 39.4532 135.055 39.4655 134.928C39.4763 134.796 39.4605 134.666 39.4181 134.538C39.3612 134.365 39.2657 134.239 39.1317 134.161C38.9977 134.082 38.8355 134.03 38.6452 134.004C38.4594 133.977 38.2521 133.966 38.0233 133.973C37.799 133.978 37.5688 133.98 37.3326 133.98C37.0965 133.979 36.859 133.966 36.62 133.942C36.3854 133.916 36.1628 133.859 35.9521 133.771C35.7443 133.677 35.5581 133.545 35.3934 133.373C35.2273 133.197 35.0953 132.96 34.9974 132.663C34.9084 132.393 34.8768 132.118 34.9029 131.839C34.9334 131.559 35.0221 131.292 35.1691 131.037C35.3205 130.781 35.5316 130.549 35.8024 130.342C36.0762 130.129 36.4147 129.956 36.818 129.823C37.2746 129.672 37.7131 129.609 38.1336 129.633C38.5541 129.656 38.9323 129.753 39.2682 129.922L39.1199 130.546ZM44.9136 134.909C44.3507 135.094 43.8644 135.08 43.4549 134.866C43.0484 134.646 42.7502 134.248 42.5604 133.672L41.2592 129.723L40.5146 129.968C40.4348 129.995 40.3581 129.993 40.2844 129.963C40.2092 129.929 40.1549 129.861 40.1213 129.759L39.9307 129.18L40.9751 128.659L40.6414 126.595C40.6387 126.513 40.6567 126.44 40.6953 126.379C40.7324 126.312 40.7953 126.264 40.8839 126.235L41.6153 125.994L42.3491 128.222L44.2306 127.602L44.5701 128.632L42.6886 129.252L43.9569 133.101C44.0372 133.345 44.1584 133.512 44.3204 133.601C44.4824 133.69 44.6632 133.702 44.8626 133.636C44.9734 133.599 45.0644 133.555 45.1354 133.502C45.2049 133.445 45.2634 133.391 45.3108 133.341C45.3567 133.286 45.3953 133.239 45.4264 133.2C45.4605 133.154 45.4975 133.125 45.5374 133.111C45.6172 133.085 45.696 133.108 45.774 133.181L46.4295 133.739C46.2722 134.007 46.0603 134.244 45.794 134.449C45.5261 134.651 45.2327 134.804 44.9136 134.909ZM53.5289 123.152C53.5064 123.248 53.4752 123.325 53.4351 123.382C53.3936 123.435 53.333 123.475 53.2532 123.501C53.169 123.529 53.062 123.525 52.9323 123.489C52.807 123.452 52.6529 123.417 52.47 123.383C52.2901 123.344 52.0843 123.324 51.8526 123.322C51.6195 123.315 51.3589 123.359 51.0708 123.454C50.8048 123.541 50.5809 123.652 50.3989 123.786C50.2213 123.918 50.0836 124.067 49.9856 124.231C49.8876 124.396 49.8302 124.573 49.8133 124.76C49.7994 124.941 49.8238 125.127 49.8866 125.318C49.967 125.562 50.0984 125.744 50.281 125.866C50.4621 125.983 50.6758 126.065 50.9221 126.112C51.1728 126.157 51.4479 126.179 51.7475 126.179C52.0456 126.174 52.3504 126.174 52.6617 126.18C52.9775 126.184 53.291 126.203 53.6023 126.238C53.9136 126.274 54.2048 126.352 54.4759 126.474C54.7514 126.594 54.9987 126.771 55.2178 127.003C55.4369 127.236 55.6114 127.549 55.7414 127.944C55.8816 128.369 55.9399 128.792 55.9163 129.213C55.8927 129.633 55.7872 130.029 55.6 130.4C55.4158 130.766 55.146 131.095 54.7908 131.389C54.4401 131.682 54.0054 131.913 53.4868 132.084C53.181 132.185 52.8716 132.253 52.5586 132.287C52.2515 132.324 51.9475 132.333 51.6465 132.315C51.3485 132.29 51.0587 132.238 50.7771 132.159C50.4955 132.08 50.2324 131.975 49.9879 131.844L50.1947 130.95C50.2141 130.875 50.249 130.81 50.2994 130.754C50.3498 130.698 50.4126 130.658 50.488 130.633C50.5899 130.599 50.719 130.611 50.8752 130.667C51.03 130.719 51.2128 130.775 51.4236 130.833C51.6374 130.885 51.8845 130.919 52.1649 130.935C52.4437 130.946 52.756 130.895 53.1017 130.781C53.6646 130.596 54.0537 130.315 54.269 129.94C54.4887 129.563 54.519 129.133 54.3598 128.65C54.2708 128.379 54.1342 128.181 53.9502 128.055C53.7647 127.924 53.5466 127.837 53.2959 127.791C53.0496 127.745 52.7781 127.726 52.4814 127.735C52.1848 127.745 51.8822 127.751 51.5738 127.754C51.2639 127.753 50.9541 127.737 50.6443 127.707C50.333 127.672 50.0389 127.592 49.7619 127.467C49.4878 127.336 49.2391 127.148 49.0156 126.902C48.7907 126.652 48.6067 126.31 48.4636 125.875C48.3497 125.53 48.3059 125.173 48.3323 124.806C48.3631 124.437 48.4661 124.086 48.6414 123.753C48.8197 123.414 49.0746 123.107 49.4061 122.83C49.7376 122.554 50.1471 122.336 50.6347 122.175C51.1843 121.994 51.7158 121.915 52.2293 121.937C52.7472 121.958 53.225 122.073 53.6625 122.283L53.5289 123.152ZM61.1837 124.824C61.1048 124.585 60.9963 124.375 60.8582 124.194C60.7231 124.008 60.5643 123.861 60.3816 123.754C60.1976 123.643 59.9919 123.578 59.7647 123.56C59.5405 123.535 59.2998 123.565 59.0428 123.65C58.5242 123.821 58.1653 124.104 57.9662 124.498C57.7671 124.893 57.716 125.372 57.8129 125.935L61.1837 124.824ZM58.0622 126.825C58.207 127.205 58.377 127.52 58.5724 127.77C58.7664 128.016 58.9782 128.204 59.208 128.335C59.4422 128.464 59.6921 128.536 59.9577 128.552C60.2262 128.562 60.5068 128.518 60.7993 128.422C61.0785 128.33 61.3099 128.219 61.4933 128.09C61.6753 127.956 61.8292 127.827 61.9551 127.702C62.0795 127.573 62.1847 127.459 62.2706 127.362C62.3551 127.261 62.4416 127.195 62.5303 127.166C62.6455 127.128 62.7488 127.143 62.84 127.212L63.4186 127.603C63.3159 127.858 63.1808 128.089 63.0133 128.297C62.8458 128.504 62.657 128.692 62.4469 128.859C62.2353 129.022 62.009 129.163 61.7681 129.282C61.5286 129.405 61.2892 129.506 61.0498 129.585C60.58 129.74 60.1179 129.806 59.6634 129.784C59.2119 129.756 58.7873 129.638 58.3896 129.43C57.9963 129.22 57.641 128.917 57.3236 128.521C57.0106 128.123 56.757 127.629 56.5628 127.039C56.408 126.569 56.3366 126.107 56.3485 125.651C56.3648 125.193 56.4608 124.768 56.6363 124.377C56.8162 123.983 57.0749 123.635 57.4124 123.332C57.7529 123.023 58.1736 122.787 58.6745 122.622C59.0911 122.484 59.4993 122.426 59.8992 122.447C60.2976 122.463 60.6684 122.559 61.0116 122.736C61.3549 122.913 61.6602 123.168 61.9276 123.503C62.198 123.831 62.4128 124.237 62.572 124.72C62.645 124.942 62.6695 125.098 62.6456 125.19C62.6217 125.281 62.5454 125.348 62.4169 125.391L58.0622 126.825ZM63.383 117.798L66.6249 127.638L65.1955 128.109L61.9535 118.269L63.383 117.798ZM66.6033 116.737L69.8452 126.577L68.4158 127.048L65.1739 117.208L66.6033 116.737ZM74.6883 120.375C74.6094 120.135 74.501 119.925 74.3629 119.745C74.2278 119.558 74.0689 119.412 73.8863 119.305C73.7022 119.193 73.4965 119.129 73.2694 119.11C73.0451 119.086 72.8045 119.116 72.5474 119.201C72.0288 119.371 71.67 119.654 71.4709 120.049C71.2717 120.444 71.2206 120.923 71.3176 121.485L74.6883 120.375ZM71.5668 122.376C71.7116 122.756 71.8817 123.071 72.0771 123.321C72.271 123.566 72.4829 123.754 72.7126 123.885C72.9468 124.014 73.1967 124.087 73.4623 124.102C73.7308 124.112 74.0114 124.069 74.3039 123.973C74.5832 123.881 74.8145 123.77 74.9979 123.641C75.1799 123.507 75.3338 123.378 75.4597 123.253C75.5841 123.123 75.6893 123.01 75.7752 122.913C75.8597 122.811 75.9462 122.746 76.0349 122.717C76.1501 122.679 76.2534 122.694 76.3446 122.762L76.9232 123.154C76.8205 123.409 76.6854 123.64 76.518 123.847C76.3505 124.055 76.1617 124.242 75.9515 124.41C75.7399 124.573 75.5137 124.714 75.2727 124.833C75.0332 124.956 74.7938 125.057 74.5544 125.136C74.0846 125.29 73.6225 125.357 73.168 125.334C72.7166 125.306 72.292 125.188 71.8942 124.98C71.5009 124.771 71.1456 124.468 70.8282 124.071C70.5153 123.673 70.2617 123.179 70.0675 122.59C69.9127 122.12 69.8412 121.657 69.8531 121.201C69.8695 120.744 69.9654 120.319 70.1409 119.927C70.3208 119.534 70.5796 119.186 70.9171 118.883C71.2576 118.574 71.6782 118.337 72.1791 118.172C72.5957 118.035 73.004 117.977 73.4038 117.997C73.8022 118.013 74.173 118.11 74.5163 118.287C74.8595 118.463 75.1648 118.719 75.4322 119.053C75.7026 119.382 75.9174 119.788 76.0766 120.271C76.1496 120.493 76.1742 120.649 76.1502 120.74C76.1263 120.832 76.0501 120.899 75.9215 120.941L71.5668 122.376ZM78.2029 117.698C78.2739 117.198 78.42 116.777 78.6411 116.434C78.8607 116.086 79.1811 115.843 79.6021 115.704C79.7484 115.656 79.8916 115.629 80.0319 115.622C80.1706 115.61 80.3019 115.621 80.4258 115.654L80.6809 116.764C80.688 116.845 80.6767 116.908 80.6471 116.952C80.6204 116.99 80.576 117.02 80.5139 117.04C80.4474 117.062 80.3485 117.082 80.2171 117.101C80.0842 117.115 79.9491 117.145 79.8117 117.19C79.6122 117.256 79.4444 117.343 79.3083 117.452C79.1766 117.559 79.0669 117.689 78.9793 117.84C78.8962 117.991 78.8343 118.161 78.7938 118.351C78.7533 118.541 78.7268 118.752 78.7142 118.982L80.1029 123.197L78.6735 123.668L76.4392 116.886L77.2703 116.613C77.421 116.563 77.5346 116.557 77.6112 116.596C77.6864 116.63 77.7577 116.712 77.8251 116.843L78.2029 117.698Z" fill="white"/>
<path opacity="0.5" d="M-3.27208 -76.6682C4.93038 -95.8481 27.0352 -104.861 46.3104 -96.8855L246.405 -14.0888C266.68 -5.69945 275.691 18.0413 266.09 37.7711L220.493 131.472C211.604 149.737 189.946 157.813 171.269 149.825L-23.1515 66.6796C-42.4924 58.4083 -51.4661 36.0242 -43.1948 16.6833L-3.27208 -76.6682Z" fill="url(#paint3_linear_910_305)"/>
<path d="M30.1362 -82.437C40.5565 -100.486 63.5475 -106.808 81.731 -96.625L244.886 -5.25827C263.983 5.43615 270.159 29.9879 258.394 48.4452L202.425 136.256C191.468 153.447 168.918 158.963 151.263 148.77L-6.71257 57.5625C-24.9297 47.0448 -31.1713 23.7507 -20.6537 5.53355L30.1362 -82.437Z" fill="url(#paint4_linear_910_305)"/>
</g>
<path d="M110.78 34.324V43H109.16V39.208H105.086V43H103.466V34.324H105.086V38.056H109.16V34.324H110.78ZM115.938 40.372C115.51 40.392 115.15 40.43 114.858 40.486C114.566 40.538 114.332 40.606 114.156 40.69C113.98 40.774 113.854 40.872 113.778 40.984C113.702 41.096 113.664 41.218 113.664 41.35C113.664 41.61 113.74 41.796 113.892 41.908C114.048 42.02 114.25 42.076 114.498 42.076C114.802 42.076 115.064 42.022 115.284 41.914C115.508 41.802 115.726 41.634 115.938 41.41V40.372ZM112.542 37.702C113.25 37.054 114.102 36.73 115.098 36.73C115.458 36.73 115.78 36.79 116.064 36.91C116.348 37.026 116.588 37.19 116.784 37.402C116.98 37.61 117.128 37.86 117.228 38.152C117.332 38.444 117.384 38.764 117.384 39.112V43H116.712C116.572 43 116.464 42.98 116.388 42.94C116.312 42.896 116.252 42.81 116.208 42.682L116.076 42.238C115.92 42.378 115.768 42.502 115.62 42.61C115.472 42.714 115.318 42.802 115.158 42.874C114.998 42.946 114.826 43 114.642 43.036C114.462 43.076 114.262 43.096 114.042 43.096C113.782 43.096 113.542 43.062 113.322 42.994C113.102 42.922 112.912 42.816 112.752 42.676C112.592 42.536 112.468 42.362 112.38 42.154C112.292 41.946 112.248 41.704 112.248 41.428C112.248 41.272 112.274 41.118 112.326 40.966C112.378 40.81 112.462 40.662 112.578 40.522C112.698 40.382 112.852 40.25 113.04 40.126C113.228 40.002 113.458 39.894 113.73 39.802C114.006 39.71 114.326 39.636 114.69 39.58C115.054 39.52 115.47 39.484 115.938 39.472V39.112C115.938 38.7 115.85 38.396 115.674 38.2C115.498 38 115.244 37.9 114.912 37.9C114.672 37.9 114.472 37.928 114.312 37.984C114.156 38.04 114.018 38.104 113.898 38.176C113.778 38.244 113.668 38.306 113.568 38.362C113.472 38.418 113.364 38.446 113.244 38.446C113.14 38.446 113.052 38.42 112.98 38.368C112.908 38.312 112.85 38.248 112.806 38.176L112.542 37.702ZM120.538 37.912C120.73 37.544 120.958 37.256 121.222 37.048C121.486 36.836 121.798 36.73 122.158 36.73C122.442 36.73 122.67 36.792 122.842 36.916L122.746 38.026C122.726 38.098 122.696 38.15 122.656 38.182C122.62 38.21 122.57 38.224 122.506 38.224C122.446 38.224 122.356 38.214 122.236 38.194C122.12 38.174 122.006 38.164 121.894 38.164C121.73 38.164 121.584 38.188 121.456 38.236C121.328 38.284 121.212 38.354 121.108 38.446C121.008 38.534 120.918 38.642 120.838 38.77C120.762 38.898 120.69 39.044 120.622 39.208V43H119.14V36.844H120.01C120.162 36.844 120.268 36.872 120.328 36.928C120.388 36.98 120.428 37.076 120.448 37.216L120.538 37.912ZM127.676 38.416C127.508 38.212 127.324 38.068 127.124 37.984C126.928 37.9 126.716 37.858 126.488 37.858C126.264 37.858 126.062 37.9 125.882 37.984C125.702 38.068 125.548 38.196 125.42 38.368C125.292 38.536 125.194 38.752 125.126 39.016C125.058 39.276 125.024 39.584 125.024 39.94C125.024 40.3 125.052 40.606 125.108 40.858C125.168 41.106 125.252 41.31 125.36 41.47C125.468 41.626 125.6 41.74 125.756 41.812C125.912 41.88 126.086 41.914 126.278 41.914C126.586 41.914 126.848 41.85 127.064 41.722C127.28 41.594 127.484 41.412 127.676 41.176V38.416ZM129.158 34.084V43H128.252C128.056 43 127.932 42.91 127.88 42.73L127.754 42.136C127.506 42.42 127.22 42.65 126.896 42.826C126.576 43.002 126.202 43.09 125.774 43.09C125.438 43.09 125.13 43.02 124.85 42.88C124.57 42.74 124.328 42.538 124.124 42.274C123.924 42.006 123.768 41.676 123.656 41.284C123.548 40.892 123.494 40.444 123.494 39.94C123.494 39.484 123.556 39.06 123.68 38.668C123.804 38.276 123.982 37.936 124.214 37.648C124.446 37.36 124.724 37.136 125.048 36.976C125.372 36.812 125.736 36.73 126.14 36.73C126.484 36.73 126.778 36.784 127.022 36.892C127.266 37 127.484 37.146 127.676 37.33V34.084H129.158ZM135.391 38.146C135.347 38.202 135.303 38.246 135.259 38.278C135.219 38.31 135.159 38.326 135.079 38.326C135.003 38.326 134.929 38.304 134.857 38.26C134.785 38.212 134.699 38.16 134.599 38.104C134.499 38.044 134.379 37.992 134.239 37.948C134.103 37.9 133.933 37.876 133.729 37.876C133.469 37.876 133.241 37.924 133.045 38.02C132.849 38.112 132.685 38.246 132.553 38.422C132.425 38.598 132.329 38.812 132.265 39.064C132.201 39.312 132.169 39.594 132.169 39.91C132.169 40.238 132.203 40.53 132.271 40.786C132.343 41.042 132.445 41.258 132.577 41.434C132.709 41.606 132.869 41.738 133.057 41.83C133.245 41.918 133.457 41.962 133.693 41.962C133.929 41.962 134.119 41.934 134.263 41.878C134.411 41.818 134.535 41.754 134.635 41.686C134.735 41.614 134.821 41.55 134.893 41.494C134.969 41.434 135.053 41.404 135.145 41.404C135.265 41.404 135.355 41.45 135.415 41.542L135.841 42.082C135.677 42.274 135.499 42.436 135.307 42.568C135.115 42.696 134.915 42.8 134.707 42.88C134.503 42.956 134.291 43.01 134.071 43.042C133.855 43.074 133.639 43.09 133.423 43.09C133.043 43.09 132.685 43.02 132.349 42.88C132.013 42.736 131.719 42.528 131.467 42.256C131.215 41.984 131.015 41.652 130.867 41.26C130.723 40.864 130.651 40.414 130.651 39.91C130.651 39.458 130.715 39.04 130.843 38.656C130.975 38.268 131.167 37.934 131.419 37.654C131.671 37.37 131.983 37.148 132.355 36.988C132.727 36.828 133.155 36.748 133.639 36.748C134.099 36.748 134.501 36.822 134.845 36.97C135.193 37.118 135.505 37.33 135.781 37.606L135.391 38.146ZM139.748 36.748C140.204 36.748 140.618 36.822 140.99 36.97C141.366 37.118 141.686 37.328 141.95 37.6C142.218 37.872 142.424 38.204 142.568 38.596C142.712 38.988 142.784 39.426 142.784 39.91C142.784 40.398 142.712 40.838 142.568 41.23C142.424 41.622 142.218 41.956 141.95 42.232C141.686 42.508 141.366 42.72 140.99 42.868C140.618 43.016 140.204 43.09 139.748 43.09C139.288 43.09 138.87 43.016 138.494 42.868C138.118 42.72 137.796 42.508 137.528 42.232C137.264 41.956 137.058 41.622 136.91 41.23C136.766 40.838 136.694 40.398 136.694 39.91C136.694 39.426 136.766 38.988 136.91 38.596C137.058 38.204 137.264 37.872 137.528 37.6C137.796 37.328 138.118 37.118 138.494 36.97C138.87 36.822 139.288 36.748 139.748 36.748ZM139.748 41.95C140.26 41.95 140.638 41.778 140.882 41.434C141.13 41.09 141.254 40.586 141.254 39.922C141.254 39.258 141.13 38.752 140.882 38.404C140.638 38.056 140.26 37.882 139.748 37.882C139.228 37.882 138.842 38.058 138.59 38.41C138.342 38.758 138.218 39.262 138.218 39.922C138.218 40.582 138.342 41.086 138.59 41.434C138.842 41.778 139.228 41.95 139.748 41.95ZM149.637 36.844L147.195 43H145.851L143.409 36.844H144.633C144.745 36.844 144.837 36.87 144.909 36.922C144.985 36.974 145.035 37.04 145.059 37.12L146.247 40.408C146.311 40.6 146.367 40.788 146.415 40.972C146.463 41.156 146.505 41.34 146.541 41.524C146.581 41.34 146.625 41.156 146.673 40.972C146.721 40.788 146.779 40.6 146.847 40.408L148.059 37.12C148.087 37.04 148.137 36.974 148.209 36.922C148.281 36.87 148.367 36.844 148.467 36.844H149.637ZM154.566 39.214C154.566 39.022 154.538 38.842 154.482 38.674C154.43 38.502 154.35 38.352 154.242 38.224C154.134 38.096 153.996 37.996 153.828 37.924C153.664 37.848 153.472 37.81 153.252 37.81C152.824 37.81 152.486 37.932 152.238 38.176C151.994 38.42 151.838 38.766 151.77 39.214H154.566ZM151.74 40.108C151.764 40.424 151.82 40.698 151.908 40.93C151.996 41.158 152.112 41.348 152.256 41.5C152.4 41.648 152.57 41.76 152.766 41.836C152.966 41.908 153.186 41.944 153.426 41.944C153.666 41.944 153.872 41.916 154.044 41.86C154.22 41.804 154.372 41.742 154.5 41.674C154.632 41.606 154.746 41.544 154.842 41.488C154.942 41.432 155.038 41.404 155.13 41.404C155.254 41.404 155.346 41.45 155.406 41.542L155.832 42.082C155.668 42.274 155.484 42.436 155.28 42.568C155.076 42.696 154.862 42.8 154.638 42.88C154.418 42.956 154.192 43.01 153.96 43.042C153.732 43.074 153.51 43.09 153.294 43.09C152.866 43.09 152.468 43.02 152.1 42.88C151.732 42.736 151.412 42.526 151.14 42.25C150.868 41.97 150.654 41.626 150.498 41.218C150.342 40.806 150.264 40.33 150.264 39.79C150.264 39.37 150.332 38.976 150.468 38.608C150.604 38.236 150.798 37.914 151.05 37.642C151.306 37.366 151.616 37.148 151.98 36.988C152.348 36.828 152.762 36.748 153.222 36.748C153.61 36.748 153.968 36.81 154.296 36.934C154.624 37.058 154.906 37.24 155.142 37.48C155.378 37.716 155.562 38.008 155.694 38.356C155.83 38.7 155.898 39.094 155.898 39.538C155.898 39.762 155.874 39.914 155.826 39.994C155.778 40.07 155.686 40.108 155.55 40.108H151.74ZM158.768 37.912C158.96 37.544 159.188 37.256 159.452 37.048C159.716 36.836 160.028 36.73 160.388 36.73C160.672 36.73 160.9 36.792 161.072 36.916L160.976 38.026C160.956 38.098 160.926 38.15 160.886 38.182C160.85 38.21 160.8 38.224 160.736 38.224C160.676 38.224 160.586 38.214 160.466 38.194C160.35 38.174 160.236 38.164 160.124 38.164C159.96 38.164 159.814 38.188 159.686 38.236C159.558 38.284 159.442 38.354 159.338 38.446C159.238 38.534 159.148 38.642 159.068 38.77C158.992 38.898 158.92 39.044 158.852 39.208V43H157.37V36.844H158.24C158.392 36.844 158.498 36.872 158.558 36.928C158.618 36.98 158.658 37.076 158.678 37.216L158.768 37.912Z" fill="#444444"/>
<rect x="93" y="27.5" width="78" height="21" rx="10.5" stroke="#444444"/>
<path d="M107.92 59.28C108.193 59.28 108.433 59.2467 108.64 59.18C108.85 59.1133 109.025 59.02 109.165 58.9C109.305 58.7767 109.41 58.6317 109.48 58.465C109.55 58.295 109.585 58.1083 109.585 57.905C109.585 57.4917 109.448 57.18 109.175 56.97C108.905 56.76 108.498 56.655 107.955 56.655H106.95V59.28H107.92ZM111.27 63H110.32C110.13 63 109.992 62.925 109.905 62.775L108.13 60.285C108.073 60.2017 108.012 60.1433 107.945 60.11C107.878 60.0733 107.778 60.055 107.645 60.055H106.95V63H105.885V55.82H107.955C108.418 55.82 108.817 55.8683 109.15 55.965C109.487 56.0583 109.763 56.1933 109.98 56.37C110.2 56.5433 110.362 56.7533 110.465 57C110.572 57.2467 110.625 57.5233 110.625 57.83C110.625 58.08 110.587 58.315 110.51 58.535C110.433 58.755 110.32 58.9533 110.17 59.13C110.023 59.3033 109.843 59.4533 109.63 59.58C109.417 59.7067 109.175 59.8033 108.905 59.87C109.038 59.95 109.153 60.0617 109.25 60.205L111.27 63ZM112.9 61.75C113.06 61.96 113.232 62.1067 113.415 62.19C113.602 62.2733 113.81 62.315 114.04 62.315C114.487 62.315 114.832 62.155 115.075 61.835C115.322 61.5117 115.445 61.0417 115.445 60.425C115.445 60.1017 115.417 59.8267 115.36 59.6C115.307 59.37 115.227 59.1833 115.12 59.04C115.017 58.8933 114.889 58.7867 114.735 58.72C114.582 58.65 114.409 58.615 114.215 58.615C113.932 58.615 113.685 58.6783 113.475 58.805C113.269 58.9317 113.077 59.1117 112.9 59.345V61.75ZM112.85 58.68C112.957 58.5533 113.07 58.4383 113.19 58.335C113.314 58.2283 113.445 58.1383 113.585 58.065C113.725 57.9883 113.874 57.93 114.03 57.89C114.19 57.8467 114.36 57.825 114.54 57.825C114.83 57.825 115.092 57.8817 115.325 57.995C115.562 58.1083 115.764 58.275 115.93 58.495C116.097 58.715 116.225 58.9867 116.315 59.31C116.409 59.6333 116.455 60.005 116.455 60.425C116.455 60.8017 116.404 61.1517 116.3 61.475C116.2 61.795 116.055 62.0733 115.865 62.31C115.679 62.5467 115.449 62.7333 115.175 62.87C114.905 63.0033 114.6 63.07 114.26 63.07C113.957 63.07 113.697 63.02 113.48 62.92C113.264 62.82 113.07 62.68 112.9 62.5V64.705H111.925V57.92H112.51C112.647 57.92 112.732 57.985 112.765 58.115L112.85 58.68ZM117.39 62.415C117.39 62.325 117.407 62.24 117.44 62.16C117.474 62.08 117.519 62.01 117.575 61.95C117.635 61.89 117.705 61.8433 117.785 61.81C117.865 61.7733 117.952 61.755 118.045 61.755C118.135 61.755 118.22 61.7733 118.3 61.81C118.38 61.8433 118.45 61.89 118.51 61.95C118.57 62.01 118.617 62.08 118.65 62.16C118.687 62.24 118.705 62.325 118.705 62.415C118.705 62.5083 118.687 62.595 118.65 62.675C118.617 62.755 118.57 62.825 118.51 62.885C118.45 62.945 118.38 62.9917 118.3 63.025C118.22 63.0583 118.135 63.075 118.045 63.075C117.952 63.075 117.865 63.0583 117.785 63.025C117.705 62.9917 117.635 62.945 117.575 62.885C117.519 62.825 117.474 62.755 117.44 62.675C117.407 62.595 117.39 62.5083 117.39 62.415ZM127.268 59.41C127.268 60.0367 127.199 60.58 127.063 61.04C126.929 61.5 126.744 61.8817 126.508 62.185C126.274 62.485 125.998 62.7083 125.678 62.855C125.361 63.0017 125.019 63.075 124.653 63.075C124.286 63.075 123.943 63.0017 123.623 62.855C123.306 62.7083 123.031 62.485 122.798 62.185C122.564 61.8817 122.381 61.5 122.248 61.04C122.114 60.58 122.048 60.0367 122.048 59.41C122.048 58.7833 122.114 58.24 122.248 57.78C122.381 57.3167 122.564 56.935 122.798 56.635C123.031 56.3317 123.306 56.1067 123.623 55.96C123.943 55.8133 124.286 55.74 124.653 55.74C125.019 55.74 125.361 55.8133 125.678 55.96C125.998 56.1067 126.274 56.3317 126.508 56.635C126.744 56.935 126.929 57.3167 127.063 57.78C127.199 58.24 127.268 58.7833 127.268 59.41ZM126.258 59.41C126.258 58.87 126.213 58.4183 126.123 58.055C126.036 57.6917 125.918 57.4 125.768 57.18C125.621 56.9567 125.451 56.7983 125.258 56.705C125.064 56.6117 124.863 56.565 124.653 56.565C124.443 56.565 124.241 56.6117 124.048 56.705C123.854 56.7983 123.683 56.9567 123.533 57.18C123.386 57.4 123.269 57.6917 123.183 58.055C123.096 58.4183 123.053 58.87 123.053 59.41C123.053 59.95 123.096 60.4017 123.183 60.765C123.269 61.1283 123.386 61.42 123.533 61.64C123.683 61.86 123.854 62.0167 124.048 62.11C124.241 62.2033 124.443 62.25 124.653 62.25C124.863 62.25 125.064 62.2033 125.258 62.11C125.451 62.0167 125.621 61.86 125.768 61.64C125.918 61.42 126.036 61.1283 126.123 60.765C126.213 60.4017 126.258 59.95 126.258 59.41ZM128.084 62.415C128.084 62.325 128.1 62.24 128.134 62.16C128.167 62.08 128.212 62.01 128.269 61.95C128.329 61.89 128.399 61.8433 128.479 61.81C128.559 61.7733 128.645 61.755 128.739 61.755C128.829 61.755 128.914 61.7733 128.994 61.81C129.074 61.8433 129.144 61.89 129.204 61.95C129.264 62.01 129.31 62.08 129.344 62.16C129.38 62.24 129.399 62.325 129.399 62.415C129.399 62.5083 129.38 62.595 129.344 62.675C129.31 62.755 129.264 62.825 129.204 62.885C129.144 62.945 129.074 62.9917 128.994 63.025C128.914 63.0583 128.829 63.075 128.739 63.075C128.645 63.075 128.559 63.0583 128.479 63.025C128.399 62.9917 128.329 62.945 128.269 62.885C128.212 62.825 128.167 62.755 128.134 62.675C128.1 62.595 128.084 62.5083 128.084 62.415ZM135.432 59.41C135.432 60.0367 135.364 60.58 135.227 61.04C135.094 61.5 134.909 61.8817 134.672 62.185C134.439 62.485 134.162 62.7083 133.842 62.855C133.525 63.0017 133.184 63.075 132.817 63.075C132.45 63.075 132.107 63.0017 131.787 62.855C131.47 62.7083 131.195 62.485 130.962 62.185C130.729 61.8817 130.545 61.5 130.412 61.04C130.279 60.58 130.212 60.0367 130.212 59.41C130.212 58.7833 130.279 58.24 130.412 57.78C130.545 57.3167 130.729 56.935 130.962 56.635C131.195 56.3317 131.47 56.1067 131.787 55.96C132.107 55.8133 132.45 55.74 132.817 55.74C133.184 55.74 133.525 55.8133 133.842 55.96C134.162 56.1067 134.439 56.3317 134.672 56.635C134.909 56.935 135.094 57.3167 135.227 57.78C135.364 58.24 135.432 58.7833 135.432 59.41ZM134.422 59.41C134.422 58.87 134.377 58.4183 134.287 58.055C134.2 57.6917 134.082 57.4 133.932 57.18C133.785 56.9567 133.615 56.7983 133.422 56.705C133.229 56.6117 133.027 56.565 132.817 56.565C132.607 56.565 132.405 56.6117 132.212 56.705C132.019 56.7983 131.847 56.9567 131.697 57.18C131.55 57.4 131.434 57.6917 131.347 58.055C131.26 58.4183 131.217 58.87 131.217 59.41C131.217 59.95 131.26 60.4017 131.347 60.765C131.434 61.1283 131.55 61.42 131.697 61.64C131.847 61.86 132.019 62.0167 132.212 62.11C132.405 62.2033 132.607 62.25 132.817 62.25C133.027 62.25 133.229 62.2033 133.422 62.11C133.615 62.0167 133.785 61.86 133.932 61.64C134.082 61.42 134.2 61.1283 134.287 60.765C134.377 60.4017 134.422 59.95 134.422 59.41ZM141.233 59.41C141.233 60.0367 141.164 60.58 141.028 61.04C140.894 61.5 140.709 61.8817 140.473 62.185C140.239 62.485 139.963 62.7083 139.643 62.855C139.326 63.0017 138.984 63.075 138.618 63.075C138.251 63.075 137.908 63.0017 137.588 62.855C137.271 62.7083 136.996 62.485 136.763 62.185C136.529 61.8817 136.346 61.5 136.213 61.04C136.079 60.58 136.013 60.0367 136.013 59.41C136.013 58.7833 136.079 58.24 136.213 57.78C136.346 57.3167 136.529 56.935 136.763 56.635C136.996 56.3317 137.271 56.1067 137.588 55.96C137.908 55.8133 138.251 55.74 138.618 55.74C138.984 55.74 139.326 55.8133 139.643 55.96C139.963 56.1067 140.239 56.3317 140.473 56.635C140.709 56.935 140.894 57.3167 141.028 57.78C141.164 58.24 141.233 58.7833 141.233 59.41ZM140.223 59.41C140.223 58.87 140.178 58.4183 140.088 58.055C140.001 57.6917 139.883 57.4 139.733 57.18C139.586 56.9567 139.416 56.7983 139.223 56.705C139.029 56.6117 138.828 56.565 138.618 56.565C138.408 56.565 138.206 56.6117 138.013 56.705C137.819 56.7983 137.648 56.9567 137.498 57.18C137.351 57.4 137.234 57.6917 137.148 58.055C137.061 58.4183 137.018 58.87 137.018 59.41C137.018 59.95 137.061 60.4017 137.148 60.765C137.234 61.1283 137.351 61.42 137.498 61.64C137.648 61.86 137.819 62.0167 138.013 62.11C138.206 62.2033 138.408 62.25 138.618 62.25C138.828 62.25 139.029 62.2033 139.223 62.11C139.416 62.0167 139.586 61.86 139.733 61.64C139.883 61.42 140.001 61.1283 140.088 60.765C140.178 60.4017 140.223 59.95 140.223 59.41ZM147.033 59.41C147.033 60.0367 146.965 60.58 146.828 61.04C146.695 61.5 146.51 61.8817 146.273 62.185C146.04 62.485 145.763 62.7083 145.443 62.855C145.127 63.0017 144.785 63.075 144.418 63.075C144.052 63.075 143.708 63.0017 143.388 62.855C143.072 62.7083 142.797 62.485 142.563 62.185C142.33 61.8817 142.147 61.5 142.013 61.04C141.88 60.58 141.813 60.0367 141.813 59.41C141.813 58.7833 141.88 58.24 142.013 57.78C142.147 57.3167 142.33 56.935 142.563 56.635C142.797 56.3317 143.072 56.1067 143.388 55.96C143.708 55.8133 144.052 55.74 144.418 55.74C144.785 55.74 145.127 55.8133 145.443 55.96C145.763 56.1067 146.04 56.3317 146.273 56.635C146.51 56.935 146.695 57.3167 146.828 57.78C146.965 58.24 147.033 58.7833 147.033 59.41ZM146.023 59.41C146.023 58.87 145.978 58.4183 145.888 58.055C145.802 57.6917 145.683 57.4 145.533 57.18C145.387 56.9567 145.217 56.7983 145.023 56.705C144.83 56.6117 144.628 56.565 144.418 56.565C144.208 56.565 144.007 56.6117 143.813 56.705C143.62 56.7983 143.448 56.9567 143.298 57.18C143.152 57.4 143.035 57.6917 142.948 58.055C142.862 58.4183 142.818 58.87 142.818 59.41C142.818 59.95 142.862 60.4017 142.948 60.765C143.035 61.1283 143.152 61.42 143.298 61.64C143.448 61.86 143.62 62.0167 143.813 62.11C144.007 62.2033 144.208 62.25 144.418 62.25C144.628 62.25 144.83 62.2033 145.023 62.11C145.217 62.0167 145.387 61.86 145.533 61.64C145.683 61.42 145.802 61.1283 145.888 60.765C145.978 60.4017 146.023 59.95 146.023 59.41Z" fill="#FD3E3E"/>
<path d="M105 60.23H147.323V60.69H105V60.23Z" fill="#FD3E3E"/>
<path d="M88.98 81.42C89.4867 81.42 89.9267 81.3567 90.3 81.23C90.68 81.1033 90.99 80.93 91.23 80.71C91.4767 80.4833 91.66 80.2167 91.78 79.91C91.9 79.6033 91.96 79.2667 91.96 78.9C91.96 78.1667 91.7167 77.6033 91.23 77.21C90.75 76.8167 90.0133 76.62 89.02 76.62H87.3V81.42H88.98ZM95.9 89H93.47C93.01 89 92.6767 88.82 92.47 88.46L89.43 83.83C89.3167 83.6567 89.19 83.5333 89.05 83.46C88.9167 83.3867 88.7167 83.35 88.45 83.35H87.3V89H84.61V74.54H89.02C90 74.54 90.84 74.6433 91.54 74.85C92.2467 75.05 92.8233 75.3333 93.27 75.7C93.7233 76.0667 94.0567 76.5067 94.27 77.02C94.4833 77.5267 94.59 78.0867 94.59 78.7C94.59 79.1867 94.5167 79.6467 94.37 80.08C94.23 80.5133 94.0233 80.9067 93.75 81.26C93.4833 81.6133 93.15 81.9233 92.75 82.19C92.3567 82.4567 91.9067 82.6667 91.4 82.82C91.5733 82.92 91.7333 83.04 91.88 83.18C92.0267 83.3133 92.16 83.4733 92.28 83.66L95.9 89ZM99.4048 86.34C99.6848 86.68 99.9882 86.92 100.315 87.06C100.648 87.2 101.008 87.27 101.395 87.27C101.768 87.27 102.105 87.2 102.405 87.06C102.705 86.92 102.958 86.7067 103.165 86.42C103.378 86.1333 103.542 85.7733 103.655 85.34C103.768 84.9 103.825 84.3833 103.825 83.79C103.825 83.19 103.775 82.6833 103.675 82.27C103.582 81.85 103.445 81.51 103.265 81.25C103.085 80.99 102.865 80.8 102.605 80.68C102.352 80.56 102.062 80.5 101.735 80.5C101.222 80.5 100.785 80.61 100.425 80.83C100.065 81.0433 99.7248 81.3467 99.4048 81.74V86.34ZM99.2748 80.14C99.6948 79.6667 100.172 79.2833 100.705 78.99C101.238 78.6967 101.865 78.55 102.585 78.55C103.145 78.55 103.655 78.6667 104.115 78.9C104.582 79.1333 104.982 79.4733 105.315 79.92C105.655 80.36 105.915 80.9067 106.095 81.56C106.282 82.2067 106.375 82.95 106.375 83.79C106.375 84.5567 106.272 85.2667 106.065 85.92C105.858 86.5733 105.562 87.14 105.175 87.62C104.795 88.1 104.332 88.4767 103.785 88.75C103.245 89.0167 102.638 89.15 101.965 89.15C101.392 89.15 100.902 89.0633 100.495 88.89C100.088 88.71 99.7248 88.4633 99.4048 88.15V92.35H96.9348V78.74H98.4448C98.7648 78.74 98.9748 78.89 99.0748 79.19L99.2748 80.14ZM107.942 87.64C107.942 87.4333 107.979 87.2367 108.052 87.05C108.132 86.8633 108.239 86.7033 108.372 86.57C108.505 86.4367 108.665 86.33 108.852 86.25C109.039 86.17 109.239 86.13 109.452 86.13C109.665 86.13 109.862 86.17 110.042 86.25C110.229 86.33 110.389 86.4367 110.522 86.57C110.662 86.7033 110.772 86.8633 110.852 87.05C110.932 87.2367 110.972 87.4333 110.972 87.64C110.972 87.8533 110.932 88.0533 110.852 88.24C110.772 88.42 110.662 88.5767 110.522 88.71C110.389 88.8433 110.229 88.9467 110.042 89.02C109.862 89.1 109.665 89.14 109.452 89.14C109.239 89.14 109.039 89.1 108.852 89.02C108.665 88.9467 108.505 88.8433 108.372 88.71C108.239 88.5767 108.132 88.42 108.052 88.24C107.979 88.0533 107.942 87.8533 107.942 87.64ZM120.751 79.79C121.071 79.7233 121.378 79.6767 121.671 79.65C121.965 79.6167 122.248 79.6 122.521 79.6C123.281 79.6 123.951 79.7133 124.531 79.94C125.111 80.1667 125.598 80.48 125.991 80.88C126.385 81.28 126.681 81.75 126.881 82.29C127.081 82.8233 127.181 83.4 127.181 84.02C127.181 84.7867 127.045 85.4867 126.771 86.12C126.505 86.7533 126.131 87.2967 125.651 87.75C125.171 88.1967 124.601 88.5433 123.941 88.79C123.288 89.0367 122.575 89.16 121.801 89.16C121.348 89.16 120.918 89.1133 120.511 89.02C120.105 88.9267 119.721 88.8033 119.361 88.65C119.008 88.49 118.678 88.31 118.371 88.11C118.071 87.9033 117.801 87.6867 117.561 87.46L118.321 86.41C118.481 86.1833 118.691 86.07 118.951 86.07C119.118 86.07 119.288 86.1233 119.461 86.23C119.635 86.3367 119.831 86.4533 120.051 86.58C120.278 86.7067 120.541 86.8233 120.841 86.93C121.148 87.0367 121.515 87.09 121.941 87.09C122.395 87.09 122.795 87.0167 123.141 86.87C123.488 86.7233 123.775 86.52 124.001 86.26C124.235 85.9933 124.408 85.68 124.521 85.32C124.641 84.9533 124.701 84.5567 124.701 84.13C124.701 83.3433 124.471 82.73 124.011 82.29C123.558 81.8433 122.885 81.62 121.991 81.62C121.305 81.62 120.601 81.7467 119.881 82L118.341 81.56L119.541 74.54H126.681V75.59C126.681 75.9433 126.571 76.23 126.351 76.45C126.131 76.67 125.758 76.78 125.231 76.78H121.261L120.751 79.79ZM129.153 87.64C129.153 87.4333 129.19 87.2367 129.263 87.05C129.343 86.8633 129.45 86.7033 129.583 86.57C129.716 86.4367 129.876 86.33 130.063 86.25C130.25 86.17 130.45 86.13 130.663 86.13C130.876 86.13 131.073 86.17 131.253 86.25C131.44 86.33 131.6 86.4367 131.733 86.57C131.873 86.7033 131.983 86.8633 132.063 87.05C132.143 87.2367 132.183 87.4333 132.183 87.64C132.183 87.8533 132.143 88.0533 132.063 88.24C131.983 88.42 131.873 88.5767 131.733 88.71C131.6 88.8433 131.44 88.9467 131.253 89.02C131.073 89.1 130.876 89.14 130.663 89.14C130.45 89.14 130.25 89.1 130.063 89.02C129.876 88.9467 129.716 88.8433 129.583 88.71C129.45 88.5767 129.343 88.42 129.263 88.24C129.19 88.0533 129.153 87.8533 129.153 87.64ZM144.139 81.77C144.139 83.03 144.002 84.1267 143.729 85.06C143.462 85.9867 143.089 86.7533 142.609 87.36C142.136 87.9667 141.572 88.42 140.919 88.72C140.272 89.0133 139.572 89.16 138.819 89.16C138.066 89.16 137.366 89.0133 136.719 88.72C136.079 88.42 135.522 87.9667 135.049 87.36C134.576 86.7533 134.206 85.9867 133.939 85.06C133.672 84.1267 133.539 83.03 133.539 81.77C133.539 80.5033 133.672 79.4067 133.939 78.48C134.206 77.5533 134.576 76.7867 135.049 76.18C135.522 75.5733 136.079 75.1233 136.719 74.83C137.366 74.53 138.066 74.38 138.819 74.38C139.572 74.38 140.272 74.53 140.919 74.83C141.572 75.1233 142.136 75.5733 142.609 76.18C143.089 76.7867 143.462 77.5533 143.729 78.48C144.002 79.4067 144.139 80.5033 144.139 81.77ZM141.589 81.77C141.589 80.7233 141.512 79.8567 141.359 79.17C141.206 78.4833 140.999 77.9367 140.739 77.53C140.486 77.1233 140.192 76.84 139.859 76.68C139.526 76.5133 139.179 76.43 138.819 76.43C138.466 76.43 138.122 76.5133 137.789 76.68C137.462 76.84 137.172 77.1233 136.919 77.53C136.666 77.9367 136.462 78.4833 136.309 79.17C136.162 79.8567 136.089 80.7233 136.089 81.77C136.089 82.8167 136.162 83.6833 136.309 84.37C136.462 85.0567 136.666 85.6033 136.919 86.01C137.172 86.4167 137.462 86.7033 137.789 86.87C138.122 87.03 138.466 87.11 138.819 87.11C139.179 87.11 139.526 87.03 139.859 86.87C140.192 86.7033 140.486 86.4167 140.739 86.01C140.999 85.6033 141.206 85.0567 141.359 84.37C141.512 83.6833 141.589 82.8167 141.589 81.77ZM155.741 81.77C155.741 83.03 155.604 84.1267 155.331 85.06C155.064 85.9867 154.691 86.7533 154.211 87.36C153.737 87.9667 153.174 88.42 152.521 88.72C151.874 89.0133 151.174 89.16 150.421 89.16C149.667 89.16 148.967 89.0133 148.321 88.72C147.681 88.42 147.124 87.9667 146.651 87.36C146.177 86.7533 145.807 85.9867 145.541 85.06C145.274 84.1267 145.141 83.03 145.141 81.77C145.141 80.5033 145.274 79.4067 145.541 78.48C145.807 77.5533 146.177 76.7867 146.651 76.18C147.124 75.5733 147.681 75.1233 148.321 74.83C148.967 74.53 149.667 74.38 150.421 74.38C151.174 74.38 151.874 74.53 152.521 74.83C153.174 75.1233 153.737 75.5733 154.211 76.18C154.691 76.7867 155.064 77.5533 155.331 78.48C155.604 79.4067 155.741 80.5033 155.741 81.77ZM153.191 81.77C153.191 80.7233 153.114 79.8567 152.961 79.17C152.807 78.4833 152.601 77.9367 152.341 77.53C152.087 77.1233 151.794 76.84 151.461 76.68C151.127 76.5133 150.781 76.43 150.421 76.43C150.067 76.43 149.724 76.5133 149.391 76.68C149.064 76.84 148.774 77.1233 148.521 77.53C148.267 77.9367 148.064 78.4833 147.911 79.17C147.764 79.8567 147.691 80.7233 147.691 81.77C147.691 82.8167 147.764 83.6833 147.911 84.37C148.064 85.0567 148.267 85.6033 148.521 86.01C148.774 86.4167 149.064 86.7033 149.391 86.87C149.724 87.03 150.067 87.11 150.421 87.11C150.781 87.11 151.127 87.03 151.461 86.87C151.794 86.7033 152.087 86.4167 152.341 86.01C152.601 85.6033 152.807 85.0567 152.961 84.37C153.114 83.6833 153.191 82.8167 153.191 81.77ZM167.342 81.77C167.342 83.03 167.206 84.1267 166.932 85.06C166.666 85.9867 166.292 86.7533 165.812 87.36C165.339 87.9667 164.776 88.42 164.122 88.72C163.476 89.0133 162.776 89.16 162.022 89.16C161.269 89.16 160.569 89.0133 159.922 88.72C159.282 88.42 158.726 87.9667 158.252 87.36C157.779 86.7533 157.409 85.9867 157.142 85.06C156.876 84.1267 156.742 83.03 156.742 81.77C156.742 80.5033 156.876 79.4067 157.142 78.48C157.409 77.5533 157.779 76.7867 158.252 76.18C158.726 75.5733 159.282 75.1233 159.922 74.83C160.569 74.53 161.269 74.38 162.022 74.38C162.776 74.38 163.476 74.53 164.122 74.83C164.776 75.1233 165.339 75.5733 165.812 76.18C166.292 76.7867 166.666 77.5533 166.932 78.48C167.206 79.4067 167.342 80.5033 167.342 81.77ZM164.792 81.77C164.792 80.7233 164.716 79.8567 164.562 79.17C164.409 78.4833 164.202 77.9367 163.942 77.53C163.689 77.1233 163.396 76.84 163.062 76.68C162.729 76.5133 162.382 76.43 162.022 76.43C161.669 76.43 161.326 76.5133 160.992 76.68C160.666 76.84 160.376 77.1233 160.122 77.53C159.869 77.9367 159.666 78.4833 159.512 79.17C159.366 79.8567 159.292 80.7233 159.292 81.77C159.292 82.8167 159.366 83.6833 159.512 84.37C159.666 85.0567 159.869 85.6033 160.122 86.01C160.376 86.4167 160.666 86.7033 160.992 86.87C161.326 87.03 161.669 87.11 162.022 87.11C162.382 87.11 162.729 87.03 163.062 86.87C163.396 86.7033 163.689 86.4167 163.942 86.01C164.202 85.6033 164.409 85.0567 164.562 84.37C164.716 83.6833 164.792 82.8167 164.792 81.77Z" fill="#303030"/>
<path d="M51.0956 180.367C55.9277 180.367 59.9071 184.346 59.9071 189.178C59.9071 194.046 55.9277 197.99 51.0956 197.99C46.2281 197.99 42.2842 194.046 42.2842 189.178C42.2842 184.346 46.2281 180.367 51.0956 180.367ZM51.0956 182.072C47.1518 182.072 43.9897 185.27 43.9897 189.178C43.9897 193.122 47.1518 196.284 51.0956 196.284C55.0039 196.284 58.2016 193.122 58.2016 189.178C58.2016 185.27 55.0039 182.072 51.0956 182.072ZM56.0698 186.727C56.212 186.869 56.212 187.153 56.0698 187.331L49.9232 193.406C49.7455 193.584 49.4968 193.584 49.3192 193.406L46.0859 190.138C45.9438 189.995 45.9438 189.711 46.0859 189.534L46.9031 188.752C47.0808 188.574 47.3295 188.574 47.5071 188.752L49.6389 190.884L54.6486 185.91C54.8263 185.732 55.1105 185.732 55.2526 185.91L56.0698 186.727Z" fill="#45B516"/>
<path d="M70.5024 184.465V192.996H69.3716V184.465H70.5024ZM75.6528 184.465L72.1079 188.443L70.1157 190.512L69.9282 189.305L71.4282 187.652L74.2935 184.465H75.6528ZM74.563 192.996L71.4048 188.836L72.0786 187.939L75.9106 192.996H74.563ZM79.2212 193.113C78.7798 193.113 78.3794 193.039 78.02 192.891C77.6646 192.738 77.3579 192.525 77.1001 192.252C76.8462 191.979 76.6509 191.654 76.5142 191.279C76.3774 190.904 76.3091 190.494 76.3091 190.049V189.803C76.3091 189.287 76.3853 188.828 76.5376 188.426C76.6899 188.02 76.897 187.676 77.1587 187.395C77.4204 187.113 77.7173 186.9 78.0493 186.756C78.3813 186.611 78.7251 186.539 79.0806 186.539C79.5337 186.539 79.9243 186.617 80.2524 186.773C80.5845 186.93 80.856 187.148 81.0669 187.43C81.2778 187.707 81.4341 188.035 81.5356 188.414C81.6372 188.789 81.688 189.199 81.688 189.645V190.131H76.9536V189.246H80.604V189.164C80.5884 188.883 80.5298 188.609 80.4282 188.344C80.3306 188.078 80.1743 187.859 79.9595 187.688C79.7446 187.516 79.4517 187.43 79.0806 187.43C78.8345 187.43 78.6079 187.482 78.4009 187.588C78.1938 187.689 78.0161 187.842 77.8677 188.045C77.7192 188.248 77.604 188.496 77.522 188.789C77.4399 189.082 77.3989 189.42 77.3989 189.803V190.049C77.3989 190.35 77.4399 190.633 77.522 190.898C77.6079 191.16 77.731 191.391 77.8911 191.59C78.0552 191.789 78.2524 191.945 78.4829 192.059C78.7173 192.172 78.9829 192.229 79.2798 192.229C79.6626 192.229 79.9868 192.15 80.2524 191.994C80.5181 191.838 80.7505 191.629 80.9497 191.367L81.606 191.889C81.4692 192.096 81.2954 192.293 81.0845 192.48C80.8735 192.668 80.6138 192.82 80.3052 192.938C80.0005 193.055 79.6392 193.113 79.2212 193.113ZM85.6079 186.656V187.488H82.1802V186.656H85.6079ZM83.3403 185.115H84.4243V191.426C84.4243 191.641 84.4575 191.803 84.5239 191.912C84.5903 192.021 84.6763 192.094 84.7817 192.129C84.8872 192.164 85.0005 192.182 85.1216 192.182C85.2114 192.182 85.3052 192.174 85.4028 192.158C85.5044 192.139 85.5806 192.123 85.6313 192.111L85.6372 192.996C85.5513 193.023 85.438 193.049 85.2974 193.072C85.1606 193.1 84.9946 193.113 84.7993 193.113C84.5337 193.113 84.2896 193.061 84.0669 192.955C83.8442 192.85 83.6665 192.674 83.5337 192.428C83.4048 192.178 83.3403 191.842 83.3403 191.42V185.115ZM89.5103 193.113C89.0688 193.113 88.6685 193.039 88.3091 192.891C87.9536 192.738 87.647 192.525 87.3892 192.252C87.1353 191.979 86.9399 191.654 86.8032 191.279C86.6665 190.904 86.5981 190.494 86.5981 190.049V189.803C86.5981 189.287 86.6743 188.828 86.8267 188.426C86.979 188.02 87.186 187.676 87.4478 187.395C87.7095 187.113 88.0063 186.9 88.3384 186.756C88.6704 186.611 89.0142 186.539 89.3696 186.539C89.8228 186.539 90.2134 186.617 90.5415 186.773C90.8735 186.93 91.145 187.148 91.356 187.43C91.5669 187.707 91.7231 188.035 91.8247 188.414C91.9263 188.789 91.9771 189.199 91.9771 189.645V190.131H87.2427V189.246H90.8931V189.164C90.8774 188.883 90.8188 188.609 90.7173 188.344C90.6196 188.078 90.4634 187.859 90.2485 187.688C90.0337 187.516 89.7407 187.43 89.3696 187.43C89.1235 187.43 88.897 187.482 88.6899 187.588C88.4829 187.689 88.3052 187.842 88.1567 188.045C88.0083 188.248 87.8931 188.496 87.811 188.789C87.729 189.082 87.688 189.42 87.688 189.803V190.049C87.688 190.35 87.729 190.633 87.811 190.898C87.897 191.16 88.02 191.391 88.1802 191.59C88.3442 191.789 88.5415 191.945 88.772 192.059C89.0063 192.172 89.272 192.229 89.5688 192.229C89.9517 192.229 90.2759 192.15 90.5415 191.994C90.8071 191.838 91.0396 191.629 91.2388 191.367L91.895 191.889C91.7583 192.096 91.5845 192.293 91.3735 192.48C91.1626 192.668 90.9028 192.82 90.5942 192.938C90.2896 193.055 89.9282 193.113 89.5103 193.113ZM94.3267 187.652V192.996H93.2427V186.656H94.2974L94.3267 187.652ZM96.3071 186.621L96.3013 187.629C96.2114 187.609 96.1255 187.598 96.0435 187.594C95.9653 187.586 95.8755 187.582 95.7739 187.582C95.5239 187.582 95.3032 187.621 95.1118 187.699C94.9204 187.777 94.7583 187.887 94.6255 188.027C94.4927 188.168 94.3872 188.336 94.3091 188.531C94.2349 188.723 94.186 188.934 94.1626 189.164L93.8579 189.34C93.8579 188.957 93.895 188.598 93.9692 188.262C94.0474 187.926 94.1665 187.629 94.3267 187.371C94.4868 187.109 94.6899 186.906 94.936 186.762C95.186 186.613 95.4829 186.539 95.8267 186.539C95.9048 186.539 95.9946 186.549 96.0962 186.568C96.1978 186.584 96.2681 186.602 96.3071 186.621ZM100.813 191.912V188.648C100.813 188.398 100.762 188.182 100.661 187.998C100.563 187.811 100.415 187.666 100.215 187.564C100.016 187.463 99.77 187.412 99.4771 187.412C99.2036 187.412 98.9634 187.459 98.7563 187.553C98.5532 187.646 98.3931 187.77 98.2759 187.922C98.1626 188.074 98.106 188.238 98.106 188.414H97.022C97.022 188.188 97.0806 187.963 97.1978 187.74C97.3149 187.518 97.4829 187.316 97.7017 187.137C97.9243 186.953 98.1899 186.809 98.4985 186.703C98.811 186.594 99.1587 186.539 99.5415 186.539C100.002 186.539 100.409 186.617 100.76 186.773C101.116 186.93 101.393 187.166 101.592 187.482C101.795 187.795 101.897 188.188 101.897 188.66V191.613C101.897 191.824 101.915 192.049 101.95 192.287C101.989 192.525 102.045 192.73 102.12 192.902V192.996H100.989C100.934 192.871 100.891 192.705 100.86 192.498C100.829 192.287 100.813 192.092 100.813 191.912ZM101 189.152L101.012 189.914H99.9165C99.6079 189.914 99.3325 189.939 99.0903 189.99C98.8481 190.037 98.645 190.109 98.481 190.207C98.3169 190.305 98.1919 190.428 98.106 190.576C98.02 190.721 97.9771 190.891 97.9771 191.086C97.9771 191.285 98.022 191.467 98.1118 191.631C98.2017 191.795 98.3364 191.926 98.5161 192.023C98.6997 192.117 98.9243 192.164 99.1899 192.164C99.522 192.164 99.8149 192.094 100.069 191.953C100.323 191.812 100.524 191.641 100.672 191.438C100.825 191.234 100.907 191.037 100.918 190.846L101.381 191.367C101.354 191.531 101.28 191.713 101.159 191.912C101.038 192.111 100.875 192.303 100.672 192.486C100.473 192.666 100.235 192.816 99.9575 192.938C99.6841 193.055 99.3755 193.113 99.0317 193.113C98.6021 193.113 98.2251 193.029 97.9009 192.861C97.5806 192.693 97.3306 192.469 97.1509 192.188C96.9751 191.902 96.8872 191.584 96.8872 191.232C96.8872 190.893 96.9536 190.594 97.0864 190.336C97.2192 190.074 97.4106 189.857 97.6606 189.686C97.9106 189.51 98.2114 189.377 98.563 189.287C98.9146 189.197 99.3071 189.152 99.7407 189.152H101ZM104.686 188.01V192.996H103.602V186.656H104.627L104.686 188.01ZM104.428 189.586L103.977 189.568C103.981 189.135 104.045 188.734 104.17 188.367C104.295 187.996 104.471 187.674 104.698 187.4C104.924 187.127 105.194 186.916 105.506 186.768C105.823 186.615 106.172 186.539 106.555 186.539C106.868 186.539 107.149 186.582 107.399 186.668C107.649 186.75 107.862 186.883 108.038 187.066C108.217 187.25 108.354 187.488 108.448 187.781C108.542 188.07 108.588 188.424 108.588 188.842V192.996H107.499V188.83C107.499 188.498 107.45 188.232 107.352 188.033C107.254 187.83 107.112 187.684 106.924 187.594C106.737 187.5 106.506 187.453 106.233 187.453C105.963 187.453 105.717 187.51 105.495 187.623C105.276 187.736 105.086 187.893 104.926 188.092C104.77 188.291 104.647 188.52 104.557 188.777C104.471 189.031 104.428 189.301 104.428 189.586ZM114.342 186.656H115.327V192.861C115.327 193.42 115.213 193.896 114.987 194.291C114.76 194.686 114.444 194.984 114.038 195.188C113.635 195.395 113.17 195.498 112.643 195.498C112.424 195.498 112.167 195.463 111.87 195.393C111.577 195.326 111.288 195.211 111.002 195.047C110.721 194.887 110.485 194.67 110.293 194.396L110.862 193.752C111.127 194.072 111.405 194.295 111.694 194.42C111.987 194.545 112.276 194.607 112.561 194.607C112.905 194.607 113.202 194.543 113.452 194.414C113.702 194.285 113.895 194.094 114.032 193.84C114.172 193.59 114.243 193.281 114.243 192.914V188.051L114.342 186.656ZM109.977 189.896V189.773C109.977 189.289 110.034 188.85 110.147 188.455C110.264 188.057 110.43 187.715 110.645 187.43C110.864 187.145 111.127 186.926 111.436 186.773C111.745 186.617 112.092 186.539 112.479 186.539C112.877 186.539 113.225 186.609 113.522 186.75C113.823 186.887 114.077 187.088 114.284 187.354C114.495 187.615 114.661 187.932 114.782 188.303C114.903 188.674 114.987 189.094 115.034 189.562V190.102C114.991 190.566 114.907 190.984 114.782 191.355C114.661 191.727 114.495 192.043 114.284 192.305C114.077 192.566 113.823 192.768 113.522 192.908C113.221 193.045 112.87 193.113 112.467 193.113C112.088 193.113 111.745 193.033 111.436 192.873C111.131 192.713 110.87 192.488 110.651 192.199C110.432 191.91 110.264 191.57 110.147 191.18C110.034 190.785 109.977 190.357 109.977 189.896ZM111.061 189.773V189.896C111.061 190.213 111.092 190.51 111.155 190.787C111.221 191.064 111.321 191.309 111.454 191.52C111.59 191.73 111.764 191.896 111.975 192.018C112.186 192.135 112.438 192.193 112.731 192.193C113.09 192.193 113.387 192.117 113.622 191.965C113.856 191.812 114.042 191.611 114.178 191.361C114.319 191.111 114.428 190.84 114.506 190.547V189.135C114.463 188.92 114.397 188.713 114.307 188.514C114.221 188.311 114.108 188.131 113.967 187.975C113.831 187.814 113.661 187.688 113.458 187.594C113.254 187.5 113.016 187.453 112.743 187.453C112.446 187.453 112.19 187.516 111.975 187.641C111.764 187.762 111.59 187.93 111.454 188.145C111.321 188.355 111.221 188.602 111.155 188.883C111.092 189.16 111.061 189.457 111.061 189.773ZM120.711 191.912V188.648C120.711 188.398 120.661 188.182 120.559 187.998C120.461 187.811 120.313 187.666 120.114 187.564C119.915 187.463 119.668 187.412 119.375 187.412C119.102 187.412 118.862 187.459 118.655 187.553C118.452 187.646 118.292 187.77 118.174 187.922C118.061 188.074 118.004 188.238 118.004 188.414H116.92C116.92 188.188 116.979 187.963 117.096 187.74C117.213 187.518 117.381 187.316 117.6 187.137C117.823 186.953 118.088 186.809 118.397 186.703C118.709 186.594 119.057 186.539 119.44 186.539C119.901 186.539 120.307 186.617 120.659 186.773C121.014 186.93 121.292 187.166 121.491 187.482C121.694 187.795 121.795 188.188 121.795 188.66V191.613C121.795 191.824 121.813 192.049 121.848 192.287C121.887 192.525 121.944 192.73 122.018 192.902V192.996H120.887C120.833 192.871 120.79 192.705 120.758 192.498C120.727 192.287 120.711 192.092 120.711 191.912ZM120.899 189.152L120.911 189.914H119.815C119.506 189.914 119.231 189.939 118.989 189.99C118.747 190.037 118.543 190.109 118.379 190.207C118.215 190.305 118.09 190.428 118.004 190.576C117.918 190.721 117.875 190.891 117.875 191.086C117.875 191.285 117.92 191.467 118.01 191.631C118.1 191.795 118.235 191.926 118.415 192.023C118.598 192.117 118.823 192.164 119.088 192.164C119.42 192.164 119.713 192.094 119.967 191.953C120.221 191.812 120.422 191.641 120.571 191.438C120.723 191.234 120.805 191.037 120.817 190.846L121.28 191.367C121.252 191.531 121.178 191.713 121.057 191.912C120.936 192.111 120.774 192.303 120.571 192.486C120.372 192.666 120.133 192.816 119.856 192.938C119.583 193.055 119.274 193.113 118.93 193.113C118.5 193.113 118.124 193.029 117.799 192.861C117.479 192.693 117.229 192.469 117.049 192.188C116.874 191.902 116.786 191.584 116.786 191.232C116.786 190.893 116.852 190.594 116.985 190.336C117.118 190.074 117.309 189.857 117.559 189.686C117.809 189.51 118.11 189.377 118.461 189.287C118.813 189.197 119.206 189.152 119.639 189.152H120.899ZM124.584 188.01V192.996H123.5V186.656H124.526L124.584 188.01ZM124.327 189.586L123.875 189.568C123.879 189.135 123.944 188.734 124.069 188.367C124.194 187.996 124.37 187.674 124.596 187.4C124.823 187.127 125.092 186.916 125.405 186.768C125.721 186.615 126.071 186.539 126.454 186.539C126.766 186.539 127.047 186.582 127.297 186.668C127.547 186.75 127.76 186.883 127.936 187.066C128.116 187.25 128.252 187.488 128.346 187.781C128.44 188.07 128.487 188.424 128.487 188.842V192.996H127.397V188.83C127.397 188.498 127.348 188.232 127.25 188.033C127.153 187.83 127.01 187.684 126.823 187.594C126.635 187.5 126.405 187.453 126.131 187.453C125.862 187.453 125.616 187.51 125.393 187.623C125.174 187.736 124.985 187.893 124.825 188.092C124.668 188.291 124.545 188.52 124.456 188.777C124.37 189.031 124.327 189.301 124.327 189.586Z" fill="#4F3515"/>
</g>
</g>
<defs>
<filter id="filter0_d_910_305" x="0" y="0" width="264" height="748" filterUnits="userSpaceOnUse" color-interpolation-filters="sRGB">
<feFlood flood-opacity="0" result="BackgroundImageFix"/>
<feColorMatrix in="SourceAlpha" type="matrix" values="0 0 0 0 0 0 0 0 0 0 0 0 0 0 0 0 0 0 127 0" result="hardAlpha"/>
<feOffset dy="2"/>
<feGaussianBlur stdDeviation="5"/>
<feComposite in2="hardAlpha" operator="out"/>
<feColorMatrix type="matrix" values="0 0 0 0 0.23 0 0 0 0 0.23 0 0 0 0 0.23 0 0 0 0.25 0"/>
<feBlend mode="normal" in2="BackgroundImageFix" result="effect1_dropShadow_910_305"/>
<feBlend mode="normal" in="SourceGraphic" in2="effect1_dropShadow_910_305" result="shape"/>
</filter>
<linearGradient id="paint0_linear_910_305" x1="134.38" y1="2.06904" x2="148.9" y2="743.248" gradientUnits="userSpaceOnUse">
<stop stop-color="#F7D628" stop-opacity="0.2"/>
<stop offset="1" stop-color="#F9DB9B" stop-opacity="0"/>
</linearGradient>
<linearGradient id="paint1_linear_910_305" x1="45.8109" y1="269.183" x2="46.5561" y2="9.40564" gradientUnits="userSpaceOnUse">
<stop stop-color="#FFD700"/>
<stop offset="1" stop-color="#FFEA79" stop-opacity="0.5"/>
</linearGradient>
<linearGradient id="paint2_linear_910_305" x1="217.932" y1="187.679" x2="218.698" y2="8.46084" gradientUnits="userSpaceOnUse">
<stop stop-color="#FFD700"/>
<stop offset="1" stop-color="#FFEA79" stop-opacity="0.5"/>
</linearGradient>
<linearGradient id="paint3_linear_910_305" x1="170.823" y1="136.618" x2="216.47" y2="-89.7775" gradientUnits="userSpaceOnUse">
<stop stop-color="#FFD700"/>
<stop offset="1" stop-color="#FFEA79" stop-opacity="0.5"/>
</linearGradient>
<linearGradient id="paint4_linear_910_305" x1="171.761" y1="165.985" x2="167.65" y2="2.29768" gradientUnits="userSpaceOnUse">
<stop stop-color="#F4CE00"/>
<stop offset="0.688027" stop-color="#FDEB8B"/>
</linearGradient>
<clipPath id="clip0_910_305">
<rect x="10" y="8" width="244" height="728" rx="15" fill="white"/>
</clipPath>
<clipPath id="clip1_910_305">
<rect width="244" height="173.776" fill="white" transform="translate(10 7)"/>
</clipPath>
</defs>
</svg>
