<svg width="1441" height="720" viewBox="0 0 1441 720" fill="none" xmlns="http://www.w3.org/2000/svg">
<rect width="1440" height="720" fill="#FFF5E7"/>
<g clip-path="url(#clip0_854_283)">
<mask id="mask0_854_283" style="mask-type:alpha" maskUnits="userSpaceOnUse" x="0" y="-80" width="1440" height="800">
<rect y="-80" width="1440" height="800" fill="#FEFEFE"/>
</mask>
<g mask="url(#mask0_854_283)">
<path d="M759.177 -79.9897C759.177 -79.9897 691.306 52.811 847.298 94.8586C1003.29 136.906 1077.74 182.96 1051.15 343.144C1024.57 503.327 1081.29 525.353 1231.97 579.415C1382.64 633.477 1256.76 744.107 1161.06 819.69C1162.04 820.391 1644.48 819.68 1644.48 819.68L1644.41 -80L759.177 -79.9897Z" fill="#FEE9CC"/>
</g>
</g>
<g clip-path="url(#clip1_854_283)">
<path d="M1152.88 -130C1152.88 -130 980.884 107.609 1075.89 104.087C1170.89 100.565 1250.06 -5.06916 1235.99 72.3969C1221.92 149.863 1133.95 244.935 1235.99 209.722C1338.03 174.51 1413.44 259.121 1441.59 431.655C1441.58 431.655 1441.67 -130 1441.67 -130H1152.88Z" fill="#FFC08C"/>
</g>
<path d="M918.114 475.802C985.2 518.147 1083.6 495.917 1036.58 556.337C1014 585.351 979.548 605.099 940.803 611.236C902.058 617.373 862.192 609.397 829.977 589.062C797.761 568.727 775.834 537.699 769.02 502.804C762.206 467.91 771.062 432.006 793.64 402.992C840.658 342.572 851.029 433.458 918.114 475.802Z" fill="#FFC08C"/>
<defs>
<clipPath id="clip0_854_283">
<rect width="1439" height="720" fill="white"/>
</clipPath>
<clipPath id="clip1_854_283">
<rect width="394.726" height="432" fill="white" transform="translate(1045.27)"/>
</clipPath>
</defs>
</svg>
