<svg width="264" height="748" viewBox="0 0 264 748" fill="none" xmlns="http://www.w3.org/2000/svg">
<g filter="url(#filter0_d_910_304)">
<g clip-path="url(#clip0_910_304)">
<rect x="10" y="8" width="244" height="728" rx="15" fill="white"/>
<rect x="10" y="8" width="244" height="480" fill="url(#paint0_linear_910_304)"/>
<g clip-path="url(#clip1_910_304)">
<rect x="161.161" y="20.0928" width="95.2195" height="111.883" fill="url(#paint1_linear_910_304)"/>
<rect x="-76.8877" y="26.3066" width="205.578" height="162.173" transform="rotate(-18.2958 -76.8877 26.3066)" fill="url(#paint2_linear_910_304)"/>
<path d="M-3.15978 -76.7551C5.04269 -95.935 27.1475 -104.948 46.4227 -96.9724L246.518 -14.1758C266.792 -5.78637 275.804 17.9544 266.203 37.6841L220.605 131.385C211.717 149.65 190.058 157.726 171.381 149.738L-23.0392 66.5927C-42.3801 58.3214 -51.3538 35.9373 -43.0825 16.5964L-3.15978 -76.7551Z" fill="url(#paint3_linear_910_304)"/>
<path d="M30.2485 -82.524C40.6688 -100.572 63.6598 -106.895 81.8433 -96.7119L244.998 -5.34518C264.095 5.34923 270.271 29.901 258.507 48.3583L202.537 136.169C191.58 153.36 169.03 158.876 151.375 148.683L-6.60026 57.4755C-24.8174 46.9579 -31.059 23.6638 -20.5414 5.44663L30.2485 -82.524Z" fill="url(#paint4_linear_910_304)"/>
</g>
<path d="M106.551 35.0516C106.494 35.1516 106.432 35.2254 106.365 35.273C106.303 35.3159 106.225 35.3373 106.13 35.3373C106.03 35.3373 105.92 35.3016 105.801 35.2302C105.687 35.154 105.549 35.0707 105.387 34.9802C105.225 34.8898 105.035 34.8088 104.816 34.7374C104.601 34.6612 104.347 34.6232 104.052 34.6232C103.785 34.6232 103.552 34.6565 103.352 34.7231C103.152 34.785 102.983 34.8731 102.845 34.9874C102.711 35.1016 102.611 35.2397 102.545 35.4016C102.478 35.5587 102.445 35.7325 102.445 35.9229C102.445 36.1657 102.511 36.3681 102.645 36.5299C102.783 36.6918 102.964 36.8299 103.187 36.9441C103.411 37.0584 103.666 37.1608 103.952 37.2512C104.237 37.3417 104.53 37.4393 104.83 37.544C105.13 37.644 105.423 37.763 105.708 37.9011C105.994 38.0344 106.249 38.2058 106.472 38.4153C106.696 38.62 106.875 38.8723 107.008 39.1723C107.146 39.4722 107.215 39.8364 107.215 40.2649C107.215 40.7315 107.134 41.1695 106.972 41.5789C106.815 41.9836 106.582 42.3383 106.273 42.643C105.968 42.943 105.594 43.181 105.151 43.3572C104.709 43.5286 104.202 43.6143 103.63 43.6143C103.302 43.6143 102.978 43.5809 102.659 43.5143C102.34 43.4524 102.033 43.3619 101.738 43.2429C101.447 43.1239 101.174 42.9811 100.916 42.8144C100.659 42.6478 100.431 42.4621 100.231 42.2574L100.795 41.3361C100.843 41.2695 100.905 41.2147 100.981 41.1719C101.057 41.1243 101.138 41.1005 101.224 41.1005C101.343 41.1005 101.471 41.1505 101.609 41.2504C101.747 41.3457 101.911 41.4528 102.102 41.5718C102.292 41.6908 102.514 41.8003 102.766 41.9003C103.023 41.9955 103.33 42.0431 103.687 42.0431C104.235 42.0431 104.659 41.9146 104.959 41.6575C105.258 41.3956 105.408 41.0219 105.408 40.5363C105.408 40.2649 105.339 40.0435 105.201 39.8721C105.068 39.7007 104.889 39.5579 104.666 39.4436C104.442 39.3246 104.187 39.2246 103.902 39.1437C103.616 39.0628 103.325 38.9747 103.03 38.8795C102.735 38.7843 102.445 38.67 102.159 38.5367C101.873 38.4034 101.619 38.2296 101.395 38.0154C101.171 37.8011 100.99 37.5345 100.852 37.2155C100.719 36.8918 100.652 36.4942 100.652 36.0229C100.652 35.6468 100.726 35.2802 100.874 34.9231C101.026 34.566 101.245 34.2494 101.531 33.9733C101.816 33.6972 102.169 33.4758 102.588 33.3091C103.007 33.1425 103.487 33.0592 104.03 33.0592C104.64 33.0592 105.201 33.1544 105.715 33.3448C106.23 33.5353 106.668 33.8019 107.03 34.1447L106.551 35.0516ZM112.255 36.0586C112.798 36.0586 113.291 36.1467 113.734 36.3228C114.181 36.499 114.562 36.7489 114.876 37.0727C115.195 37.3964 115.44 37.7916 115.612 38.2582C115.783 38.7247 115.869 39.2461 115.869 39.8221C115.869 40.403 115.783 40.9267 115.612 41.3933C115.44 41.8598 115.195 42.2574 114.876 42.5859C114.562 42.9144 114.181 43.1667 113.734 43.3429C113.291 43.519 112.798 43.6071 112.255 43.6071C111.708 43.6071 111.21 43.519 110.763 43.3429C110.315 43.1667 109.932 42.9144 109.613 42.5859C109.299 42.2574 109.054 41.8598 108.877 41.3933C108.706 40.9267 108.62 40.403 108.62 39.8221C108.62 39.2461 108.706 38.7247 108.877 38.2582C109.054 37.7916 109.299 37.3964 109.613 37.0727C109.932 36.7489 110.315 36.499 110.763 36.3228C111.21 36.1467 111.708 36.0586 112.255 36.0586ZM112.255 42.2502C112.865 42.2502 113.315 42.0455 113.605 41.6361C113.9 41.2266 114.048 40.6268 114.048 39.8364C114.048 39.0461 113.9 38.4438 113.605 38.0296C113.315 37.6154 112.865 37.4083 112.255 37.4083C111.636 37.4083 111.177 37.6178 110.877 38.0368C110.582 38.451 110.434 39.0509 110.434 39.8364C110.434 40.622 110.582 41.2219 110.877 41.6361C111.177 42.0455 111.636 42.2502 112.255 42.2502ZM124.482 37.494V41.4647C124.482 41.6932 124.539 41.8717 124.653 42.0003C124.767 42.1288 124.92 42.1931 125.11 42.1931C125.22 42.1931 125.31 42.1812 125.382 42.1574C125.458 42.1288 125.522 42.1003 125.574 42.0717C125.632 42.0431 125.682 42.017 125.724 41.9932C125.767 41.9646 125.81 41.9503 125.853 41.9503C125.905 41.9503 125.948 41.9646 125.982 41.9932C126.015 42.017 126.051 42.055 126.089 42.1074L126.617 42.9644C126.36 43.1786 126.065 43.3405 125.732 43.45C125.403 43.5595 125.06 43.6143 124.703 43.6143C124.065 43.6143 123.575 43.4357 123.232 43.0787C122.889 42.7168 122.718 42.2193 122.718 41.5861V37.494H119.74V43.5H117.976V37.5012L117.34 37.4012C117.202 37.3726 117.09 37.325 117.005 37.2584C116.924 37.1869 116.883 37.087 116.883 36.9584V36.2371H117.976V35.6944C117.976 35.2754 118.038 34.8993 118.162 34.566C118.29 34.2328 118.471 33.9495 118.704 33.7162C118.942 33.4829 119.23 33.3044 119.568 33.1806C119.907 33.0568 120.287 32.9949 120.711 32.9949C121.049 32.9949 121.363 33.0401 121.654 33.1306L121.618 34.0161C121.613 34.0828 121.594 34.1375 121.561 34.1804C121.528 34.2185 121.482 34.2494 121.425 34.2732C121.373 34.2923 121.311 34.3066 121.24 34.3161C121.168 34.3208 121.092 34.3232 121.011 34.3232C120.802 34.3232 120.614 34.347 120.447 34.3946C120.285 34.4375 120.147 34.516 120.033 34.6303C119.918 34.7398 119.83 34.8874 119.768 35.0731C119.711 35.254 119.683 35.4801 119.683 35.7515V36.2371H122.796L123.175 34.2304C123.199 34.1352 123.244 34.0614 123.311 34.009C123.377 33.9566 123.463 33.9304 123.568 33.9304H124.482V36.2371H126.439V37.494H124.482ZM133.182 37.7226C133.13 37.7892 133.077 37.8416 133.025 37.8797C132.977 37.9178 132.906 37.9368 132.811 37.9368C132.72 37.9368 132.632 37.9106 132.546 37.8582C132.461 37.8011 132.358 37.7392 132.239 37.6726C132.12 37.6012 131.977 37.5393 131.811 37.4869C131.649 37.4298 131.447 37.4012 131.204 37.4012C130.894 37.4012 130.623 37.4583 130.39 37.5726C130.156 37.6821 129.961 37.8416 129.804 38.0511C129.652 38.2605 129.537 38.5153 129.461 38.8152C129.385 39.1104 129.347 39.446 129.347 39.8221C129.347 40.2125 129.387 40.5601 129.468 40.8648C129.554 41.1695 129.675 41.4266 129.833 41.6361C129.99 41.8408 130.18 41.9979 130.404 42.1074C130.628 42.2122 130.88 42.2645 131.161 42.2645C131.442 42.2645 131.668 42.2312 131.839 42.1645C132.015 42.0931 132.163 42.017 132.282 41.936C132.401 41.8503 132.503 41.7741 132.589 41.7075C132.68 41.6361 132.78 41.6004 132.889 41.6004C133.032 41.6004 133.139 41.6551 133.21 41.7646L133.718 42.4074C133.522 42.6359 133.31 42.8287 133.082 42.9858C132.853 43.1382 132.615 43.262 132.368 43.3572C132.125 43.4476 131.873 43.5119 131.611 43.55C131.354 43.5881 131.097 43.6071 130.84 43.6071C130.387 43.6071 129.961 43.5238 129.561 43.3572C129.161 43.1858 128.811 42.9382 128.511 42.6145C128.211 42.2907 127.973 41.8956 127.797 41.429C127.626 40.9576 127.54 40.422 127.54 39.8221C127.54 39.2842 127.616 38.7866 127.769 38.3296C127.926 37.8678 128.154 37.4702 128.454 37.137C128.754 36.7989 129.126 36.5347 129.568 36.3443C130.011 36.1538 130.521 36.0586 131.097 36.0586C131.644 36.0586 132.123 36.1467 132.532 36.3228C132.946 36.499 133.318 36.7513 133.646 37.0798L133.182 37.7226ZM138.368 36.0586C138.911 36.0586 139.404 36.1467 139.847 36.3228C140.294 36.499 140.675 36.7489 140.989 37.0727C141.308 37.3964 141.554 37.7916 141.725 38.2582C141.896 38.7247 141.982 39.2461 141.982 39.8221C141.982 40.403 141.896 40.9267 141.725 41.3933C141.554 41.8598 141.308 42.2574 140.989 42.5859C140.675 42.9144 140.294 43.1667 139.847 43.3429C139.404 43.519 138.911 43.6071 138.368 43.6071C137.821 43.6071 137.323 43.519 136.876 43.3429C136.428 43.1667 136.045 42.9144 135.726 42.5859C135.412 42.2574 135.167 41.8598 134.991 41.3933C134.819 40.9267 134.733 40.403 134.733 39.8221C134.733 39.2461 134.819 38.7247 134.991 38.2582C135.167 37.7916 135.412 37.3964 135.726 37.0727C136.045 36.7489 136.428 36.499 136.876 36.3228C137.323 36.1467 137.821 36.0586 138.368 36.0586ZM138.368 42.2502C138.978 42.2502 139.428 42.0455 139.718 41.6361C140.013 41.2266 140.161 40.6268 140.161 39.8364C140.161 39.0461 140.013 38.4438 139.718 38.0296C139.428 37.6154 138.978 37.4083 138.368 37.4083C137.75 37.4083 137.29 37.6178 136.99 38.0368C136.695 38.451 136.547 39.0509 136.547 39.8364C136.547 40.622 136.695 41.2219 136.99 41.6361C137.29 42.0455 137.75 42.2502 138.368 42.2502ZM150.139 36.1729L147.232 43.5H145.633L142.726 36.1729H144.183C144.316 36.1729 144.426 36.2038 144.511 36.2657C144.602 36.3276 144.661 36.4061 144.69 36.5014L146.104 40.4149C146.18 40.6434 146.247 40.8672 146.304 41.0862C146.361 41.3052 146.411 41.5242 146.454 41.7432C146.502 41.5242 146.554 41.3052 146.611 41.0862C146.668 40.8672 146.737 40.6434 146.818 40.4149L148.261 36.5014C148.294 36.4061 148.354 36.3276 148.439 36.2657C148.525 36.2038 148.627 36.1729 148.746 36.1729H150.139ZM156.005 38.9937C156.005 38.7652 155.972 38.551 155.905 38.351C155.843 38.1463 155.748 37.9677 155.619 37.8154C155.491 37.663 155.326 37.544 155.127 37.4583C154.931 37.3679 154.703 37.3226 154.441 37.3226C153.931 37.3226 153.529 37.4678 153.234 37.7583C152.944 38.0487 152.758 38.4605 152.677 38.9937H156.005ZM152.641 40.0578C152.67 40.4339 152.736 40.7601 152.841 41.0362C152.946 41.3076 153.084 41.5337 153.255 41.7146C153.427 41.8908 153.629 42.0241 153.862 42.1146C154.101 42.2003 154.362 42.2431 154.648 42.2431C154.934 42.2431 155.179 42.2098 155.384 42.1431C155.593 42.0765 155.774 42.0027 155.926 41.9217C156.083 41.8408 156.219 41.767 156.333 41.7004C156.452 41.6337 156.567 41.6004 156.676 41.6004C156.824 41.6004 156.933 41.6551 157.005 41.7646L157.512 42.4074C157.317 42.6359 157.098 42.8287 156.855 42.9858C156.612 43.1382 156.357 43.262 156.091 43.3572C155.829 43.4476 155.56 43.5119 155.284 43.55C155.012 43.5881 154.748 43.6071 154.491 43.6071C153.981 43.6071 153.508 43.5238 153.07 43.3572C152.632 43.1858 152.251 42.9358 151.927 42.6073C151.603 42.274 151.349 41.8646 151.163 41.379C150.977 40.8886 150.884 40.322 150.884 39.6793C150.884 39.1794 150.965 38.7105 151.127 38.2724C151.289 37.8297 151.52 37.4464 151.82 37.1227C152.125 36.7942 152.494 36.5347 152.927 36.3443C153.365 36.1538 153.858 36.0586 154.405 36.0586C154.867 36.0586 155.293 36.1324 155.684 36.28C156.074 36.4276 156.41 36.6442 156.69 36.9299C156.971 37.2108 157.19 37.5583 157.347 37.9725C157.509 38.382 157.59 38.8509 157.59 39.3794C157.59 39.646 157.562 39.8269 157.505 39.9221C157.447 40.0126 157.338 40.0578 157.176 40.0578H152.641ZM161.006 37.444C161.235 37.006 161.506 36.6632 161.821 36.4157C162.135 36.1633 162.506 36.0372 162.935 36.0372C163.273 36.0372 163.544 36.111 163.749 36.2586L163.635 37.5797C163.611 37.6654 163.575 37.7273 163.527 37.7654C163.485 37.7987 163.425 37.8154 163.349 37.8154C163.277 37.8154 163.17 37.8035 163.028 37.7797C162.889 37.7559 162.754 37.744 162.62 37.744C162.425 37.744 162.251 37.7725 162.099 37.8297C161.947 37.8868 161.809 37.9701 161.685 38.0796C161.566 38.1844 161.459 38.3129 161.364 38.4653C161.273 38.6176 161.187 38.7914 161.106 38.9866V43.5H159.343V36.1729H160.378C160.559 36.1729 160.685 36.2062 160.757 36.2728C160.828 36.3347 160.876 36.449 160.899 36.6156L161.006 37.444Z" fill="#444444"/>
<rect x="88.5951" y="27.5951" width="86.6146" height="20.8098" rx="10.4049" stroke="#444444" stroke-width="1.19024"/>
<path d="M107.92 59.28C108.193 59.28 108.433 59.2467 108.64 59.18C108.85 59.1133 109.025 59.02 109.165 58.9C109.305 58.7767 109.41 58.6317 109.48 58.465C109.55 58.295 109.585 58.1083 109.585 57.905C109.585 57.4917 109.448 57.18 109.175 56.97C108.905 56.76 108.498 56.655 107.955 56.655H106.95V59.28H107.92ZM111.27 63H110.32C110.13 63 109.992 62.925 109.905 62.775L108.13 60.285C108.073 60.2017 108.012 60.1433 107.945 60.11C107.878 60.0733 107.778 60.055 107.645 60.055H106.95V63H105.885V55.82H107.955C108.418 55.82 108.817 55.8683 109.15 55.965C109.487 56.0583 109.763 56.1933 109.98 56.37C110.2 56.5433 110.362 56.7533 110.465 57C110.572 57.2467 110.625 57.5233 110.625 57.83C110.625 58.08 110.587 58.315 110.51 58.535C110.433 58.755 110.32 58.9533 110.17 59.13C110.023 59.3033 109.843 59.4533 109.63 59.58C109.417 59.7067 109.175 59.8033 108.905 59.87C109.038 59.95 109.153 60.0617 109.25 60.205L111.27 63ZM112.9 61.75C113.06 61.96 113.232 62.1067 113.415 62.19C113.602 62.2733 113.81 62.315 114.04 62.315C114.487 62.315 114.832 62.155 115.075 61.835C115.322 61.5117 115.445 61.0417 115.445 60.425C115.445 60.1017 115.417 59.8267 115.36 59.6C115.307 59.37 115.227 59.1833 115.12 59.04C115.017 58.8933 114.889 58.7867 114.735 58.72C114.582 58.65 114.409 58.615 114.215 58.615C113.932 58.615 113.685 58.6783 113.475 58.805C113.269 58.9317 113.077 59.1117 112.9 59.345V61.75ZM112.85 58.68C112.957 58.5533 113.07 58.4383 113.19 58.335C113.314 58.2283 113.445 58.1383 113.585 58.065C113.725 57.9883 113.874 57.93 114.03 57.89C114.19 57.8467 114.36 57.825 114.54 57.825C114.83 57.825 115.092 57.8817 115.325 57.995C115.562 58.1083 115.764 58.275 115.93 58.495C116.097 58.715 116.225 58.9867 116.315 59.31C116.409 59.6333 116.455 60.005 116.455 60.425C116.455 60.8017 116.404 61.1517 116.3 61.475C116.2 61.795 116.055 62.0733 115.865 62.31C115.679 62.5467 115.449 62.7333 115.175 62.87C114.905 63.0033 114.6 63.07 114.26 63.07C113.957 63.07 113.697 63.02 113.48 62.92C113.264 62.82 113.07 62.68 112.9 62.5V64.705H111.925V57.92H112.51C112.647 57.92 112.732 57.985 112.765 58.115L112.85 58.68ZM117.39 62.415C117.39 62.325 117.407 62.24 117.44 62.16C117.474 62.08 117.519 62.01 117.575 61.95C117.635 61.89 117.705 61.8433 117.785 61.81C117.865 61.7733 117.952 61.755 118.045 61.755C118.135 61.755 118.22 61.7733 118.3 61.81C118.38 61.8433 118.45 61.89 118.51 61.95C118.57 62.01 118.617 62.08 118.65 62.16C118.687 62.24 118.705 62.325 118.705 62.415C118.705 62.5083 118.687 62.595 118.65 62.675C118.617 62.755 118.57 62.825 118.51 62.885C118.45 62.945 118.38 62.9917 118.3 63.025C118.22 63.0583 118.135 63.075 118.045 63.075C117.952 63.075 117.865 63.0583 117.785 63.025C117.705 62.9917 117.635 62.945 117.575 62.885C117.519 62.825 117.474 62.755 117.44 62.675C117.407 62.595 117.39 62.5083 117.39 62.415ZM127.268 59.41C127.268 60.0367 127.199 60.58 127.063 61.04C126.929 61.5 126.744 61.8817 126.508 62.185C126.274 62.485 125.998 62.7083 125.678 62.855C125.361 63.0017 125.019 63.075 124.653 63.075C124.286 63.075 123.943 63.0017 123.623 62.855C123.306 62.7083 123.031 62.485 122.798 62.185C122.564 61.8817 122.381 61.5 122.248 61.04C122.114 60.58 122.048 60.0367 122.048 59.41C122.048 58.7833 122.114 58.24 122.248 57.78C122.381 57.3167 122.564 56.935 122.798 56.635C123.031 56.3317 123.306 56.1067 123.623 55.96C123.943 55.8133 124.286 55.74 124.653 55.74C125.019 55.74 125.361 55.8133 125.678 55.96C125.998 56.1067 126.274 56.3317 126.508 56.635C126.744 56.935 126.929 57.3167 127.063 57.78C127.199 58.24 127.268 58.7833 127.268 59.41ZM126.258 59.41C126.258 58.87 126.213 58.4183 126.123 58.055C126.036 57.6917 125.918 57.4 125.768 57.18C125.621 56.9567 125.451 56.7983 125.258 56.705C125.064 56.6117 124.863 56.565 124.653 56.565C124.443 56.565 124.241 56.6117 124.048 56.705C123.854 56.7983 123.683 56.9567 123.533 57.18C123.386 57.4 123.269 57.6917 123.183 58.055C123.096 58.4183 123.053 58.87 123.053 59.41C123.053 59.95 123.096 60.4017 123.183 60.765C123.269 61.1283 123.386 61.42 123.533 61.64C123.683 61.86 123.854 62.0167 124.048 62.11C124.241 62.2033 124.443 62.25 124.653 62.25C124.863 62.25 125.064 62.2033 125.258 62.11C125.451 62.0167 125.621 61.86 125.768 61.64C125.918 61.42 126.036 61.1283 126.123 60.765C126.213 60.4017 126.258 59.95 126.258 59.41ZM128.084 62.415C128.084 62.325 128.1 62.24 128.134 62.16C128.167 62.08 128.212 62.01 128.269 61.95C128.329 61.89 128.399 61.8433 128.479 61.81C128.559 61.7733 128.645 61.755 128.739 61.755C128.829 61.755 128.914 61.7733 128.994 61.81C129.074 61.8433 129.144 61.89 129.204 61.95C129.264 62.01 129.31 62.08 129.344 62.16C129.38 62.24 129.399 62.325 129.399 62.415C129.399 62.5083 129.38 62.595 129.344 62.675C129.31 62.755 129.264 62.825 129.204 62.885C129.144 62.945 129.074 62.9917 128.994 63.025C128.914 63.0583 128.829 63.075 128.739 63.075C128.645 63.075 128.559 63.0583 128.479 63.025C128.399 62.9917 128.329 62.945 128.269 62.885C128.212 62.825 128.167 62.755 128.134 62.675C128.1 62.595 128.084 62.5083 128.084 62.415ZM135.432 59.41C135.432 60.0367 135.364 60.58 135.227 61.04C135.094 61.5 134.909 61.8817 134.672 62.185C134.439 62.485 134.162 62.7083 133.842 62.855C133.525 63.0017 133.184 63.075 132.817 63.075C132.45 63.075 132.107 63.0017 131.787 62.855C131.47 62.7083 131.195 62.485 130.962 62.185C130.729 61.8817 130.545 61.5 130.412 61.04C130.279 60.58 130.212 60.0367 130.212 59.41C130.212 58.7833 130.279 58.24 130.412 57.78C130.545 57.3167 130.729 56.935 130.962 56.635C131.195 56.3317 131.47 56.1067 131.787 55.96C132.107 55.8133 132.45 55.74 132.817 55.74C133.184 55.74 133.525 55.8133 133.842 55.96C134.162 56.1067 134.439 56.3317 134.672 56.635C134.909 56.935 135.094 57.3167 135.227 57.78C135.364 58.24 135.432 58.7833 135.432 59.41ZM134.422 59.41C134.422 58.87 134.377 58.4183 134.287 58.055C134.2 57.6917 134.082 57.4 133.932 57.18C133.785 56.9567 133.615 56.7983 133.422 56.705C133.229 56.6117 133.027 56.565 132.817 56.565C132.607 56.565 132.405 56.6117 132.212 56.705C132.019 56.7983 131.847 56.9567 131.697 57.18C131.55 57.4 131.434 57.6917 131.347 58.055C131.26 58.4183 131.217 58.87 131.217 59.41C131.217 59.95 131.26 60.4017 131.347 60.765C131.434 61.1283 131.55 61.42 131.697 61.64C131.847 61.86 132.019 62.0167 132.212 62.11C132.405 62.2033 132.607 62.25 132.817 62.25C133.027 62.25 133.229 62.2033 133.422 62.11C133.615 62.0167 133.785 61.86 133.932 61.64C134.082 61.42 134.2 61.1283 134.287 60.765C134.377 60.4017 134.422 59.95 134.422 59.41ZM141.233 59.41C141.233 60.0367 141.164 60.58 141.028 61.04C140.894 61.5 140.709 61.8817 140.473 62.185C140.239 62.485 139.963 62.7083 139.643 62.855C139.326 63.0017 138.984 63.075 138.618 63.075C138.251 63.075 137.908 63.0017 137.588 62.855C137.271 62.7083 136.996 62.485 136.763 62.185C136.529 61.8817 136.346 61.5 136.213 61.04C136.079 60.58 136.013 60.0367 136.013 59.41C136.013 58.7833 136.079 58.24 136.213 57.78C136.346 57.3167 136.529 56.935 136.763 56.635C136.996 56.3317 137.271 56.1067 137.588 55.96C137.908 55.8133 138.251 55.74 138.618 55.74C138.984 55.74 139.326 55.8133 139.643 55.96C139.963 56.1067 140.239 56.3317 140.473 56.635C140.709 56.935 140.894 57.3167 141.028 57.78C141.164 58.24 141.233 58.7833 141.233 59.41ZM140.223 59.41C140.223 58.87 140.178 58.4183 140.088 58.055C140.001 57.6917 139.883 57.4 139.733 57.18C139.586 56.9567 139.416 56.7983 139.223 56.705C139.029 56.6117 138.828 56.565 138.618 56.565C138.408 56.565 138.206 56.6117 138.013 56.705C137.819 56.7983 137.648 56.9567 137.498 57.18C137.351 57.4 137.234 57.6917 137.148 58.055C137.061 58.4183 137.018 58.87 137.018 59.41C137.018 59.95 137.061 60.4017 137.148 60.765C137.234 61.1283 137.351 61.42 137.498 61.64C137.648 61.86 137.819 62.0167 138.013 62.11C138.206 62.2033 138.408 62.25 138.618 62.25C138.828 62.25 139.029 62.2033 139.223 62.11C139.416 62.0167 139.586 61.86 139.733 61.64C139.883 61.42 140.001 61.1283 140.088 60.765C140.178 60.4017 140.223 59.95 140.223 59.41ZM147.033 59.41C147.033 60.0367 146.965 60.58 146.828 61.04C146.695 61.5 146.51 61.8817 146.273 62.185C146.04 62.485 145.763 62.7083 145.443 62.855C145.127 63.0017 144.785 63.075 144.418 63.075C144.052 63.075 143.708 63.0017 143.388 62.855C143.072 62.7083 142.797 62.485 142.563 62.185C142.33 61.8817 142.147 61.5 142.013 61.04C141.88 60.58 141.813 60.0367 141.813 59.41C141.813 58.7833 141.88 58.24 142.013 57.78C142.147 57.3167 142.33 56.935 142.563 56.635C142.797 56.3317 143.072 56.1067 143.388 55.96C143.708 55.8133 144.052 55.74 144.418 55.74C144.785 55.74 145.127 55.8133 145.443 55.96C145.763 56.1067 146.04 56.3317 146.273 56.635C146.51 56.935 146.695 57.3167 146.828 57.78C146.965 58.24 147.033 58.7833 147.033 59.41ZM146.023 59.41C146.023 58.87 145.978 58.4183 145.888 58.055C145.802 57.6917 145.683 57.4 145.533 57.18C145.387 56.9567 145.217 56.7983 145.023 56.705C144.83 56.6117 144.628 56.565 144.418 56.565C144.208 56.565 144.007 56.6117 143.813 56.705C143.62 56.7983 143.448 56.9567 143.298 57.18C143.152 57.4 143.035 57.6917 142.948 58.055C142.862 58.4183 142.818 58.87 142.818 59.41C142.818 59.95 142.862 60.4017 142.948 60.765C143.035 61.1283 143.152 61.42 143.298 61.64C143.448 61.86 143.62 62.0167 143.813 62.11C144.007 62.2033 144.208 62.25 144.418 62.25C144.628 62.25 144.83 62.2033 145.023 62.11C145.217 62.0167 145.387 61.86 145.533 61.64C145.683 61.42 145.802 61.1283 145.888 60.765C145.978 60.4017 146.023 59.95 146.023 59.41Z" fill="#FD3E3E"/>
<path d="M105 60.23H147.323V60.69H105V60.23Z" fill="#FD3E3E"/>
<path d="M88.98 81.42C89.4867 81.42 89.9267 81.3567 90.3 81.23C90.68 81.1033 90.99 80.93 91.23 80.71C91.4767 80.4833 91.66 80.2167 91.78 79.91C91.9 79.6033 91.96 79.2667 91.96 78.9C91.96 78.1667 91.7167 77.6033 91.23 77.21C90.75 76.8167 90.0133 76.62 89.02 76.62H87.3V81.42H88.98ZM95.9 89H93.47C93.01 89 92.6767 88.82 92.47 88.46L89.43 83.83C89.3167 83.6567 89.19 83.5333 89.05 83.46C88.9167 83.3867 88.7167 83.35 88.45 83.35H87.3V89H84.61V74.54H89.02C90 74.54 90.84 74.6433 91.54 74.85C92.2467 75.05 92.8233 75.3333 93.27 75.7C93.7233 76.0667 94.0567 76.5067 94.27 77.02C94.4833 77.5267 94.59 78.0867 94.59 78.7C94.59 79.1867 94.5167 79.6467 94.37 80.08C94.23 80.5133 94.0233 80.9067 93.75 81.26C93.4833 81.6133 93.15 81.9233 92.75 82.19C92.3567 82.4567 91.9067 82.6667 91.4 82.82C91.5733 82.92 91.7333 83.04 91.88 83.18C92.0267 83.3133 92.16 83.4733 92.28 83.66L95.9 89ZM99.4048 86.34C99.6848 86.68 99.9882 86.92 100.315 87.06C100.648 87.2 101.008 87.27 101.395 87.27C101.768 87.27 102.105 87.2 102.405 87.06C102.705 86.92 102.958 86.7067 103.165 86.42C103.378 86.1333 103.542 85.7733 103.655 85.34C103.768 84.9 103.825 84.3833 103.825 83.79C103.825 83.19 103.775 82.6833 103.675 82.27C103.582 81.85 103.445 81.51 103.265 81.25C103.085 80.99 102.865 80.8 102.605 80.68C102.352 80.56 102.062 80.5 101.735 80.5C101.222 80.5 100.785 80.61 100.425 80.83C100.065 81.0433 99.7248 81.3467 99.4048 81.74V86.34ZM99.2748 80.14C99.6948 79.6667 100.172 79.2833 100.705 78.99C101.238 78.6967 101.865 78.55 102.585 78.55C103.145 78.55 103.655 78.6667 104.115 78.9C104.582 79.1333 104.982 79.4733 105.315 79.92C105.655 80.36 105.915 80.9067 106.095 81.56C106.282 82.2067 106.375 82.95 106.375 83.79C106.375 84.5567 106.272 85.2667 106.065 85.92C105.858 86.5733 105.562 87.14 105.175 87.62C104.795 88.1 104.332 88.4767 103.785 88.75C103.245 89.0167 102.638 89.15 101.965 89.15C101.392 89.15 100.902 89.0633 100.495 88.89C100.088 88.71 99.7248 88.4633 99.4048 88.15V92.35H96.9348V78.74H98.4448C98.7648 78.74 98.9748 78.89 99.0748 79.19L99.2748 80.14ZM107.942 87.64C107.942 87.4333 107.979 87.2367 108.052 87.05C108.132 86.8633 108.239 86.7033 108.372 86.57C108.505 86.4367 108.665 86.33 108.852 86.25C109.039 86.17 109.239 86.13 109.452 86.13C109.665 86.13 109.862 86.17 110.042 86.25C110.229 86.33 110.389 86.4367 110.522 86.57C110.662 86.7033 110.772 86.8633 110.852 87.05C110.932 87.2367 110.972 87.4333 110.972 87.64C110.972 87.8533 110.932 88.0533 110.852 88.24C110.772 88.42 110.662 88.5767 110.522 88.71C110.389 88.8433 110.229 88.9467 110.042 89.02C109.862 89.1 109.665 89.14 109.452 89.14C109.239 89.14 109.039 89.1 108.852 89.02C108.665 88.9467 108.505 88.8433 108.372 88.71C108.239 88.5767 108.132 88.42 108.052 88.24C107.979 88.0533 107.942 87.8533 107.942 87.64ZM127.041 87.15V89H119.041V87.15H121.971V78.72C121.971 78.3867 121.981 78.0433 122.001 77.69L119.921 79.43C119.801 79.5233 119.681 79.5833 119.561 79.61C119.448 79.63 119.338 79.63 119.231 79.61C119.131 79.59 119.041 79.5567 118.961 79.51C118.881 79.4567 118.821 79.4 118.781 79.34L118.001 78.27L122.411 74.52H124.441V87.15H127.041ZM129.153 87.64C129.153 87.4333 129.19 87.2367 129.263 87.05C129.343 86.8633 129.45 86.7033 129.583 86.57C129.716 86.4367 129.876 86.33 130.063 86.25C130.25 86.17 130.45 86.13 130.663 86.13C130.876 86.13 131.073 86.17 131.253 86.25C131.44 86.33 131.6 86.4367 131.733 86.57C131.873 86.7033 131.983 86.8633 132.063 87.05C132.143 87.2367 132.183 87.4333 132.183 87.64C132.183 87.8533 132.143 88.0533 132.063 88.24C131.983 88.42 131.873 88.5767 131.733 88.71C131.6 88.8433 131.44 88.9467 131.253 89.02C131.073 89.1 130.876 89.14 130.663 89.14C130.45 89.14 130.25 89.1 130.063 89.02C129.876 88.9467 129.716 88.8433 129.583 88.71C129.45 88.5767 129.343 88.42 129.263 88.24C129.19 88.0533 129.153 87.8533 129.153 87.64ZM137.099 79.79C137.419 79.7233 137.726 79.6767 138.019 79.65C138.312 79.6167 138.596 79.6 138.869 79.6C139.629 79.6 140.299 79.7133 140.879 79.94C141.459 80.1667 141.946 80.48 142.339 80.88C142.732 81.28 143.029 81.75 143.229 82.29C143.429 82.8233 143.529 83.4 143.529 84.02C143.529 84.7867 143.392 85.4867 143.119 86.12C142.852 86.7533 142.479 87.2967 141.999 87.75C141.519 88.1967 140.949 88.5433 140.289 88.79C139.636 89.0367 138.922 89.16 138.149 89.16C137.696 89.16 137.266 89.1133 136.859 89.02C136.452 88.9267 136.069 88.8033 135.709 88.65C135.356 88.49 135.026 88.31 134.719 88.11C134.419 87.9033 134.149 87.6867 133.909 87.46L134.669 86.41C134.829 86.1833 135.039 86.07 135.299 86.07C135.466 86.07 135.636 86.1233 135.809 86.23C135.982 86.3367 136.179 86.4533 136.399 86.58C136.626 86.7067 136.889 86.8233 137.189 86.93C137.496 87.0367 137.862 87.09 138.289 87.09C138.742 87.09 139.142 87.0167 139.489 86.87C139.836 86.7233 140.122 86.52 140.349 86.26C140.582 85.9933 140.756 85.68 140.869 85.32C140.989 84.9533 141.049 84.5567 141.049 84.13C141.049 83.3433 140.819 82.73 140.359 82.29C139.906 81.8433 139.232 81.62 138.339 81.62C137.652 81.62 136.949 81.7467 136.229 82L134.689 81.56L135.889 74.54H143.029V75.59C143.029 75.9433 142.919 76.23 142.699 76.45C142.479 76.67 142.106 76.78 141.579 76.78H137.609L137.099 79.79ZM155.741 81.77C155.741 83.03 155.604 84.1267 155.331 85.06C155.064 85.9867 154.691 86.7533 154.211 87.36C153.737 87.9667 153.174 88.42 152.521 88.72C151.874 89.0133 151.174 89.16 150.421 89.16C149.667 89.16 148.967 89.0133 148.321 88.72C147.681 88.42 147.124 87.9667 146.651 87.36C146.177 86.7533 145.807 85.9867 145.541 85.06C145.274 84.1267 145.141 83.03 145.141 81.77C145.141 80.5033 145.274 79.4067 145.541 78.48C145.807 77.5533 146.177 76.7867 146.651 76.18C147.124 75.5733 147.681 75.1233 148.321 74.83C148.967 74.53 149.667 74.38 150.421 74.38C151.174 74.38 151.874 74.53 152.521 74.83C153.174 75.1233 153.737 75.5733 154.211 76.18C154.691 76.7867 155.064 77.5533 155.331 78.48C155.604 79.4067 155.741 80.5033 155.741 81.77ZM153.191 81.77C153.191 80.7233 153.114 79.8567 152.961 79.17C152.807 78.4833 152.601 77.9367 152.341 77.53C152.087 77.1233 151.794 76.84 151.461 76.68C151.127 76.5133 150.781 76.43 150.421 76.43C150.067 76.43 149.724 76.5133 149.391 76.68C149.064 76.84 148.774 77.1233 148.521 77.53C148.267 77.9367 148.064 78.4833 147.911 79.17C147.764 79.8567 147.691 80.7233 147.691 81.77C147.691 82.8167 147.764 83.6833 147.911 84.37C148.064 85.0567 148.267 85.6033 148.521 86.01C148.774 86.4167 149.064 86.7033 149.391 86.87C149.724 87.03 150.067 87.11 150.421 87.11C150.781 87.11 151.127 87.03 151.461 86.87C151.794 86.7033 152.087 86.4167 152.341 86.01C152.601 85.6033 152.807 85.0567 152.961 84.37C153.114 83.6833 153.191 82.8167 153.191 81.77ZM167.342 81.77C167.342 83.03 167.206 84.1267 166.932 85.06C166.666 85.9867 166.292 86.7533 165.812 87.36C165.339 87.9667 164.776 88.42 164.122 88.72C163.476 89.0133 162.776 89.16 162.022 89.16C161.269 89.16 160.569 89.0133 159.922 88.72C159.282 88.42 158.726 87.9667 158.252 87.36C157.779 86.7533 157.409 85.9867 157.142 85.06C156.876 84.1267 156.742 83.03 156.742 81.77C156.742 80.5033 156.876 79.4067 157.142 78.48C157.409 77.5533 157.779 76.7867 158.252 76.18C158.726 75.5733 159.282 75.1233 159.922 74.83C160.569 74.53 161.269 74.38 162.022 74.38C162.776 74.38 163.476 74.53 164.122 74.83C164.776 75.1233 165.339 75.5733 165.812 76.18C166.292 76.7867 166.666 77.5533 166.932 78.48C167.206 79.4067 167.342 80.5033 167.342 81.77ZM164.792 81.77C164.792 80.7233 164.716 79.8567 164.562 79.17C164.409 78.4833 164.202 77.9367 163.942 77.53C163.689 77.1233 163.396 76.84 163.062 76.68C162.729 76.5133 162.382 76.43 162.022 76.43C161.669 76.43 161.326 76.5133 160.992 76.68C160.666 76.84 160.376 77.1233 160.122 77.53C159.869 77.9367 159.666 78.4833 159.512 79.17C159.366 79.8567 159.292 80.7233 159.292 81.77C159.292 82.8167 159.366 83.6833 159.512 84.37C159.666 85.0567 159.869 85.6033 160.122 86.01C160.376 86.4167 160.666 86.7033 160.992 86.87C161.326 87.03 161.669 87.11 162.022 87.11C162.382 87.11 162.729 87.03 163.062 86.87C163.396 86.7033 163.689 86.4167 163.942 86.01C164.202 85.6033 164.409 85.0567 164.562 84.37C164.716 83.6833 164.792 82.8167 164.792 81.77Z" fill="#303030"/>
<path d="M51.0956 180.367C55.9277 180.367 59.9071 184.346 59.9071 189.178C59.9071 194.046 55.9277 197.99 51.0956 197.99C46.2281 197.99 42.2842 194.046 42.2842 189.178C42.2842 184.346 46.2281 180.367 51.0956 180.367ZM51.0956 182.072C47.1518 182.072 43.9897 185.27 43.9897 189.178C43.9897 193.122 47.1518 196.284 51.0956 196.284C55.0039 196.284 58.2016 193.122 58.2016 189.178C58.2016 185.27 55.0039 182.072 51.0956 182.072ZM56.0698 186.727C56.212 186.869 56.212 187.153 56.0698 187.331L49.9232 193.406C49.7455 193.584 49.4968 193.584 49.3192 193.406L46.0859 190.138C45.9438 189.995 45.9438 189.711 46.0859 189.534L46.9031 188.752C47.0808 188.574 47.3295 188.574 47.5071 188.752L49.6389 190.884L54.6486 185.91C54.8263 185.732 55.1105 185.732 55.2526 185.91L56.0698 186.727Z" fill="#45B516"/>
<path d="M70.5024 184.465V192.996H69.3716V184.465H70.5024ZM75.6528 184.465L72.1079 188.443L70.1157 190.512L69.9282 189.305L71.4282 187.652L74.2935 184.465H75.6528ZM74.563 192.996L71.4048 188.836L72.0786 187.939L75.9106 192.996H74.563ZM79.2212 193.113C78.7798 193.113 78.3794 193.039 78.02 192.891C77.6646 192.738 77.3579 192.525 77.1001 192.252C76.8462 191.979 76.6509 191.654 76.5142 191.279C76.3774 190.904 76.3091 190.494 76.3091 190.049V189.803C76.3091 189.287 76.3853 188.828 76.5376 188.426C76.6899 188.02 76.897 187.676 77.1587 187.395C77.4204 187.113 77.7173 186.9 78.0493 186.756C78.3813 186.611 78.7251 186.539 79.0806 186.539C79.5337 186.539 79.9243 186.617 80.2524 186.773C80.5845 186.93 80.856 187.148 81.0669 187.43C81.2778 187.707 81.4341 188.035 81.5356 188.414C81.6372 188.789 81.688 189.199 81.688 189.645V190.131H76.9536V189.246H80.604V189.164C80.5884 188.883 80.5298 188.609 80.4282 188.344C80.3306 188.078 80.1743 187.859 79.9595 187.688C79.7446 187.516 79.4517 187.43 79.0806 187.43C78.8345 187.43 78.6079 187.482 78.4009 187.588C78.1938 187.689 78.0161 187.842 77.8677 188.045C77.7192 188.248 77.604 188.496 77.522 188.789C77.4399 189.082 77.3989 189.42 77.3989 189.803V190.049C77.3989 190.35 77.4399 190.633 77.522 190.898C77.6079 191.16 77.731 191.391 77.8911 191.59C78.0552 191.789 78.2524 191.945 78.4829 192.059C78.7173 192.172 78.9829 192.229 79.2798 192.229C79.6626 192.229 79.9868 192.15 80.2524 191.994C80.5181 191.838 80.7505 191.629 80.9497 191.367L81.606 191.889C81.4692 192.096 81.2954 192.293 81.0845 192.48C80.8735 192.668 80.6138 192.82 80.3052 192.938C80.0005 193.055 79.6392 193.113 79.2212 193.113ZM85.6079 186.656V187.488H82.1802V186.656H85.6079ZM83.3403 185.115H84.4243V191.426C84.4243 191.641 84.4575 191.803 84.5239 191.912C84.5903 192.021 84.6763 192.094 84.7817 192.129C84.8872 192.164 85.0005 192.182 85.1216 192.182C85.2114 192.182 85.3052 192.174 85.4028 192.158C85.5044 192.139 85.5806 192.123 85.6313 192.111L85.6372 192.996C85.5513 193.023 85.438 193.049 85.2974 193.072C85.1606 193.1 84.9946 193.113 84.7993 193.113C84.5337 193.113 84.2896 193.061 84.0669 192.955C83.8442 192.85 83.6665 192.674 83.5337 192.428C83.4048 192.178 83.3403 191.842 83.3403 191.42V185.115ZM89.5103 193.113C89.0688 193.113 88.6685 193.039 88.3091 192.891C87.9536 192.738 87.647 192.525 87.3892 192.252C87.1353 191.979 86.9399 191.654 86.8032 191.279C86.6665 190.904 86.5981 190.494 86.5981 190.049V189.803C86.5981 189.287 86.6743 188.828 86.8267 188.426C86.979 188.02 87.186 187.676 87.4478 187.395C87.7095 187.113 88.0063 186.9 88.3384 186.756C88.6704 186.611 89.0142 186.539 89.3696 186.539C89.8228 186.539 90.2134 186.617 90.5415 186.773C90.8735 186.93 91.145 187.148 91.356 187.43C91.5669 187.707 91.7231 188.035 91.8247 188.414C91.9263 188.789 91.9771 189.199 91.9771 189.645V190.131H87.2427V189.246H90.8931V189.164C90.8774 188.883 90.8188 188.609 90.7173 188.344C90.6196 188.078 90.4634 187.859 90.2485 187.688C90.0337 187.516 89.7407 187.43 89.3696 187.43C89.1235 187.43 88.897 187.482 88.6899 187.588C88.4829 187.689 88.3052 187.842 88.1567 188.045C88.0083 188.248 87.8931 188.496 87.811 188.789C87.729 189.082 87.688 189.42 87.688 189.803V190.049C87.688 190.35 87.729 190.633 87.811 190.898C87.897 191.16 88.02 191.391 88.1802 191.59C88.3442 191.789 88.5415 191.945 88.772 192.059C89.0063 192.172 89.272 192.229 89.5688 192.229C89.9517 192.229 90.2759 192.15 90.5415 191.994C90.8071 191.838 91.0396 191.629 91.2388 191.367L91.895 191.889C91.7583 192.096 91.5845 192.293 91.3735 192.48C91.1626 192.668 90.9028 192.82 90.5942 192.938C90.2896 193.055 89.9282 193.113 89.5103 193.113ZM94.3267 187.652V192.996H93.2427V186.656H94.2974L94.3267 187.652ZM96.3071 186.621L96.3013 187.629C96.2114 187.609 96.1255 187.598 96.0435 187.594C95.9653 187.586 95.8755 187.582 95.7739 187.582C95.5239 187.582 95.3032 187.621 95.1118 187.699C94.9204 187.777 94.7583 187.887 94.6255 188.027C94.4927 188.168 94.3872 188.336 94.3091 188.531C94.2349 188.723 94.186 188.934 94.1626 189.164L93.8579 189.34C93.8579 188.957 93.895 188.598 93.9692 188.262C94.0474 187.926 94.1665 187.629 94.3267 187.371C94.4868 187.109 94.6899 186.906 94.936 186.762C95.186 186.613 95.4829 186.539 95.8267 186.539C95.9048 186.539 95.9946 186.549 96.0962 186.568C96.1978 186.584 96.2681 186.602 96.3071 186.621ZM100.813 191.912V188.648C100.813 188.398 100.762 188.182 100.661 187.998C100.563 187.811 100.415 187.666 100.215 187.564C100.016 187.463 99.77 187.412 99.4771 187.412C99.2036 187.412 98.9634 187.459 98.7563 187.553C98.5532 187.646 98.3931 187.77 98.2759 187.922C98.1626 188.074 98.106 188.238 98.106 188.414H97.022C97.022 188.188 97.0806 187.963 97.1978 187.74C97.3149 187.518 97.4829 187.316 97.7017 187.137C97.9243 186.953 98.1899 186.809 98.4985 186.703C98.811 186.594 99.1587 186.539 99.5415 186.539C100.002 186.539 100.409 186.617 100.76 186.773C101.116 186.93 101.393 187.166 101.592 187.482C101.795 187.795 101.897 188.188 101.897 188.66V191.613C101.897 191.824 101.915 192.049 101.95 192.287C101.989 192.525 102.045 192.73 102.12 192.902V192.996H100.989C100.934 192.871 100.891 192.705 100.86 192.498C100.829 192.287 100.813 192.092 100.813 191.912ZM101 189.152L101.012 189.914H99.9165C99.6079 189.914 99.3325 189.939 99.0903 189.99C98.8481 190.037 98.645 190.109 98.481 190.207C98.3169 190.305 98.1919 190.428 98.106 190.576C98.02 190.721 97.9771 190.891 97.9771 191.086C97.9771 191.285 98.022 191.467 98.1118 191.631C98.2017 191.795 98.3364 191.926 98.5161 192.023C98.6997 192.117 98.9243 192.164 99.1899 192.164C99.522 192.164 99.8149 192.094 100.069 191.953C100.323 191.812 100.524 191.641 100.672 191.438C100.825 191.234 100.907 191.037 100.918 190.846L101.381 191.367C101.354 191.531 101.28 191.713 101.159 191.912C101.038 192.111 100.875 192.303 100.672 192.486C100.473 192.666 100.235 192.816 99.9575 192.938C99.6841 193.055 99.3755 193.113 99.0317 193.113C98.6021 193.113 98.2251 193.029 97.9009 192.861C97.5806 192.693 97.3306 192.469 97.1509 192.188C96.9751 191.902 96.8872 191.584 96.8872 191.232C96.8872 190.893 96.9536 190.594 97.0864 190.336C97.2192 190.074 97.4106 189.857 97.6606 189.686C97.9106 189.51 98.2114 189.377 98.563 189.287C98.9146 189.197 99.3071 189.152 99.7407 189.152H101ZM104.686 188.01V192.996H103.602V186.656H104.627L104.686 188.01ZM104.428 189.586L103.977 189.568C103.981 189.135 104.045 188.734 104.17 188.367C104.295 187.996 104.471 187.674 104.698 187.4C104.924 187.127 105.194 186.916 105.506 186.768C105.823 186.615 106.172 186.539 106.555 186.539C106.868 186.539 107.149 186.582 107.399 186.668C107.649 186.75 107.862 186.883 108.038 187.066C108.217 187.25 108.354 187.488 108.448 187.781C108.542 188.07 108.588 188.424 108.588 188.842V192.996H107.499V188.83C107.499 188.498 107.45 188.232 107.352 188.033C107.254 187.83 107.112 187.684 106.924 187.594C106.737 187.5 106.506 187.453 106.233 187.453C105.963 187.453 105.717 187.51 105.495 187.623C105.276 187.736 105.086 187.893 104.926 188.092C104.77 188.291 104.647 188.52 104.557 188.777C104.471 189.031 104.428 189.301 104.428 189.586ZM114.342 186.656H115.327V192.861C115.327 193.42 115.213 193.896 114.987 194.291C114.76 194.686 114.444 194.984 114.038 195.188C113.635 195.395 113.17 195.498 112.643 195.498C112.424 195.498 112.167 195.463 111.87 195.393C111.577 195.326 111.288 195.211 111.002 195.047C110.721 194.887 110.485 194.67 110.293 194.396L110.862 193.752C111.127 194.072 111.405 194.295 111.694 194.42C111.987 194.545 112.276 194.607 112.561 194.607C112.905 194.607 113.202 194.543 113.452 194.414C113.702 194.285 113.895 194.094 114.032 193.84C114.172 193.59 114.243 193.281 114.243 192.914V188.051L114.342 186.656ZM109.977 189.896V189.773C109.977 189.289 110.034 188.85 110.147 188.455C110.264 188.057 110.43 187.715 110.645 187.43C110.864 187.145 111.127 186.926 111.436 186.773C111.745 186.617 112.092 186.539 112.479 186.539C112.877 186.539 113.225 186.609 113.522 186.75C113.823 186.887 114.077 187.088 114.284 187.354C114.495 187.615 114.661 187.932 114.782 188.303C114.903 188.674 114.987 189.094 115.034 189.562V190.102C114.991 190.566 114.907 190.984 114.782 191.355C114.661 191.727 114.495 192.043 114.284 192.305C114.077 192.566 113.823 192.768 113.522 192.908C113.221 193.045 112.87 193.113 112.467 193.113C112.088 193.113 111.745 193.033 111.436 192.873C111.131 192.713 110.87 192.488 110.651 192.199C110.432 191.91 110.264 191.57 110.147 191.18C110.034 190.785 109.977 190.357 109.977 189.896ZM111.061 189.773V189.896C111.061 190.213 111.092 190.51 111.155 190.787C111.221 191.064 111.321 191.309 111.454 191.52C111.59 191.73 111.764 191.896 111.975 192.018C112.186 192.135 112.438 192.193 112.731 192.193C113.09 192.193 113.387 192.117 113.622 191.965C113.856 191.812 114.042 191.611 114.178 191.361C114.319 191.111 114.428 190.84 114.506 190.547V189.135C114.463 188.92 114.397 188.713 114.307 188.514C114.221 188.311 114.108 188.131 113.967 187.975C113.831 187.814 113.661 187.688 113.458 187.594C113.254 187.5 113.016 187.453 112.743 187.453C112.446 187.453 112.19 187.516 111.975 187.641C111.764 187.762 111.59 187.93 111.454 188.145C111.321 188.355 111.221 188.602 111.155 188.883C111.092 189.16 111.061 189.457 111.061 189.773ZM120.711 191.912V188.648C120.711 188.398 120.661 188.182 120.559 187.998C120.461 187.811 120.313 187.666 120.114 187.564C119.915 187.463 119.668 187.412 119.375 187.412C119.102 187.412 118.862 187.459 118.655 187.553C118.452 187.646 118.292 187.77 118.174 187.922C118.061 188.074 118.004 188.238 118.004 188.414H116.92C116.92 188.188 116.979 187.963 117.096 187.74C117.213 187.518 117.381 187.316 117.6 187.137C117.823 186.953 118.088 186.809 118.397 186.703C118.709 186.594 119.057 186.539 119.44 186.539C119.901 186.539 120.307 186.617 120.659 186.773C121.014 186.93 121.292 187.166 121.491 187.482C121.694 187.795 121.795 188.188 121.795 188.66V191.613C121.795 191.824 121.813 192.049 121.848 192.287C121.887 192.525 121.944 192.73 122.018 192.902V192.996H120.887C120.833 192.871 120.79 192.705 120.758 192.498C120.727 192.287 120.711 192.092 120.711 191.912ZM120.899 189.152L120.911 189.914H119.815C119.506 189.914 119.231 189.939 118.989 189.99C118.747 190.037 118.543 190.109 118.379 190.207C118.215 190.305 118.09 190.428 118.004 190.576C117.918 190.721 117.875 190.891 117.875 191.086C117.875 191.285 117.92 191.467 118.01 191.631C118.1 191.795 118.235 191.926 118.415 192.023C118.598 192.117 118.823 192.164 119.088 192.164C119.42 192.164 119.713 192.094 119.967 191.953C120.221 191.812 120.422 191.641 120.571 191.438C120.723 191.234 120.805 191.037 120.817 190.846L121.28 191.367C121.252 191.531 121.178 191.713 121.057 191.912C120.936 192.111 120.774 192.303 120.571 192.486C120.372 192.666 120.133 192.816 119.856 192.938C119.583 193.055 119.274 193.113 118.93 193.113C118.5 193.113 118.124 193.029 117.799 192.861C117.479 192.693 117.229 192.469 117.049 192.188C116.874 191.902 116.786 191.584 116.786 191.232C116.786 190.893 116.852 190.594 116.985 190.336C117.118 190.074 117.309 189.857 117.559 189.686C117.809 189.51 118.11 189.377 118.461 189.287C118.813 189.197 119.206 189.152 119.639 189.152H120.899ZM124.584 188.01V192.996H123.5V186.656H124.526L124.584 188.01ZM124.327 189.586L123.875 189.568C123.879 189.135 123.944 188.734 124.069 188.367C124.194 187.996 124.37 187.674 124.596 187.4C124.823 187.127 125.092 186.916 125.405 186.768C125.721 186.615 126.071 186.539 126.454 186.539C126.766 186.539 127.047 186.582 127.297 186.668C127.547 186.75 127.76 186.883 127.936 187.066C128.116 187.25 128.252 187.488 128.346 187.781C128.44 188.07 128.487 188.424 128.487 188.842V192.996H127.397V188.83C127.397 188.498 127.348 188.232 127.25 188.033C127.153 187.83 127.01 187.684 126.823 187.594C126.635 187.5 126.405 187.453 126.131 187.453C125.862 187.453 125.616 187.51 125.393 187.623C125.174 187.736 124.985 187.893 124.825 188.092C124.668 188.291 124.545 188.52 124.456 188.777C124.37 189.031 124.327 189.301 124.327 189.586Z" fill="#4F3515"/>
</g>
</g>
<defs>
<filter id="filter0_d_910_304" x="0" y="0" width="264" height="748" filterUnits="userSpaceOnUse" color-interpolation-filters="sRGB">
<feFlood flood-opacity="0" result="BackgroundImageFix"/>
<feColorMatrix in="SourceAlpha" type="matrix" values="0 0 0 0 0 0 0 0 0 0 0 0 0 0 0 0 0 0 127 0" result="hardAlpha"/>
<feOffset dy="2"/>
<feGaussianBlur stdDeviation="5"/>
<feComposite in2="hardAlpha" operator="out"/>
<feColorMatrix type="matrix" values="0 0 0 0 0.23 0 0 0 0 0.23 0 0 0 0 0.23 0 0 0 0.25 0"/>
<feBlend mode="normal" in2="BackgroundImageFix" result="effect1_dropShadow_910_304"/>
<feBlend mode="normal" in="SourceGraphic" in2="effect1_dropShadow_910_304" result="shape"/>
</filter>
<linearGradient id="paint0_linear_910_304" x1="134.38" y1="3.48117" x2="142.811" y2="568.28" gradientUnits="userSpaceOnUse">
<stop stop-color="#EFEFEF" stop-opacity="0.11"/>
<stop offset="1" stop-color="#0CD6E1" stop-opacity="0"/>
</linearGradient>
<linearGradient id="paint1_linear_910_304" x1="213.46" y1="-51.0101" x2="322.323" y2="10.7481" gradientUnits="userSpaceOnUse">
<stop stop-color="white"/>
<stop offset="1" stop-color="#DEDEDE"/>
</linearGradient>
<linearGradient id="paint2_linear_910_304" x1="36.0245" y1="-76.7559" x2="217.282" y2="76.4048" gradientUnits="userSpaceOnUse">
<stop stop-color="white"/>
<stop offset="1" stop-color="#DEDEDE"/>
</linearGradient>
<linearGradient id="paint3_linear_910_304" x1="206.961" y1="-156.531" x2="307.443" y2="127.744" gradientUnits="userSpaceOnUse">
<stop stop-color="white"/>
<stop offset="1" stop-color="#DEDEDE"/>
</linearGradient>
<linearGradient id="paint4_linear_910_304" x1="231.98" y1="-83.4583" x2="313.139" y2="154.499" gradientUnits="userSpaceOnUse">
<stop stop-color="white"/>
<stop offset="1" stop-color="#DEDEDE"/>
</linearGradient>
<clipPath id="clip0_910_304">
<rect x="10" y="8" width="244" height="728" rx="15" fill="white"/>
</clipPath>
<clipPath id="clip1_910_304">
<rect width="244" height="173.776" fill="white" transform="translate(10 7)"/>
</clipPath>
</defs>
</svg>
