<svg width="264" height="642" viewBox="0 0 264 642" fill="none" xmlns="http://www.w3.org/2000/svg">
<g filter="url(#filter0_d_905_201)">
<g clip-path="url(#clip0_905_201)">
<rect x="10" y="8" width="244" height="622" rx="15" fill="white"/>
<rect x="10" y="8" width="244" height="622" fill="url(#paint0_linear_905_201)"/>
<g clip-path="url(#clip1_905_201)">
<rect x="-77" y="26.3945" width="205.578" height="162.173" transform="rotate(-18.2958 -77 26.3945)" fill="url(#paint1_linear_905_201)"/>
<rect x="161.049" y="20.1797" width="95.2195" height="111.883" fill="url(#paint2_linear_905_201)"/>
<rect width="209.483" height="24.761" transform="translate(-53.1953 148.816) rotate(-18.2359)" fill="#ED1C23"/>
<path d="M24.5974 140.121C24.9475 140.006 25.2291 139.869 25.4422 139.71C25.6582 139.546 25.8182 139.368 25.9222 139.176C26.0306 138.983 26.0866 138.781 26.0903 138.568C26.097 138.35 26.0638 138.13 25.9908 137.908C25.8418 137.456 25.5698 137.152 25.1749 136.998C24.7829 136.837 24.2545 136.866 23.5896 137.085L21.6682 137.718L22.6693 140.756L24.5974 140.121ZM20.3211 133.629L21.3068 136.621L22.8625 136.109C23.5274 135.89 23.9815 135.597 24.2247 135.232C24.468 134.867 24.5101 134.443 24.3509 133.96C24.1771 133.432 23.8964 133.102 23.5088 132.97C23.1255 132.836 22.6059 132.877 21.9499 133.093L20.3211 133.629ZM21.5491 131.876C22.1607 131.674 22.7035 131.562 23.1773 131.539C23.6496 131.511 24.0612 131.559 24.4119 131.685C24.7627 131.81 25.0542 132.008 25.2865 132.281C25.5217 132.547 25.7035 132.876 25.832 133.266C25.9065 133.492 25.9433 133.723 25.9425 133.959C25.9447 134.189 25.9033 134.421 25.8183 134.656C25.7364 134.884 25.6109 135.107 25.4419 135.325C25.2729 135.543 25.056 135.749 24.7912 135.945C26.2424 135.786 27.1578 136.283 27.5375 137.435C27.6719 137.843 27.7177 138.243 27.675 138.636C27.6353 139.022 27.5101 139.388 27.2993 139.732C27.0915 140.071 26.7975 140.379 26.4173 140.657C26.0371 140.934 25.5744 141.163 25.0292 141.342L21.5188 142.499L18.3645 132.925L21.5491 131.876ZM32.9148 134.138C32.836 133.899 32.7275 133.689 32.5894 133.508C32.4543 133.322 32.2954 133.175 32.1128 133.068C31.9287 132.957 31.7231 132.892 31.4959 132.873C31.2717 132.849 31.031 132.879 30.7739 132.964C30.2554 133.135 29.8965 133.418 29.6974 133.812C29.4983 134.207 29.4472 134.686 29.5441 135.249L32.9148 134.138ZM29.7933 136.139C29.9381 136.519 30.1082 136.834 30.3036 137.084C30.4976 137.33 30.7094 137.518 30.9392 137.648C31.1734 137.778 31.4233 137.85 31.6888 137.866C31.9574 137.876 32.2379 137.832 32.5305 137.736C32.8097 137.644 33.041 137.533 33.2245 137.404C33.4064 137.27 33.5604 137.141 33.6862 137.016C33.8107 136.887 33.9158 136.773 34.0018 136.676C34.0862 136.575 34.1728 136.509 34.2614 136.48C34.3767 136.442 34.4799 136.457 34.5712 136.526L35.1498 136.917C35.0471 137.172 34.912 137.403 34.7445 137.611C34.577 137.818 34.3882 138.006 34.1781 138.173C33.9665 138.336 33.7402 138.477 33.4992 138.596C33.2597 138.719 33.0203 138.82 32.781 138.899C32.3112 139.054 31.849 139.12 31.3946 139.098C30.9431 139.07 30.5185 138.952 30.1208 138.744C29.7275 138.534 29.3721 138.231 29.0548 137.835C28.7418 137.436 28.4882 136.943 28.294 136.353C28.1392 135.883 28.0678 135.42 28.0797 134.965C28.096 134.507 28.1919 134.082 28.3674 133.69C28.5474 133.297 28.8061 132.949 29.1436 132.646C29.4841 132.337 29.9048 132.101 30.4056 131.936C30.8223 131.798 31.2305 131.74 31.6304 131.76C32.0288 131.777 32.3996 131.873 32.7428 132.05C33.086 132.227 33.3914 132.482 33.6588 132.817C33.9292 133.145 34.144 133.551 34.3031 134.034C34.3762 134.256 34.4007 134.412 34.3768 134.504C34.3528 134.595 34.2766 134.662 34.1481 134.704L29.7933 136.139ZM39.1199 130.546C39.1049 130.62 39.0796 130.677 39.044 130.718C39.0085 130.759 38.9574 130.791 38.891 130.813C38.8156 130.838 38.7263 130.843 38.6231 130.827C38.5184 130.808 38.3967 130.789 38.258 130.771C38.1194 130.753 37.9607 130.748 37.7821 130.758C37.6065 130.762 37.4101 130.8 37.1929 130.871C37.0156 130.93 36.8612 131.005 36.7295 131.098C36.6008 131.184 36.4986 131.284 36.423 131.398C36.3503 131.505 36.3049 131.621 36.2867 131.745C36.2671 131.864 36.2771 131.984 36.3165 132.103C36.3691 132.263 36.4616 132.38 36.5942 132.454C36.7267 132.528 36.8859 132.579 37.0718 132.606C37.2562 132.629 37.4605 132.638 37.6849 132.633C37.9092 132.628 38.1394 132.625 38.3755 132.626C38.6116 132.627 38.847 132.64 39.0815 132.666C39.3161 132.692 39.5358 132.748 39.7406 132.832C39.944 132.913 40.1266 133.034 40.2883 133.197C40.4486 133.356 40.574 133.572 40.6646 133.847C40.7697 134.166 40.8092 134.48 40.7831 134.788C40.7569 135.097 40.6659 135.387 40.51 135.66C40.3541 135.932 40.1282 136.178 39.8323 136.399C39.5408 136.618 39.1823 136.797 38.7568 136.937C38.5219 137.015 38.2863 137.068 38.0501 137.097C37.8198 137.128 37.5932 137.141 37.3704 137.136C37.1505 137.125 36.9374 137.097 36.7309 137.052C36.5289 137.006 36.3417 136.945 36.1693 136.869L36.3221 136.214C36.3401 136.134 36.3721 136.067 36.418 136.013C36.4669 135.953 36.5357 135.908 36.6243 135.879C36.7174 135.848 36.8185 135.849 36.9276 135.882C37.0397 135.909 37.1672 135.938 37.3102 135.969C37.4577 136 37.6281 136.017 37.8214 136.022C38.0132 136.023 38.2377 135.981 38.4948 135.896C38.7075 135.826 38.8834 135.741 39.0225 135.641C39.1601 135.537 39.2653 135.424 39.338 135.301C39.4107 135.179 39.4532 135.055 39.4655 134.928C39.4763 134.796 39.4605 134.666 39.4181 134.538C39.3612 134.365 39.2657 134.239 39.1317 134.161C38.9977 134.082 38.8355 134.03 38.6452 134.004C38.4594 133.977 38.2521 133.966 38.0233 133.973C37.799 133.978 37.5688 133.98 37.3326 133.98C37.0965 133.979 36.859 133.966 36.62 133.942C36.3854 133.916 36.1628 133.859 35.9521 133.771C35.7443 133.677 35.5581 133.545 35.3934 133.373C35.2273 133.197 35.0953 132.96 34.9974 132.663C34.9084 132.393 34.8768 132.118 34.9029 131.839C34.9334 131.559 35.0221 131.292 35.1691 131.037C35.3205 130.781 35.5316 130.549 35.8024 130.342C36.0762 130.129 36.4147 129.956 36.818 129.823C37.2746 129.672 37.7131 129.609 38.1336 129.633C38.5541 129.656 38.9323 129.753 39.2682 129.922L39.1199 130.546ZM44.9136 134.909C44.3507 135.094 43.8644 135.08 43.4549 134.866C43.0484 134.646 42.7502 134.248 42.5604 133.672L41.2592 129.723L40.5146 129.968C40.4348 129.995 40.3581 129.993 40.2844 129.963C40.2092 129.929 40.1549 129.861 40.1213 129.759L39.9307 129.18L40.9751 128.659L40.6414 126.595C40.6387 126.513 40.6567 126.44 40.6953 126.379C40.7324 126.312 40.7953 126.264 40.8839 126.235L41.6153 125.994L42.3491 128.222L44.2306 127.602L44.5701 128.632L42.6886 129.252L43.9569 133.101C44.0372 133.345 44.1584 133.512 44.3204 133.601C44.4824 133.69 44.6632 133.702 44.8626 133.636C44.9734 133.599 45.0644 133.555 45.1354 133.502C45.2049 133.445 45.2634 133.391 45.3108 133.341C45.3567 133.286 45.3953 133.239 45.4264 133.2C45.4605 133.154 45.4975 133.125 45.5374 133.111C45.6172 133.085 45.696 133.108 45.774 133.181L46.4295 133.739C46.2722 134.007 46.0603 134.244 45.794 134.449C45.5261 134.651 45.2327 134.804 44.9136 134.909ZM53.5289 123.152C53.5064 123.248 53.4752 123.325 53.4351 123.382C53.3936 123.435 53.333 123.475 53.2532 123.501C53.169 123.529 53.062 123.525 52.9323 123.489C52.807 123.452 52.6529 123.417 52.47 123.383C52.2901 123.344 52.0843 123.324 51.8526 123.322C51.6195 123.315 51.3589 123.359 51.0708 123.454C50.8048 123.541 50.5809 123.652 50.3989 123.786C50.2213 123.918 50.0836 124.067 49.9856 124.231C49.8876 124.396 49.8302 124.573 49.8133 124.76C49.7994 124.941 49.8238 125.127 49.8866 125.318C49.967 125.562 50.0984 125.744 50.281 125.866C50.4621 125.983 50.6758 126.065 50.9221 126.112C51.1728 126.157 51.4479 126.179 51.7475 126.179C52.0456 126.174 52.3504 126.174 52.6617 126.18C52.9775 126.184 53.291 126.203 53.6023 126.238C53.9136 126.274 54.2048 126.352 54.4759 126.474C54.7514 126.594 54.9987 126.771 55.2178 127.003C55.4369 127.236 55.6114 127.549 55.7414 127.944C55.8816 128.369 55.9399 128.792 55.9163 129.213C55.8927 129.633 55.7872 130.029 55.6 130.4C55.4158 130.766 55.146 131.095 54.7908 131.389C54.4401 131.682 54.0054 131.913 53.4868 132.084C53.181 132.185 52.8716 132.253 52.5586 132.287C52.2515 132.324 51.9475 132.333 51.6465 132.315C51.3485 132.29 51.0587 132.238 50.7771 132.159C50.4955 132.08 50.2324 131.975 49.9879 131.844L50.1947 130.95C50.2141 130.875 50.249 130.81 50.2994 130.754C50.3498 130.698 50.4126 130.658 50.488 130.633C50.5899 130.599 50.719 130.611 50.8752 130.667C51.03 130.719 51.2128 130.775 51.4236 130.833C51.6374 130.885 51.8845 130.919 52.1649 130.935C52.4437 130.946 52.756 130.895 53.1017 130.781C53.6646 130.596 54.0537 130.315 54.269 129.94C54.4887 129.563 54.519 129.133 54.3598 128.65C54.2708 128.379 54.1342 128.181 53.9502 128.055C53.7647 127.924 53.5466 127.837 53.2959 127.791C53.0496 127.745 52.7781 127.726 52.4814 127.735C52.1848 127.745 51.8822 127.751 51.5738 127.754C51.2639 127.753 50.9541 127.737 50.6443 127.707C50.333 127.672 50.0389 127.592 49.7619 127.467C49.4878 127.336 49.2391 127.148 49.0156 126.902C48.7907 126.652 48.6067 126.31 48.4636 125.875C48.3497 125.53 48.3059 125.173 48.3323 124.806C48.3631 124.437 48.4661 124.086 48.6414 123.753C48.8197 123.414 49.0746 123.107 49.4061 122.83C49.7376 122.554 50.1471 122.336 50.6347 122.175C51.1843 121.994 51.7158 121.915 52.2293 121.937C52.7472 121.958 53.225 122.073 53.6625 122.283L53.5289 123.152ZM61.1837 124.824C61.1048 124.585 60.9963 124.375 60.8582 124.194C60.7231 124.008 60.5643 123.861 60.3816 123.754C60.1976 123.643 59.9919 123.578 59.7647 123.56C59.5405 123.535 59.2998 123.565 59.0428 123.65C58.5242 123.821 58.1653 124.104 57.9662 124.498C57.7671 124.893 57.716 125.372 57.8129 125.935L61.1837 124.824ZM58.0622 126.825C58.207 127.205 58.377 127.52 58.5724 127.77C58.7664 128.016 58.9782 128.204 59.208 128.335C59.4422 128.464 59.6921 128.536 59.9577 128.552C60.2262 128.562 60.5068 128.518 60.7993 128.422C61.0785 128.33 61.3099 128.219 61.4933 128.09C61.6753 127.956 61.8292 127.827 61.9551 127.702C62.0795 127.573 62.1847 127.459 62.2706 127.362C62.3551 127.261 62.4416 127.195 62.5303 127.166C62.6455 127.128 62.7488 127.143 62.84 127.212L63.4186 127.603C63.3159 127.858 63.1808 128.089 63.0133 128.297C62.8458 128.504 62.657 128.692 62.4469 128.859C62.2353 129.022 62.009 129.163 61.7681 129.282C61.5286 129.405 61.2892 129.506 61.0498 129.585C60.58 129.74 60.1179 129.806 59.6634 129.784C59.2119 129.756 58.7873 129.638 58.3896 129.43C57.9963 129.22 57.641 128.917 57.3236 128.521C57.0106 128.123 56.757 127.629 56.5628 127.039C56.408 126.569 56.3366 126.107 56.3485 125.651C56.3648 125.193 56.4608 124.768 56.6363 124.377C56.8162 123.983 57.0749 123.635 57.4124 123.332C57.7529 123.023 58.1736 122.787 58.6745 122.622C59.0911 122.484 59.4993 122.426 59.8992 122.447C60.2976 122.463 60.6684 122.559 61.0116 122.736C61.3549 122.913 61.6602 123.168 61.9276 123.503C62.198 123.831 62.4128 124.237 62.572 124.72C62.645 124.942 62.6695 125.098 62.6456 125.19C62.6217 125.281 62.5454 125.348 62.4169 125.391L58.0622 126.825ZM63.383 117.798L66.6249 127.638L65.1955 128.109L61.9535 118.269L63.383 117.798ZM66.6033 116.737L69.8452 126.577L68.4158 127.048L65.1739 117.208L66.6033 116.737ZM74.6883 120.375C74.6094 120.135 74.501 119.925 74.3629 119.745C74.2278 119.558 74.0689 119.412 73.8863 119.305C73.7022 119.193 73.4965 119.129 73.2694 119.11C73.0451 119.086 72.8045 119.116 72.5474 119.201C72.0288 119.371 71.67 119.654 71.4709 120.049C71.2717 120.444 71.2206 120.923 71.3176 121.485L74.6883 120.375ZM71.5668 122.376C71.7116 122.756 71.8817 123.071 72.0771 123.321C72.271 123.566 72.4829 123.754 72.7126 123.885C72.9468 124.014 73.1967 124.087 73.4623 124.102C73.7308 124.112 74.0114 124.069 74.3039 123.973C74.5832 123.881 74.8145 123.77 74.9979 123.641C75.1799 123.507 75.3338 123.378 75.4597 123.253C75.5841 123.123 75.6893 123.01 75.7752 122.913C75.8597 122.811 75.9462 122.746 76.0349 122.717C76.1501 122.679 76.2534 122.694 76.3446 122.762L76.9232 123.154C76.8205 123.409 76.6854 123.64 76.518 123.847C76.3505 124.055 76.1617 124.242 75.9515 124.41C75.7399 124.573 75.5137 124.714 75.2727 124.833C75.0332 124.956 74.7938 125.057 74.5544 125.136C74.0846 125.29 73.6225 125.357 73.168 125.334C72.7166 125.306 72.292 125.188 71.8942 124.98C71.5009 124.771 71.1456 124.468 70.8282 124.071C70.5153 123.673 70.2617 123.179 70.0675 122.59C69.9127 122.12 69.8412 121.657 69.8531 121.201C69.8695 120.744 69.9654 120.319 70.1409 119.927C70.3208 119.534 70.5796 119.186 70.9171 118.883C71.2576 118.574 71.6782 118.337 72.1791 118.172C72.5957 118.035 73.004 117.977 73.4038 117.997C73.8022 118.013 74.173 118.11 74.5163 118.287C74.8595 118.463 75.1648 118.719 75.4322 119.053C75.7026 119.382 75.9174 119.788 76.0766 120.271C76.1496 120.493 76.1742 120.649 76.1502 120.74C76.1263 120.832 76.0501 120.899 75.9215 120.941L71.5668 122.376ZM78.2029 117.698C78.2739 117.198 78.42 116.777 78.6411 116.434C78.8607 116.086 79.1811 115.843 79.6021 115.704C79.7484 115.656 79.8916 115.629 80.0319 115.622C80.1706 115.61 80.3019 115.621 80.4258 115.654L80.6809 116.764C80.688 116.845 80.6767 116.908 80.6471 116.952C80.6204 116.99 80.576 117.02 80.5139 117.04C80.4474 117.062 80.3485 117.082 80.2171 117.101C80.0842 117.115 79.9491 117.145 79.8117 117.19C79.6122 117.256 79.4444 117.343 79.3083 117.452C79.1766 117.559 79.0669 117.689 78.9793 117.84C78.8962 117.991 78.8343 118.161 78.7938 118.351C78.7533 118.541 78.7268 118.752 78.7142 118.982L80.1029 123.197L78.6735 123.668L76.4392 116.886L77.2703 116.613C77.421 116.563 77.5346 116.557 77.6112 116.596C77.6864 116.63 77.7577 116.712 77.8251 116.843L78.2029 117.698Z" fill="white"/>
<path opacity="0.5" d="M-3.27208 -76.6682C4.93038 -95.8481 27.0352 -104.861 46.3104 -96.8855L246.405 -14.0888C266.68 -5.69945 275.691 18.0413 266.09 37.7711L220.493 131.472C211.604 149.737 189.946 157.813 171.269 149.825L-23.1515 66.6796C-42.4924 58.4083 -51.4661 36.0242 -43.1948 16.6833L-3.27208 -76.6682Z" fill="url(#paint3_linear_905_201)"/>
<path d="M30.1362 -82.437C40.5565 -100.486 63.5475 -106.808 81.731 -96.625L244.886 -5.25827C263.983 5.43615 270.159 29.9879 258.394 48.4452L202.425 136.256C191.468 153.447 168.918 158.963 151.263 148.77L-6.71257 57.5625C-24.9297 47.0448 -31.1713 23.7507 -20.6537 5.53355L30.1362 -82.437Z" fill="url(#paint4_linear_905_201)"/>
</g>
<path d="M96.786 38.686C97.082 38.686 97.34 38.65 97.56 38.578C97.78 38.502 97.962 38.396 98.106 38.26C98.254 38.12 98.364 37.952 98.436 37.756C98.508 37.556 98.544 37.334 98.544 37.09C98.544 36.858 98.508 36.648 98.436 36.46C98.364 36.272 98.256 36.112 98.112 35.98C97.968 35.848 97.786 35.748 97.566 35.68C97.346 35.608 97.086 35.572 96.786 35.572H95.58V38.686H96.786ZM96.786 34.324C97.366 34.324 97.868 34.392 98.292 34.528C98.716 34.664 99.066 34.854 99.342 35.098C99.618 35.342 99.822 35.634 99.954 35.974C100.09 36.314 100.158 36.686 100.158 37.09C100.158 37.51 100.088 37.896 99.948 38.248C99.808 38.596 99.598 38.896 99.318 39.148C99.038 39.4 98.686 39.596 98.262 39.736C97.842 39.876 97.35 39.946 96.786 39.946H95.58V43H93.966V34.324H96.786ZM105.73 39.724L104.674 36.838C104.622 36.71 104.568 36.558 104.512 36.382C104.456 36.206 104.4 36.016 104.344 35.812C104.292 36.016 104.238 36.208 104.182 36.388C104.126 36.564 104.072 36.718 104.02 36.85L102.97 39.724H105.73ZM108.58 43H107.332C107.192 43 107.078 42.966 106.99 42.898C106.902 42.826 106.836 42.738 106.792 42.634L106.144 40.864H102.55L101.902 42.634C101.87 42.726 101.808 42.81 101.716 42.886C101.624 42.962 101.51 43 101.374 43H100.114L103.528 34.324H105.172L108.58 43ZM111.452 37.96H111.83C111.982 37.96 112.108 37.94 112.208 37.9C112.308 37.856 112.394 37.788 112.466 37.696L114.86 34.666C114.96 34.538 115.064 34.45 115.172 34.402C115.284 34.35 115.424 34.324 115.592 34.324H116.984L114.062 37.93C113.89 38.15 113.712 38.306 113.528 38.398C113.66 38.446 113.778 38.514 113.882 38.602C113.99 38.686 114.092 38.798 114.188 38.938L117.2 43H115.778C115.586 43 115.442 42.974 115.346 42.922C115.254 42.866 115.176 42.786 115.112 42.682L112.658 39.478C112.582 39.37 112.494 39.294 112.394 39.25C112.294 39.206 112.15 39.184 111.962 39.184H111.452V43H109.838V34.324H111.452V37.96ZM120.045 35.608V38.014H123.081V39.256H120.045V41.71H123.897V43H118.425V34.324H123.897V35.608H120.045ZM131.747 35.65H129.131V43H127.517V35.65H124.901V34.324H131.747V35.65ZM143.309 38.65V42.16C142.869 42.484 142.399 42.722 141.899 42.874C141.403 43.022 140.871 43.096 140.303 43.096C139.595 43.096 138.953 42.986 138.377 42.766C137.805 42.546 137.315 42.24 136.907 41.848C136.503 41.456 136.191 40.988 135.971 40.444C135.751 39.9 135.641 39.306 135.641 38.662C135.641 38.01 135.747 37.412 135.959 36.868C136.171 36.324 136.471 35.856 136.859 35.464C137.251 35.072 137.725 34.768 138.281 34.552C138.837 34.336 139.461 34.228 140.153 34.228C140.505 34.228 140.833 34.256 141.137 34.312C141.445 34.368 141.729 34.446 141.989 34.546C142.253 34.642 142.493 34.76 142.709 34.9C142.925 35.04 143.123 35.194 143.303 35.362L142.841 36.094C142.769 36.21 142.675 36.282 142.559 36.31C142.443 36.334 142.317 36.304 142.181 36.22C142.049 36.144 141.917 36.068 141.785 35.992C141.653 35.916 141.505 35.85 141.341 35.794C141.181 35.738 140.999 35.692 140.795 35.656C140.595 35.62 140.363 35.602 140.099 35.602C139.671 35.602 139.283 35.674 138.935 35.818C138.591 35.962 138.297 36.168 138.053 36.436C137.809 36.704 137.621 37.026 137.489 37.402C137.357 37.778 137.291 38.198 137.291 38.662C137.291 39.158 137.361 39.602 137.501 39.994C137.645 40.382 137.845 40.712 138.101 40.984C138.361 41.252 138.673 41.458 139.037 41.602C139.401 41.742 139.807 41.812 140.255 41.812C140.575 41.812 140.861 41.778 141.113 41.71C141.365 41.642 141.611 41.55 141.851 41.434V39.862H140.759C140.655 39.862 140.573 39.834 140.513 39.778C140.457 39.718 140.429 39.646 140.429 39.562V38.65H143.309ZM153.498 38.662C153.498 39.298 153.392 39.888 153.18 40.432C152.972 40.972 152.676 41.44 152.292 41.836C151.908 42.232 151.446 42.542 150.906 42.766C150.366 42.986 149.766 43.096 149.106 43.096C148.45 43.096 147.852 42.986 147.312 42.766C146.772 42.542 146.308 42.232 145.92 41.836C145.536 41.44 145.238 40.972 145.026 40.432C144.814 39.888 144.708 39.298 144.708 38.662C144.708 38.026 144.814 37.438 145.026 36.898C145.238 36.354 145.536 35.884 145.92 35.488C146.308 35.092 146.772 34.784 147.312 34.564C147.852 34.34 148.45 34.228 149.106 34.228C149.546 34.228 149.96 34.28 150.348 34.384C150.736 34.484 151.092 34.628 151.416 34.816C151.74 35 152.03 35.226 152.286 35.494C152.546 35.758 152.766 36.054 152.946 36.382C153.126 36.71 153.262 37.066 153.354 37.45C153.45 37.834 153.498 38.238 153.498 38.662ZM151.848 38.662C151.848 38.186 151.784 37.76 151.656 37.384C151.528 37.004 151.346 36.682 151.11 36.418C150.874 36.154 150.586 35.952 150.246 35.812C149.91 35.672 149.53 35.602 149.106 35.602C148.682 35.602 148.3 35.672 147.96 35.812C147.624 35.952 147.336 36.154 147.096 36.418C146.86 36.682 146.678 37.004 146.55 37.384C146.422 37.76 146.358 38.186 146.358 38.662C146.358 39.138 146.422 39.566 146.55 39.946C146.678 40.322 146.86 40.642 147.096 40.906C147.336 41.166 147.624 41.366 147.96 41.506C148.3 41.646 148.682 41.716 149.106 41.716C149.53 41.716 149.91 41.646 150.246 41.506C150.586 41.366 150.874 41.166 151.11 40.906C151.346 40.642 151.528 40.322 151.656 39.946C151.784 39.566 151.848 39.138 151.848 38.662ZM160.358 41.668V43H155.276V34.324H156.89V41.668H160.358ZM169.574 38.662C169.574 39.298 169.468 39.882 169.256 40.414C169.044 40.946 168.746 41.404 168.362 41.788C167.978 42.172 167.516 42.47 166.976 42.682C166.436 42.894 165.836 43 165.176 43H161.87V34.324H165.176C165.836 34.324 166.436 34.432 166.976 34.648C167.516 34.86 167.978 35.158 168.362 35.542C168.746 35.922 169.044 36.378 169.256 36.91C169.468 37.442 169.574 38.026 169.574 38.662ZM167.918 38.662C167.918 38.186 167.854 37.76 167.726 37.384C167.602 37.004 167.42 36.684 167.18 36.424C166.944 36.16 166.656 35.958 166.316 35.818C165.98 35.678 165.6 35.608 165.176 35.608H163.49V41.716H165.176C165.6 41.716 165.98 41.646 166.316 41.506C166.656 41.366 166.944 41.166 167.18 40.906C167.42 40.642 167.602 40.322 167.726 39.946C167.854 39.566 167.918 39.138 167.918 38.662Z" fill="#444444"/>
<rect x="83.5" y="27.5" width="97" height="21" rx="10.5" stroke="#444444"/>
<path d="M110.92 59.28C111.193 59.28 111.433 59.2467 111.64 59.18C111.85 59.1133 112.025 59.02 112.165 58.9C112.305 58.7767 112.41 58.6317 112.48 58.465C112.55 58.295 112.585 58.1083 112.585 57.905C112.585 57.4917 112.448 57.18 112.175 56.97C111.905 56.76 111.498 56.655 110.955 56.655H109.95V59.28H110.92ZM114.27 63H113.32C113.13 63 112.992 62.925 112.905 62.775L111.13 60.285C111.073 60.2017 111.012 60.1433 110.945 60.11C110.878 60.0733 110.778 60.055 110.645 60.055H109.95V63H108.885V55.82H110.955C111.418 55.82 111.817 55.8683 112.15 55.965C112.487 56.0583 112.763 56.1933 112.98 56.37C113.2 56.5433 113.362 56.7533 113.465 57C113.572 57.2467 113.625 57.5233 113.625 57.83C113.625 58.08 113.587 58.315 113.51 58.535C113.433 58.755 113.32 58.9533 113.17 59.13C113.023 59.3033 112.843 59.4533 112.63 59.58C112.417 59.7067 112.175 59.8033 111.905 59.87C112.038 59.95 112.153 60.0617 112.25 60.205L114.27 63ZM115.9 61.75C116.06 61.96 116.232 62.1067 116.415 62.19C116.602 62.2733 116.81 62.315 117.04 62.315C117.487 62.315 117.832 62.155 118.075 61.835C118.322 61.5117 118.445 61.0417 118.445 60.425C118.445 60.1017 118.417 59.8267 118.36 59.6C118.307 59.37 118.227 59.1833 118.12 59.04C118.017 58.8933 117.889 58.7867 117.735 58.72C117.582 58.65 117.409 58.615 117.215 58.615C116.932 58.615 116.685 58.6783 116.475 58.805C116.269 58.9317 116.077 59.1117 115.9 59.345V61.75ZM115.85 58.68C115.957 58.5533 116.07 58.4383 116.19 58.335C116.314 58.2283 116.445 58.1383 116.585 58.065C116.725 57.9883 116.874 57.93 117.03 57.89C117.19 57.8467 117.36 57.825 117.54 57.825C117.83 57.825 118.092 57.8817 118.325 57.995C118.562 58.1083 118.764 58.275 118.93 58.495C119.097 58.715 119.225 58.9867 119.315 59.31C119.409 59.6333 119.455 60.005 119.455 60.425C119.455 60.8017 119.404 61.1517 119.3 61.475C119.2 61.795 119.055 62.0733 118.865 62.31C118.679 62.5467 118.449 62.7333 118.175 62.87C117.905 63.0033 117.6 63.07 117.26 63.07C116.957 63.07 116.697 63.02 116.48 62.92C116.264 62.82 116.07 62.68 115.9 62.5V64.705H114.925V57.92H115.51C115.647 57.92 115.732 57.985 115.765 58.115L115.85 58.68ZM120.39 62.415C120.39 62.325 120.407 62.24 120.44 62.16C120.474 62.08 120.519 62.01 120.575 61.95C120.635 61.89 120.705 61.8433 120.785 61.81C120.865 61.7733 120.952 61.755 121.045 61.755C121.135 61.755 121.22 61.7733 121.3 61.81C121.38 61.8433 121.45 61.89 121.51 61.95C121.57 62.01 121.617 62.08 121.65 62.16C121.687 62.24 121.705 62.325 121.705 62.415C121.705 62.5083 121.687 62.595 121.65 62.675C121.617 62.755 121.57 62.825 121.51 62.885C121.45 62.945 121.38 62.9917 121.3 63.025C121.22 63.0583 121.135 63.075 121.045 63.075C120.952 63.075 120.865 63.0583 120.785 63.025C120.705 62.9917 120.635 62.945 120.575 62.885C120.519 62.825 120.474 62.755 120.44 62.675C120.407 62.595 120.39 62.5083 120.39 62.415ZM126.623 58.5C126.989 58.4233 127.321 58.385 127.618 58.385C127.991 58.385 128.321 58.4417 128.608 58.555C128.894 58.665 129.134 58.8183 129.328 59.015C129.524 59.2083 129.671 59.4383 129.768 59.705C129.868 59.9683 129.918 60.255 129.918 60.565C129.918 60.945 129.851 61.29 129.718 61.6C129.584 61.91 129.401 62.175 129.168 62.395C128.934 62.615 128.658 62.785 128.338 62.905C128.021 63.0217 127.679 63.08 127.313 63.08C127.096 63.08 126.889 63.0583 126.693 63.015C126.499 62.9717 126.318 62.915 126.148 62.845C125.978 62.7717 125.819 62.6883 125.673 62.595C125.529 62.5017 125.401 62.4033 125.288 62.3L125.588 61.88C125.651 61.7867 125.736 61.74 125.843 61.74C125.913 61.74 125.989 61.7667 126.073 61.82C126.159 61.87 126.261 61.9267 126.378 61.99C126.494 62.0533 126.633 62.1117 126.793 62.165C126.953 62.215 127.143 62.24 127.363 62.24C127.606 62.24 127.824 62.2017 128.018 62.125C128.214 62.045 128.379 61.9333 128.513 61.79C128.649 61.6467 128.753 61.475 128.823 61.275C128.896 61.075 128.933 60.8533 128.933 60.61C128.933 60.3933 128.901 60.1983 128.838 60.025C128.774 59.8517 128.679 59.7033 128.553 59.58C128.426 59.4567 128.268 59.3633 128.078 59.3C127.888 59.2333 127.666 59.2 127.413 59.2C127.059 59.2 126.683 59.2633 126.283 59.39L125.668 59.21L126.253 55.82H129.693V56.245C129.693 56.385 129.648 56.5 129.558 56.59C129.471 56.6767 129.324 56.72 129.118 56.72H126.933L126.623 58.5ZM132.424 58.5C132.79 58.4233 133.122 58.385 133.419 58.385C133.792 58.385 134.122 58.4417 134.409 58.555C134.695 58.665 134.935 58.8183 135.129 59.015C135.325 59.2083 135.472 59.4383 135.569 59.705C135.669 59.9683 135.719 60.255 135.719 60.565C135.719 60.945 135.652 61.29 135.519 61.6C135.385 61.91 135.202 62.175 134.969 62.395C134.735 62.615 134.459 62.785 134.139 62.905C133.822 63.0217 133.48 63.08 133.114 63.08C132.897 63.08 132.69 63.0583 132.494 63.015C132.3 62.9717 132.119 62.915 131.949 62.845C131.779 62.7717 131.62 62.6883 131.474 62.595C131.33 62.5017 131.202 62.4033 131.089 62.3L131.389 61.88C131.452 61.7867 131.537 61.74 131.644 61.74C131.714 61.74 131.79 61.7667 131.874 61.82C131.96 61.87 132.062 61.9267 132.179 61.99C132.295 62.0533 132.434 62.1117 132.594 62.165C132.754 62.215 132.944 62.24 133.164 62.24C133.407 62.24 133.625 62.2017 133.819 62.125C134.015 62.045 134.18 61.9333 134.314 61.79C134.45 61.6467 134.554 61.475 134.624 61.275C134.697 61.075 134.734 60.8533 134.734 60.61C134.734 60.3933 134.702 60.1983 134.639 60.025C134.575 59.8517 134.48 59.7033 134.354 59.58C134.227 59.4567 134.069 59.3633 133.879 59.3C133.689 59.2333 133.467 59.2 133.214 59.2C132.86 59.2 132.484 59.2633 132.084 59.39L131.469 59.21L132.054 55.82H135.494V56.245C135.494 56.385 135.449 56.5 135.359 56.59C135.272 56.6767 135.125 56.72 134.919 56.72H132.734L132.424 58.5ZM136.884 62.415C136.884 62.325 136.901 62.24 136.934 62.16C136.968 62.08 137.013 62.01 137.069 61.95C137.129 61.89 137.199 61.8433 137.279 61.81C137.359 61.7733 137.446 61.755 137.539 61.755C137.629 61.755 137.714 61.7733 137.794 61.81C137.874 61.8433 137.944 61.89 138.004 61.95C138.064 62.01 138.111 62.08 138.144 62.16C138.181 62.24 138.199 62.325 138.199 62.415C138.199 62.5083 138.181 62.595 138.144 62.675C138.111 62.755 138.064 62.825 138.004 62.885C137.944 62.945 137.874 62.9917 137.794 63.025C137.714 63.0583 137.629 63.075 137.539 63.075C137.446 63.075 137.359 63.0583 137.279 63.025C137.199 62.9917 137.129 62.945 137.069 62.885C137.013 62.825 136.968 62.755 136.934 62.675C136.901 62.595 136.884 62.5083 136.884 62.415ZM144.233 59.41C144.233 60.0367 144.164 60.58 144.028 61.04C143.894 61.5 143.709 61.8817 143.473 62.185C143.239 62.485 142.963 62.7083 142.643 62.855C142.326 63.0017 141.984 63.075 141.618 63.075C141.251 63.075 140.908 63.0017 140.588 62.855C140.271 62.7083 139.996 62.485 139.763 62.185C139.529 61.8817 139.346 61.5 139.213 61.04C139.079 60.58 139.013 60.0367 139.013 59.41C139.013 58.7833 139.079 58.24 139.213 57.78C139.346 57.3167 139.529 56.935 139.763 56.635C139.996 56.3317 140.271 56.1067 140.588 55.96C140.908 55.8133 141.251 55.74 141.618 55.74C141.984 55.74 142.326 55.8133 142.643 55.96C142.963 56.1067 143.239 56.3317 143.473 56.635C143.709 56.935 143.894 57.3167 144.028 57.78C144.164 58.24 144.233 58.7833 144.233 59.41ZM143.223 59.41C143.223 58.87 143.178 58.4183 143.088 58.055C143.001 57.6917 142.883 57.4 142.733 57.18C142.586 56.9567 142.416 56.7983 142.223 56.705C142.029 56.6117 141.828 56.565 141.618 56.565C141.408 56.565 141.206 56.6117 141.013 56.705C140.819 56.7983 140.648 56.9567 140.498 57.18C140.351 57.4 140.234 57.6917 140.148 58.055C140.061 58.4183 140.018 58.87 140.018 59.41C140.018 59.95 140.061 60.4017 140.148 60.765C140.234 61.1283 140.351 61.42 140.498 61.64C140.648 61.86 140.819 62.0167 141.013 62.11C141.206 62.2033 141.408 62.25 141.618 62.25C141.828 62.25 142.029 62.2033 142.223 62.11C142.416 62.0167 142.586 61.86 142.733 61.64C142.883 61.42 143.001 61.1283 143.088 60.765C143.178 60.4017 143.223 59.95 143.223 59.41ZM150.033 59.41C150.033 60.0367 149.965 60.58 149.828 61.04C149.695 61.5 149.51 61.8817 149.273 62.185C149.04 62.485 148.763 62.7083 148.443 62.855C148.127 63.0017 147.785 63.075 147.418 63.075C147.052 63.075 146.708 63.0017 146.388 62.855C146.072 62.7083 145.797 62.485 145.563 62.185C145.33 61.8817 145.147 61.5 145.013 61.04C144.88 60.58 144.813 60.0367 144.813 59.41C144.813 58.7833 144.88 58.24 145.013 57.78C145.147 57.3167 145.33 56.935 145.563 56.635C145.797 56.3317 146.072 56.1067 146.388 55.96C146.708 55.8133 147.052 55.74 147.418 55.74C147.785 55.74 148.127 55.8133 148.443 55.96C148.763 56.1067 149.04 56.3317 149.273 56.635C149.51 56.935 149.695 57.3167 149.828 57.78C149.965 58.24 150.033 58.7833 150.033 59.41ZM149.023 59.41C149.023 58.87 148.978 58.4183 148.888 58.055C148.802 57.6917 148.683 57.4 148.533 57.18C148.387 56.9567 148.217 56.7983 148.023 56.705C147.83 56.6117 147.628 56.565 147.418 56.565C147.208 56.565 147.007 56.6117 146.813 56.705C146.62 56.7983 146.448 56.9567 146.298 57.18C146.152 57.4 146.035 57.6917 145.948 58.055C145.862 58.4183 145.818 58.87 145.818 59.41C145.818 59.95 145.862 60.4017 145.948 60.765C146.035 61.1283 146.152 61.42 146.298 61.64C146.448 61.86 146.62 62.0167 146.813 62.11C147.007 62.2033 147.208 62.25 147.418 62.25C147.628 62.25 147.83 62.2033 148.023 62.11C148.217 62.0167 148.387 61.86 148.533 61.64C148.683 61.42 148.802 61.1283 148.888 60.765C148.978 60.4017 149.023 59.95 149.023 59.41ZM155.834 59.41C155.834 60.0367 155.766 60.58 155.629 61.04C155.496 61.5 155.311 61.8817 155.074 62.185C154.841 62.485 154.564 62.7083 154.244 62.855C153.928 63.0017 153.586 63.075 153.219 63.075C152.853 63.075 152.509 63.0017 152.189 62.855C151.873 62.7083 151.598 62.485 151.364 62.185C151.131 61.8817 150.948 61.5 150.814 61.04C150.681 60.58 150.614 60.0367 150.614 59.41C150.614 58.7833 150.681 58.24 150.814 57.78C150.948 57.3167 151.131 56.935 151.364 56.635C151.598 56.3317 151.873 56.1067 152.189 55.96C152.509 55.8133 152.853 55.74 153.219 55.74C153.586 55.74 153.928 55.8133 154.244 55.96C154.564 56.1067 154.841 56.3317 155.074 56.635C155.311 56.935 155.496 57.3167 155.629 57.78C155.766 58.24 155.834 58.7833 155.834 59.41ZM154.824 59.41C154.824 58.87 154.779 58.4183 154.689 58.055C154.603 57.6917 154.484 57.4 154.334 57.18C154.188 56.9567 154.018 56.7983 153.824 56.705C153.631 56.6117 153.429 56.565 153.219 56.565C153.009 56.565 152.808 56.6117 152.614 56.705C152.421 56.7983 152.249 56.9567 152.099 57.18C151.953 57.4 151.836 57.6917 151.749 58.055C151.663 58.4183 151.619 58.87 151.619 59.41C151.619 59.95 151.663 60.4017 151.749 60.765C151.836 61.1283 151.953 61.42 152.099 61.64C152.249 61.86 152.421 62.0167 152.614 62.11C152.808 62.2033 153.009 62.25 153.219 62.25C153.429 62.25 153.631 62.2033 153.824 62.11C154.018 62.0167 154.188 61.86 154.334 61.64C154.484 61.42 154.603 61.1283 154.689 60.765C154.779 60.4017 154.824 59.95 154.824 59.41Z" fill="#FD3E3E"/>
<path d="M108 60.23H156.124V60.69H108V60.23Z" fill="#FD3E3E"/>
<path d="M89.98 81.42C90.4867 81.42 90.9267 81.3567 91.3 81.23C91.68 81.1033 91.99 80.93 92.23 80.71C92.4767 80.4833 92.66 80.2167 92.78 79.91C92.9 79.6033 92.96 79.2667 92.96 78.9C92.96 78.1667 92.7167 77.6033 92.23 77.21C91.75 76.8167 91.0133 76.62 90.02 76.62H88.3V81.42H89.98ZM96.9 89H94.47C94.01 89 93.6767 88.82 93.47 88.46L90.43 83.83C90.3167 83.6567 90.19 83.5333 90.05 83.46C89.9167 83.3867 89.7167 83.35 89.45 83.35H88.3V89H85.61V74.54H90.02C91 74.54 91.84 74.6433 92.54 74.85C93.2467 75.05 93.8233 75.3333 94.27 75.7C94.7233 76.0667 95.0567 76.5067 95.27 77.02C95.4833 77.5267 95.59 78.0867 95.59 78.7C95.59 79.1867 95.5167 79.6467 95.37 80.08C95.23 80.5133 95.0233 80.9067 94.75 81.26C94.4833 81.6133 94.15 81.9233 93.75 82.19C93.3567 82.4567 92.9067 82.6667 92.4 82.82C92.5733 82.92 92.7333 83.04 92.88 83.18C93.0267 83.3133 93.16 83.4733 93.28 83.66L96.9 89ZM100.405 86.34C100.685 86.68 100.988 86.92 101.315 87.06C101.648 87.2 102.008 87.27 102.395 87.27C102.768 87.27 103.105 87.2 103.405 87.06C103.705 86.92 103.958 86.7067 104.165 86.42C104.378 86.1333 104.542 85.7733 104.655 85.34C104.768 84.9 104.825 84.3833 104.825 83.79C104.825 83.19 104.775 82.6833 104.675 82.27C104.582 81.85 104.445 81.51 104.265 81.25C104.085 80.99 103.865 80.8 103.605 80.68C103.352 80.56 103.062 80.5 102.735 80.5C102.222 80.5 101.785 80.61 101.425 80.83C101.065 81.0433 100.725 81.3467 100.405 81.74V86.34ZM100.275 80.14C100.695 79.6667 101.172 79.2833 101.705 78.99C102.238 78.6967 102.865 78.55 103.585 78.55C104.145 78.55 104.655 78.6667 105.115 78.9C105.582 79.1333 105.982 79.4733 106.315 79.92C106.655 80.36 106.915 80.9067 107.095 81.56C107.282 82.2067 107.375 82.95 107.375 83.79C107.375 84.5567 107.272 85.2667 107.065 85.92C106.858 86.5733 106.562 87.14 106.175 87.62C105.795 88.1 105.332 88.4767 104.785 88.75C104.245 89.0167 103.638 89.15 102.965 89.15C102.392 89.15 101.902 89.0633 101.495 88.89C101.088 88.71 100.725 88.4633 100.405 88.15V92.35H97.9348V78.74H99.4448C99.7648 78.74 99.9748 78.89 100.075 79.19L100.275 80.14ZM108.942 87.64C108.942 87.4333 108.979 87.2367 109.052 87.05C109.132 86.8633 109.239 86.7033 109.372 86.57C109.505 86.4367 109.665 86.33 109.852 86.25C110.039 86.17 110.239 86.13 110.452 86.13C110.665 86.13 110.862 86.17 111.042 86.25C111.229 86.33 111.389 86.4367 111.522 86.57C111.662 86.7033 111.772 86.8633 111.852 87.05C111.932 87.2367 111.972 87.4333 111.972 87.64C111.972 87.8533 111.932 88.0533 111.852 88.24C111.772 88.42 111.662 88.5767 111.522 88.71C111.389 88.8433 111.229 88.9467 111.042 89.02C110.862 89.1 110.665 89.14 110.452 89.14C110.239 89.14 110.039 89.1 109.852 89.02C109.665 88.9467 109.505 88.8433 109.372 88.71C109.239 88.5767 109.132 88.42 109.052 88.24C108.979 88.0533 108.942 87.8533 108.942 87.64ZM127.501 86.7C127.768 86.7 127.978 86.7767 128.131 86.93C128.291 87.0767 128.371 87.2733 128.371 87.52V89H118.451V88.18C118.451 88.0133 118.485 87.84 118.551 87.66C118.625 87.4733 118.738 87.3067 118.891 87.16L123.281 82.76C123.648 82.3867 123.975 82.03 124.261 81.69C124.555 81.35 124.798 81.0133 124.991 80.68C125.185 80.3467 125.331 80.01 125.431 79.67C125.538 79.3233 125.591 78.96 125.591 78.58C125.591 78.2333 125.541 77.93 125.441 77.67C125.341 77.4033 125.198 77.18 125.011 77C124.831 76.82 124.611 76.6867 124.351 76.6C124.098 76.5067 123.811 76.46 123.491 76.46C123.198 76.46 122.925 76.5033 122.671 76.59C122.425 76.67 122.205 76.7867 122.011 76.94C121.818 77.0867 121.655 77.26 121.521 77.46C121.388 77.66 121.288 77.88 121.221 78.12C121.108 78.4267 120.961 78.63 120.781 78.73C120.601 78.83 120.341 78.8533 120.001 78.8L118.701 78.57C118.801 77.8767 118.995 77.27 119.281 76.75C119.568 76.2233 119.925 75.7867 120.351 75.44C120.785 75.0867 121.278 74.8233 121.831 74.65C122.391 74.47 122.991 74.38 123.631 74.38C124.298 74.38 124.908 74.48 125.461 74.68C126.015 74.8733 126.488 75.15 126.881 75.51C127.275 75.87 127.581 76.3033 127.801 76.81C128.021 77.3167 128.131 77.88 128.131 78.5C128.131 79.0333 128.051 79.5267 127.891 79.98C127.738 80.4333 127.528 80.8667 127.261 81.28C127.001 81.6933 126.695 82.0933 126.341 82.48C125.988 82.8667 125.618 83.26 125.231 83.66L121.971 86.99C122.285 86.8967 122.595 86.8267 122.901 86.78C123.215 86.7267 123.511 86.7 123.791 86.7H127.501ZM140.213 74.54V75.61C140.213 75.93 140.18 76.19 140.113 76.39C140.046 76.5833 139.98 76.7467 139.913 76.88L134.433 88.16C134.32 88.3933 134.16 88.5933 133.953 88.76C133.746 88.92 133.47 89 133.123 89H131.333L136.923 77.95C137.05 77.7233 137.173 77.5167 137.293 77.33C137.42 77.1367 137.56 76.9533 137.713 76.78H130.793C130.64 76.78 130.506 76.7233 130.393 76.61C130.28 76.4967 130.223 76.3633 130.223 76.21V74.54H140.213ZM141.755 87.64C141.755 87.4333 141.791 87.2367 141.865 87.05C141.945 86.8633 142.051 86.7033 142.185 86.57C142.318 86.4367 142.478 86.33 142.665 86.25C142.851 86.17 143.051 86.13 143.265 86.13C143.478 86.13 143.675 86.17 143.855 86.25C144.041 86.33 144.201 86.4367 144.335 86.57C144.475 86.7033 144.585 86.8633 144.665 87.05C144.745 87.2367 144.785 87.4333 144.785 87.64C144.785 87.8533 144.745 88.0533 144.665 88.24C144.585 88.42 144.475 88.5767 144.335 88.71C144.201 88.8433 144.041 88.9467 143.855 89.02C143.675 89.1 143.478 89.14 143.265 89.14C143.051 89.14 142.851 89.1 142.665 89.02C142.478 88.9467 142.318 88.8433 142.185 88.71C142.051 88.5767 141.945 88.42 141.865 88.24C141.791 88.0533 141.755 87.8533 141.755 87.64ZM156.741 81.77C156.741 83.03 156.604 84.1267 156.331 85.06C156.064 85.9867 155.691 86.7533 155.211 87.36C154.737 87.9667 154.174 88.42 153.521 88.72C152.874 89.0133 152.174 89.16 151.421 89.16C150.667 89.16 149.967 89.0133 149.321 88.72C148.681 88.42 148.124 87.9667 147.651 87.36C147.177 86.7533 146.807 85.9867 146.541 85.06C146.274 84.1267 146.141 83.03 146.141 81.77C146.141 80.5033 146.274 79.4067 146.541 78.48C146.807 77.5533 147.177 76.7867 147.651 76.18C148.124 75.5733 148.681 75.1233 149.321 74.83C149.967 74.53 150.667 74.38 151.421 74.38C152.174 74.38 152.874 74.53 153.521 74.83C154.174 75.1233 154.737 75.5733 155.211 76.18C155.691 76.7867 156.064 77.5533 156.331 78.48C156.604 79.4067 156.741 80.5033 156.741 81.77ZM154.191 81.77C154.191 80.7233 154.114 79.8567 153.961 79.17C153.807 78.4833 153.601 77.9367 153.341 77.53C153.087 77.1233 152.794 76.84 152.461 76.68C152.127 76.5133 151.781 76.43 151.421 76.43C151.067 76.43 150.724 76.5133 150.391 76.68C150.064 76.84 149.774 77.1233 149.521 77.53C149.267 77.9367 149.064 78.4833 148.911 79.17C148.764 79.8567 148.691 80.7233 148.691 81.77C148.691 82.8167 148.764 83.6833 148.911 84.37C149.064 85.0567 149.267 85.6033 149.521 86.01C149.774 86.4167 150.064 86.7033 150.391 86.87C150.724 87.03 151.067 87.11 151.421 87.11C151.781 87.11 152.127 87.03 152.461 86.87C152.794 86.7033 153.087 86.4167 153.341 86.01C153.601 85.6033 153.807 85.0567 153.961 84.37C154.114 83.6833 154.191 82.8167 154.191 81.77ZM168.342 81.77C168.342 83.03 168.206 84.1267 167.932 85.06C167.666 85.9867 167.292 86.7533 166.812 87.36C166.339 87.9667 165.776 88.42 165.122 88.72C164.476 89.0133 163.776 89.16 163.022 89.16C162.269 89.16 161.569 89.0133 160.922 88.72C160.282 88.42 159.726 87.9667 159.252 87.36C158.779 86.7533 158.409 85.9867 158.142 85.06C157.876 84.1267 157.742 83.03 157.742 81.77C157.742 80.5033 157.876 79.4067 158.142 78.48C158.409 77.5533 158.779 76.7867 159.252 76.18C159.726 75.5733 160.282 75.1233 160.922 74.83C161.569 74.53 162.269 74.38 163.022 74.38C163.776 74.38 164.476 74.53 165.122 74.83C165.776 75.1233 166.339 75.5733 166.812 76.18C167.292 76.7867 167.666 77.5533 167.932 78.48C168.206 79.4067 168.342 80.5033 168.342 81.77ZM165.792 81.77C165.792 80.7233 165.716 79.8567 165.562 79.17C165.409 78.4833 165.202 77.9367 164.942 77.53C164.689 77.1233 164.396 76.84 164.062 76.68C163.729 76.5133 163.382 76.43 163.022 76.43C162.669 76.43 162.326 76.5133 161.992 76.68C161.666 76.84 161.376 77.1233 161.122 77.53C160.869 77.9367 160.666 78.4833 160.512 79.17C160.366 79.8567 160.292 80.7233 160.292 81.77C160.292 82.8167 160.366 83.6833 160.512 84.37C160.666 85.0567 160.869 85.6033 161.122 86.01C161.376 86.4167 161.666 86.7033 161.992 86.87C162.326 87.03 162.669 87.11 163.022 87.11C163.382 87.11 163.729 87.03 164.062 86.87C164.396 86.7033 164.689 86.4167 164.942 86.01C165.202 85.6033 165.409 85.0567 165.562 84.37C165.716 83.6833 165.792 82.8167 165.792 81.77ZM179.944 81.77C179.944 83.03 179.807 84.1267 179.534 85.06C179.267 85.9867 178.894 86.7533 178.414 87.36C177.94 87.9667 177.377 88.42 176.724 88.72C176.077 89.0133 175.377 89.16 174.624 89.16C173.87 89.16 173.17 89.0133 172.524 88.72C171.884 88.42 171.327 87.9667 170.854 87.36C170.38 86.7533 170.01 85.9867 169.744 85.06C169.477 84.1267 169.344 83.03 169.344 81.77C169.344 80.5033 169.477 79.4067 169.744 78.48C170.01 77.5533 170.38 76.7867 170.854 76.18C171.327 75.5733 171.884 75.1233 172.524 74.83C173.17 74.53 173.87 74.38 174.624 74.38C175.377 74.38 176.077 74.53 176.724 74.83C177.377 75.1233 177.94 75.5733 178.414 76.18C178.894 76.7867 179.267 77.5533 179.534 78.48C179.807 79.4067 179.944 80.5033 179.944 81.77ZM177.394 81.77C177.394 80.7233 177.317 79.8567 177.164 79.17C177.01 78.4833 176.804 77.9367 176.544 77.53C176.29 77.1233 175.997 76.84 175.664 76.68C175.33 76.5133 174.984 76.43 174.624 76.43C174.27 76.43 173.927 76.5133 173.594 76.68C173.267 76.84 172.977 77.1233 172.724 77.53C172.47 77.9367 172.267 78.4833 172.114 79.17C171.967 79.8567 171.894 80.7233 171.894 81.77C171.894 82.8167 171.967 83.6833 172.114 84.37C172.267 85.0567 172.47 85.6033 172.724 86.01C172.977 86.4167 173.267 86.7033 173.594 86.87C173.927 87.03 174.27 87.11 174.624 87.11C174.984 87.11 175.33 87.03 175.664 86.87C175.997 86.7033 176.29 86.4167 176.544 86.01C176.804 85.6033 177.01 85.0567 177.164 84.37C177.317 83.6833 177.394 82.8167 177.394 81.77Z" fill="#303030"/>
<rect x="42" y="569.957" width="180" height="36" rx="18" fill="#FC9300"/>
<path d="M89.8093 591.571C90.1873 591.571 90.5093 591.527 90.7753 591.438C91.046 591.349 91.2653 591.228 91.4333 591.074C91.606 590.92 91.732 590.738 91.8113 590.528C91.8906 590.313 91.9303 590.08 91.9303 589.828C91.9303 589.329 91.7576 588.937 91.4123 588.652C91.067 588.363 90.5326 588.218 89.8093 588.218H87.7093V591.571H89.8093ZM87.7093 583.871V587.161H89.4243C90.157 587.161 90.7006 587.014 91.0553 586.72C91.4146 586.421 91.5943 586.02 91.5943 585.516C91.5943 584.942 91.424 584.524 91.0833 584.263C90.7426 584.002 90.213 583.871 89.4943 583.871H87.7093ZM89.4943 582.702C90.1243 582.702 90.6633 582.763 91.1113 582.884C91.564 583.005 91.935 583.18 92.2243 583.409C92.5136 583.638 92.726 583.915 92.8613 584.242C93.0013 584.564 93.0713 584.93 93.0713 585.341C93.0713 585.584 93.034 585.817 92.9593 586.041C92.8846 586.265 92.7703 586.475 92.6163 586.671C92.4623 586.862 92.2686 587.035 92.0353 587.189C91.802 587.343 91.5266 587.471 91.2093 587.574C92.67 587.863 93.4003 588.626 93.4003 589.863C93.4003 590.292 93.321 590.684 93.1623 591.039C93.0036 591.389 92.7726 591.692 92.4693 591.949C92.166 592.206 91.7926 592.404 91.3493 592.544C90.906 592.684 90.402 592.754 89.8373 592.754H86.2183V582.702H89.4943ZM100.808 585.642V592.754H99.9894C99.8027 592.754 99.6814 592.663 99.6254 592.481L99.5274 591.767C99.3734 591.93 99.2124 592.08 99.0444 592.215C98.8764 592.35 98.6967 592.467 98.5054 592.565C98.314 592.658 98.111 592.731 97.8964 592.782C97.6817 592.838 97.4507 592.866 97.2034 592.866C96.8114 592.866 96.466 592.801 96.1674 592.67C95.8734 592.539 95.626 592.357 95.4254 592.124C95.2247 591.886 95.073 591.601 94.9704 591.27C94.8677 590.939 94.8164 590.572 94.8164 590.171V585.642H96.1884V590.171C96.1884 590.68 96.305 591.076 96.5384 591.361C96.7717 591.641 97.1287 591.781 97.6094 591.781C97.9594 591.781 98.286 591.699 98.5894 591.536C98.8927 591.368 99.1774 591.139 99.4434 590.85V585.642H100.808ZM106.536 589.597C105.98 589.616 105.509 589.66 105.122 589.73C104.734 589.795 104.419 589.884 104.177 589.996C103.934 590.108 103.759 590.241 103.652 590.395C103.544 590.544 103.491 590.712 103.491 590.899C103.491 591.076 103.519 591.23 103.575 591.361C103.635 591.487 103.715 591.592 103.813 591.676C103.915 591.755 104.034 591.814 104.17 591.851C104.305 591.888 104.452 591.907 104.611 591.907C104.821 591.907 105.012 591.886 105.185 591.844C105.362 591.802 105.528 591.744 105.682 591.669C105.836 591.59 105.983 591.494 106.123 591.382C106.263 591.27 106.4 591.142 106.536 590.997V589.597ZM102.532 586.636C102.928 586.258 103.358 585.976 103.82 585.789C104.286 585.602 104.797 585.509 105.353 585.509C105.759 585.509 106.118 585.577 106.431 585.712C106.743 585.843 107.007 586.027 107.222 586.265C107.436 586.503 107.597 586.788 107.705 587.119C107.817 587.45 107.873 587.817 107.873 588.218V592.754H107.264C107.128 592.754 107.026 592.733 106.956 592.691C106.886 592.644 106.83 592.56 106.788 592.439L106.641 591.816C106.459 591.984 106.279 592.133 106.102 592.264C105.924 592.39 105.738 592.5 105.542 592.593C105.35 592.682 105.145 592.749 104.926 592.796C104.706 592.843 104.464 592.866 104.198 592.866C103.918 592.866 103.654 592.829 103.407 592.754C103.164 592.675 102.952 592.556 102.77 592.397C102.588 592.238 102.443 592.04 102.336 591.802C102.233 591.564 102.182 591.286 102.182 590.969C102.182 590.689 102.256 590.421 102.406 590.164C102.56 589.903 102.807 589.669 103.148 589.464C103.493 589.259 103.941 589.091 104.492 588.96C105.047 588.829 105.728 588.755 106.536 588.736V588.218C106.536 587.681 106.421 587.28 106.193 587.014C105.964 586.748 105.628 586.615 105.185 586.615C104.886 586.615 104.634 586.652 104.429 586.727C104.228 586.802 104.053 586.886 103.904 586.979C103.759 587.068 103.631 587.149 103.519 587.224C103.411 587.299 103.299 587.336 103.183 587.336C103.089 587.336 103.008 587.31 102.938 587.259C102.872 587.208 102.819 587.147 102.777 587.077L102.532 586.636ZM111.83 592.866C111.256 592.866 110.813 592.705 110.5 592.383C110.192 592.061 110.038 591.601 110.038 591.004V586.748H109.212C109.133 586.748 109.065 586.725 109.009 586.678C108.958 586.627 108.932 586.552 108.932 586.454V585.901L110.087 585.74L110.395 583.619C110.414 583.54 110.449 583.479 110.5 583.437C110.556 583.39 110.626 583.367 110.71 583.367H111.403V585.754H113.419V586.748H111.403V590.913C111.403 591.193 111.471 591.403 111.606 591.543C111.746 591.678 111.924 591.746 112.138 591.746C112.264 591.746 112.372 591.73 112.46 591.697C112.554 591.664 112.633 591.629 112.698 591.592C112.764 591.55 112.82 591.513 112.866 591.48C112.913 591.447 112.955 591.431 112.992 591.431C113.039 591.431 113.074 591.443 113.097 591.466C113.125 591.485 113.153 591.517 113.181 591.564L113.587 592.222C113.363 592.427 113.097 592.586 112.789 592.698C112.481 592.81 112.162 592.866 111.83 592.866ZM122.418 591.557C122.819 591.557 123.178 591.489 123.496 591.354C123.813 591.219 124.081 591.03 124.301 590.787C124.52 590.54 124.688 590.248 124.805 589.912C124.921 589.571 124.98 589.196 124.98 588.785V582.702H126.464V588.785C126.464 589.373 126.37 589.917 126.184 590.416C125.997 590.915 125.729 591.347 125.379 591.711C125.029 592.075 124.604 592.36 124.105 592.565C123.605 592.77 123.043 592.873 122.418 592.873C121.792 592.873 121.23 592.77 120.731 592.565C120.231 592.36 119.807 592.075 119.457 591.711C119.107 591.347 118.838 590.915 118.652 590.416C118.465 589.917 118.372 589.373 118.372 588.785V582.702H119.863V588.778C119.863 589.189 119.919 589.564 120.031 589.905C120.147 590.246 120.315 590.54 120.535 590.787C120.754 591.03 121.022 591.219 121.34 591.354C121.657 591.489 122.016 591.557 122.418 591.557ZM129.602 586.629C129.756 586.466 129.917 586.316 130.085 586.181C130.253 586.046 130.43 585.931 130.617 585.838C130.808 585.74 131.011 585.665 131.226 585.614C131.445 585.558 131.679 585.53 131.926 585.53C132.318 585.53 132.661 585.595 132.955 585.726C133.254 585.857 133.503 586.041 133.704 586.279C133.905 586.512 134.056 586.795 134.159 587.126C134.262 587.457 134.313 587.824 134.313 588.225V592.754H132.941V588.225C132.941 587.716 132.824 587.322 132.591 587.042C132.358 586.757 132.001 586.615 131.52 586.615C131.17 586.615 130.841 586.699 130.533 586.867C130.23 587.03 129.947 587.254 129.686 587.539V592.754H128.321V585.642H129.14C129.331 585.642 129.45 585.733 129.497 585.915L129.602 586.629ZM140.74 587.364C140.516 587.07 140.273 586.865 140.012 586.748C139.755 586.631 139.466 586.573 139.144 586.573C138.519 586.573 138.033 586.799 137.688 587.252C137.347 587.7 137.177 588.356 137.177 589.219C137.177 589.672 137.214 590.059 137.289 590.381C137.368 590.698 137.48 590.96 137.625 591.165C137.774 591.366 137.956 591.515 138.171 591.613C138.386 591.706 138.628 591.753 138.899 591.753C139.296 591.753 139.639 591.664 139.928 591.487C140.217 591.31 140.488 591.06 140.74 590.738V587.364ZM142.112 582.422V592.754H141.286C141.095 592.754 140.976 592.663 140.929 592.481L140.81 591.662C140.507 592.021 140.161 592.311 139.774 592.53C139.391 592.745 138.948 592.852 138.444 592.852C138.038 592.852 137.669 592.773 137.338 592.614C137.011 592.455 136.731 592.224 136.498 591.921C136.265 591.613 136.085 591.233 135.959 590.78C135.833 590.327 135.77 589.807 135.77 589.219C135.77 588.692 135.84 588.202 135.98 587.749C136.12 587.296 136.323 586.904 136.589 586.573C136.855 586.242 137.177 585.983 137.555 585.796C137.933 585.605 138.36 585.509 138.836 585.509C139.265 585.509 139.629 585.579 139.928 585.719C140.231 585.859 140.502 586.057 140.74 586.314V582.422H142.112ZM147.838 589.597C147.283 589.616 146.812 589.66 146.424 589.73C146.037 589.795 145.722 589.884 145.479 589.996C145.237 590.108 145.062 590.241 144.954 590.395C144.847 590.544 144.793 590.712 144.793 590.899C144.793 591.076 144.821 591.23 144.877 591.361C144.938 591.487 145.017 591.592 145.115 591.676C145.218 591.755 145.337 591.814 145.472 591.851C145.608 591.888 145.755 591.907 145.913 591.907C146.123 591.907 146.315 591.886 146.487 591.844C146.665 591.802 146.83 591.744 146.984 591.669C147.138 591.59 147.285 591.494 147.425 591.382C147.565 591.27 147.703 591.142 147.838 590.997V589.597ZM143.834 586.636C144.231 586.258 144.66 585.976 145.122 585.789C145.589 585.602 146.1 585.509 146.655 585.509C147.061 585.509 147.421 585.577 147.733 585.712C148.046 585.843 148.31 586.027 148.524 586.265C148.739 586.503 148.9 586.788 149.007 587.119C149.119 587.45 149.175 587.817 149.175 588.218V592.754H148.566C148.431 592.754 148.328 592.733 148.258 592.691C148.188 592.644 148.132 592.56 148.09 592.439L147.943 591.816C147.761 591.984 147.582 592.133 147.404 592.264C147.227 592.39 147.04 592.5 146.844 592.593C146.653 592.682 146.448 592.749 146.228 592.796C146.009 592.843 145.766 592.866 145.5 592.866C145.22 592.866 144.957 592.829 144.709 592.754C144.467 592.675 144.254 592.556 144.072 592.397C143.89 592.238 143.746 592.04 143.638 591.802C143.536 591.564 143.484 591.286 143.484 590.969C143.484 590.689 143.559 590.421 143.708 590.164C143.862 589.903 144.11 589.669 144.45 589.464C144.796 589.259 145.244 589.091 145.794 588.96C146.35 588.829 147.031 588.755 147.838 588.736V588.218C147.838 587.681 147.724 587.28 147.495 587.014C147.267 586.748 146.931 586.615 146.487 586.615C146.189 586.615 145.937 586.652 145.731 586.727C145.531 586.802 145.356 586.886 145.206 586.979C145.062 587.068 144.933 587.149 144.821 587.224C144.714 587.299 144.602 587.336 144.485 587.336C144.392 587.336 144.31 587.31 144.24 587.259C144.175 587.208 144.121 587.147 144.079 587.077L143.834 586.636ZM152.284 586.629C152.438 586.466 152.599 586.316 152.767 586.181C152.935 586.046 153.112 585.931 153.299 585.838C153.49 585.74 153.693 585.665 153.908 585.614C154.127 585.558 154.36 585.53 154.608 585.53C155 585.53 155.343 585.595 155.637 585.726C155.935 585.857 156.185 586.041 156.386 586.279C156.586 586.512 156.738 586.795 156.841 587.126C156.943 587.457 156.995 587.824 156.995 588.225V592.754H155.623V588.225C155.623 587.716 155.506 587.322 155.273 587.042C155.039 586.757 154.682 586.615 154.202 586.615C153.852 586.615 153.523 586.699 153.215 586.867C152.911 587.03 152.629 587.254 152.368 587.539V592.754H151.003V585.642H151.822C152.013 585.642 152.132 585.733 152.179 585.915L152.284 586.629ZM161.336 589.205C161.578 589.205 161.791 589.172 161.973 589.107C162.159 589.042 162.313 588.951 162.435 588.834C162.561 588.713 162.654 588.568 162.715 588.4C162.78 588.232 162.813 588.048 162.813 587.847C162.813 587.436 162.687 587.11 162.435 586.867C162.187 586.62 161.821 586.496 161.336 586.496C160.855 586.496 160.489 586.62 160.237 586.867C159.989 587.11 159.866 587.436 159.866 587.847C159.866 588.048 159.896 588.232 159.957 588.4C160.022 588.563 160.115 588.706 160.237 588.827C160.363 588.944 160.517 589.037 160.699 589.107C160.885 589.172 161.098 589.205 161.336 589.205ZM163.513 593.125C163.513 592.957 163.466 592.824 163.373 592.726C163.279 592.623 163.151 592.544 162.988 592.488C162.829 592.427 162.642 592.385 162.428 592.362C162.213 592.334 161.987 592.313 161.749 592.299C161.515 592.285 161.275 592.273 161.028 592.264C160.78 592.25 160.542 592.227 160.314 592.194C160.071 592.315 159.87 592.462 159.712 592.635C159.558 592.808 159.481 593.011 159.481 593.244C159.481 593.393 159.518 593.533 159.593 593.664C159.672 593.795 159.791 593.907 159.95 594C160.113 594.098 160.316 594.173 160.559 594.224C160.806 594.28 161.1 594.308 161.441 594.308C161.777 594.308 162.073 594.278 162.33 594.217C162.586 594.161 162.801 594.079 162.974 593.972C163.151 593.869 163.284 593.746 163.373 593.601C163.466 593.456 163.513 593.298 163.513 593.125ZM164.899 585.908V586.419C164.899 586.587 164.794 586.692 164.584 586.734L163.821 586.846C163.886 586.991 163.937 587.145 163.975 587.308C164.012 587.467 164.031 587.635 164.031 587.812C164.031 588.162 163.963 588.479 163.828 588.764C163.692 589.044 163.506 589.284 163.268 589.485C163.03 589.686 162.745 589.84 162.414 589.947C162.087 590.054 161.728 590.108 161.336 590.108C161.014 590.108 160.713 590.073 160.433 590.003C160.293 590.087 160.185 590.18 160.111 590.283C160.041 590.381 160.006 590.479 160.006 590.577C160.006 590.74 160.073 590.862 160.209 590.941C160.349 591.02 160.528 591.079 160.748 591.116C160.972 591.149 161.226 591.17 161.511 591.179C161.8 591.188 162.092 591.205 162.386 591.228C162.684 591.247 162.976 591.284 163.261 591.34C163.55 591.391 163.804 591.478 164.024 591.599C164.248 591.716 164.427 591.879 164.563 592.089C164.703 592.294 164.773 592.563 164.773 592.894C164.773 593.202 164.696 593.501 164.542 593.79C164.392 594.079 164.173 594.336 163.884 594.56C163.594 594.784 163.242 594.964 162.827 595.099C162.411 595.234 161.94 595.302 161.413 595.302C160.885 595.302 160.426 595.251 160.034 595.148C159.646 595.045 159.322 594.908 159.061 594.735C158.804 594.562 158.61 594.362 158.48 594.133C158.354 593.904 158.291 593.666 158.291 593.419C158.291 593.074 158.398 592.782 158.613 592.544C158.827 592.301 159.124 592.112 159.502 591.977C159.296 591.884 159.133 591.758 159.012 591.599C158.89 591.436 158.83 591.221 158.83 590.955C158.83 590.852 158.848 590.747 158.886 590.64C158.923 590.528 158.979 590.418 159.054 590.311C159.133 590.199 159.229 590.094 159.341 589.996C159.457 589.898 159.59 589.809 159.74 589.73C159.39 589.534 159.114 589.275 158.914 588.953C158.713 588.626 158.613 588.246 158.613 587.812C158.613 587.462 158.68 587.147 158.816 586.867C158.951 586.587 159.138 586.347 159.376 586.146C159.618 585.945 159.905 585.791 160.237 585.684C160.573 585.577 160.939 585.523 161.336 585.523C161.952 585.523 162.481 585.651 162.925 585.908H164.899ZM169.973 589.597C169.418 589.616 168.947 589.66 168.559 589.73C168.172 589.795 167.857 589.884 167.614 589.996C167.372 590.108 167.197 590.241 167.089 590.395C166.982 590.544 166.928 590.712 166.928 590.899C166.928 591.076 166.956 591.23 167.012 591.361C167.073 591.487 167.152 591.592 167.25 591.676C167.353 591.755 167.472 591.814 167.607 591.851C167.743 591.888 167.89 591.907 168.048 591.907C168.258 591.907 168.45 591.886 168.622 591.844C168.8 591.802 168.965 591.744 169.119 591.669C169.273 591.59 169.42 591.494 169.56 591.382C169.7 591.27 169.838 591.142 169.973 590.997V589.597ZM165.969 586.636C166.366 586.258 166.795 585.976 167.257 585.789C167.724 585.602 168.235 585.509 168.79 585.509C169.196 585.509 169.556 585.577 169.868 585.712C170.181 585.843 170.445 586.027 170.659 586.265C170.874 586.503 171.035 586.788 171.142 587.119C171.254 587.45 171.31 587.817 171.31 588.218V592.754H170.701C170.566 592.754 170.463 592.733 170.393 592.691C170.323 592.644 170.267 592.56 170.225 592.439L170.078 591.816C169.896 591.984 169.717 592.133 169.539 592.264C169.362 592.39 169.175 592.5 168.979 592.593C168.788 592.682 168.583 592.749 168.363 592.796C168.144 592.843 167.901 592.866 167.635 592.866C167.355 592.866 167.092 592.829 166.844 592.754C166.602 592.675 166.389 592.556 166.207 592.397C166.025 592.238 165.881 592.04 165.773 591.802C165.671 591.564 165.619 591.286 165.619 590.969C165.619 590.689 165.694 590.421 165.843 590.164C165.997 589.903 166.245 589.669 166.585 589.464C166.931 589.259 167.379 589.091 167.929 588.96C168.485 588.829 169.166 588.755 169.973 588.736V588.218C169.973 587.681 169.859 587.28 169.63 587.014C169.402 586.748 169.066 586.615 168.622 586.615C168.324 586.615 168.072 586.652 167.866 586.727C167.666 586.802 167.491 586.886 167.341 586.979C167.197 587.068 167.068 587.149 166.956 587.224C166.849 587.299 166.737 587.336 166.62 587.336C166.527 587.336 166.445 587.31 166.375 587.259C166.31 587.208 166.256 587.147 166.214 587.077L165.969 586.636ZM174.419 586.629C174.573 586.466 174.734 586.316 174.902 586.181C175.07 586.046 175.247 585.931 175.434 585.838C175.625 585.74 175.828 585.665 176.043 585.614C176.262 585.558 176.495 585.53 176.743 585.53C177.135 585.53 177.478 585.595 177.772 585.726C178.07 585.857 178.32 586.041 178.521 586.279C178.721 586.512 178.873 586.795 178.976 587.126C179.078 587.457 179.13 587.824 179.13 588.225V592.754H177.758V588.225C177.758 587.716 177.641 587.322 177.408 587.042C177.174 586.757 176.817 586.615 176.337 586.615C175.987 586.615 175.658 586.699 175.35 586.867C175.046 587.03 174.764 587.254 174.503 587.539V592.754H173.138V585.642H173.957C174.148 585.642 174.267 585.733 174.314 585.915L174.419 586.629Z" fill="white"/>
<path d="M51.0956 180.367C55.9277 180.367 59.9071 184.346 59.9071 189.178C59.9071 194.046 55.9277 197.99 51.0956 197.99C46.2281 197.99 42.2842 194.046 42.2842 189.178C42.2842 184.346 46.2281 180.367 51.0956 180.367ZM51.0956 182.072C47.1518 182.072 43.9897 185.27 43.9897 189.178C43.9897 193.122 47.1518 196.284 51.0956 196.284C55.0039 196.284 58.2016 193.122 58.2016 189.178C58.2016 185.27 55.0039 182.072 51.0956 182.072ZM56.0698 186.727C56.212 186.869 56.212 187.153 56.0698 187.331L49.9232 193.406C49.7455 193.584 49.4968 193.584 49.3192 193.406L46.0859 190.138C45.9438 189.995 45.9438 189.711 46.0859 189.534L46.9031 188.752C47.0808 188.574 47.3295 188.574 47.5071 188.752L49.6389 190.884L54.6486 185.91C54.8263 185.732 55.1105 185.732 55.2526 185.91L56.0698 186.727Z" fill="#45B516"/>
<path d="M72.5239 184.465V192.996H71.4106V184.465H72.5239ZM75.2661 184.465V185.391H68.6743V184.465H75.2661ZM78.4126 193.113C77.9712 193.113 77.5708 193.039 77.2114 192.891C76.856 192.738 76.5493 192.525 76.2915 192.252C76.0376 191.979 75.8423 191.654 75.7056 191.279C75.5688 190.904 75.5005 190.494 75.5005 190.049V189.803C75.5005 189.287 75.5767 188.828 75.729 188.426C75.8813 188.02 76.0884 187.676 76.3501 187.395C76.6118 187.113 76.9087 186.9 77.2407 186.756C77.5728 186.611 77.9165 186.539 78.272 186.539C78.7251 186.539 79.1157 186.617 79.4438 186.773C79.7759 186.93 80.0474 187.148 80.2583 187.43C80.4692 187.707 80.6255 188.035 80.7271 188.414C80.8286 188.789 80.8794 189.199 80.8794 189.645V190.131H76.145V189.246H79.7954V189.164C79.7798 188.883 79.7212 188.609 79.6196 188.344C79.522 188.078 79.3657 187.859 79.1509 187.688C78.936 187.516 78.6431 187.43 78.272 187.43C78.0259 187.43 77.7993 187.482 77.5923 187.588C77.3853 187.689 77.2075 187.842 77.0591 188.045C76.9106 188.248 76.7954 188.496 76.7134 188.789C76.6313 189.082 76.5903 189.42 76.5903 189.803V190.049C76.5903 190.35 76.6313 190.633 76.7134 190.898C76.7993 191.16 76.9224 191.391 77.0825 191.59C77.2466 191.789 77.4438 191.945 77.6743 192.059C77.9087 192.172 78.1743 192.229 78.4712 192.229C78.854 192.229 79.1782 192.15 79.4438 191.994C79.7095 191.838 79.9419 191.629 80.1411 191.367L80.7974 191.889C80.6606 192.096 80.4868 192.293 80.2759 192.48C80.0649 192.668 79.8052 192.82 79.4966 192.938C79.1919 193.055 78.8306 193.113 78.4126 193.113ZM83.2231 187.916V192.996H82.1333V186.656H83.1646L83.2231 187.916ZM83.0005 189.586L82.4966 189.568C82.5005 189.135 82.5571 188.734 82.6665 188.367C82.7759 187.996 82.938 187.674 83.1528 187.4C83.3677 187.127 83.6353 186.916 83.9556 186.768C84.2759 186.615 84.647 186.539 85.0688 186.539C85.3657 186.539 85.6392 186.582 85.8892 186.668C86.1392 186.75 86.356 186.881 86.5396 187.061C86.7231 187.24 86.8657 187.471 86.9673 187.752C87.0688 188.033 87.1196 188.373 87.1196 188.771V192.996H86.0356V188.824C86.0356 188.492 85.979 188.227 85.8657 188.027C85.7563 187.828 85.6001 187.684 85.397 187.594C85.1938 187.5 84.9556 187.453 84.6821 187.453C84.3618 187.453 84.0942 187.51 83.8794 187.623C83.6646 187.736 83.4927 187.893 83.3638 188.092C83.2349 188.291 83.1411 188.52 83.0825 188.777C83.0278 189.031 83.0005 189.301 83.0005 189.586ZM87.1079 188.988L86.3813 189.211C86.3853 188.863 86.4419 188.529 86.5513 188.209C86.6646 187.889 86.8267 187.604 87.0376 187.354C87.2524 187.104 87.5161 186.906 87.8286 186.762C88.1411 186.613 88.4985 186.539 88.9009 186.539C89.2407 186.539 89.5415 186.584 89.8032 186.674C90.0688 186.764 90.2915 186.902 90.4712 187.09C90.6548 187.273 90.7935 187.51 90.8872 187.799C90.981 188.088 91.0278 188.432 91.0278 188.83V192.996H89.938V188.818C89.938 188.463 89.8813 188.188 89.7681 187.992C89.6587 187.793 89.5024 187.654 89.2993 187.576C89.1001 187.494 88.8618 187.453 88.5845 187.453C88.3462 187.453 88.1353 187.494 87.9517 187.576C87.7681 187.658 87.6138 187.771 87.4888 187.916C87.3638 188.057 87.2681 188.219 87.2017 188.402C87.1392 188.586 87.1079 188.781 87.1079 188.988ZM96.4067 191.912V188.648C96.4067 188.398 96.356 188.182 96.2544 187.998C96.1567 187.811 96.0083 187.666 95.8091 187.564C95.6099 187.463 95.3638 187.412 95.0708 187.412C94.7974 187.412 94.5571 187.459 94.3501 187.553C94.147 187.646 93.9868 187.77 93.8696 187.922C93.7563 188.074 93.6997 188.238 93.6997 188.414H92.6157C92.6157 188.188 92.6743 187.963 92.7915 187.74C92.9087 187.518 93.0767 187.316 93.2954 187.137C93.5181 186.953 93.7837 186.809 94.0923 186.703C94.4048 186.594 94.7524 186.539 95.1353 186.539C95.5962 186.539 96.0024 186.617 96.354 186.773C96.7095 186.93 96.9868 187.166 97.186 187.482C97.3892 187.795 97.4907 188.188 97.4907 188.66V191.613C97.4907 191.824 97.5083 192.049 97.5435 192.287C97.5825 192.525 97.6392 192.73 97.7134 192.902V192.996H96.5825C96.5278 192.871 96.4849 192.705 96.4536 192.498C96.4224 192.287 96.4067 192.092 96.4067 191.912ZM96.5942 189.152L96.606 189.914H95.5103C95.2017 189.914 94.9263 189.939 94.6841 189.99C94.4419 190.037 94.2388 190.109 94.0747 190.207C93.9106 190.305 93.7856 190.428 93.6997 190.576C93.6138 190.721 93.5708 190.891 93.5708 191.086C93.5708 191.285 93.6157 191.467 93.7056 191.631C93.7954 191.795 93.9302 191.926 94.1099 192.023C94.2935 192.117 94.5181 192.164 94.7837 192.164C95.1157 192.164 95.4087 192.094 95.6626 191.953C95.9165 191.812 96.1177 191.641 96.2661 191.438C96.4185 191.234 96.5005 191.037 96.5122 190.846L96.9751 191.367C96.9478 191.531 96.8735 191.713 96.7524 191.912C96.6313 192.111 96.4692 192.303 96.2661 192.486C96.0669 192.666 95.8286 192.816 95.5513 192.938C95.2778 193.055 94.9692 193.113 94.6255 193.113C94.1958 193.113 93.8188 193.029 93.4946 192.861C93.1743 192.693 92.9243 192.469 92.7446 192.188C92.5688 191.902 92.481 191.584 92.481 191.232C92.481 190.893 92.5474 190.594 92.6802 190.336C92.813 190.074 93.0044 189.857 93.2544 189.686C93.5044 189.51 93.8052 189.377 94.1567 189.287C94.5083 189.197 94.9009 189.152 95.3345 189.152H96.5942ZM104.1 192.018L105.834 186.656H106.942L104.663 192.996H103.936L104.1 192.018ZM102.653 186.656L104.44 192.047L104.563 192.996H103.836L101.54 186.656H102.653ZM109.163 186.656V192.996H108.073V186.656H109.163ZM107.991 184.975C107.991 184.799 108.043 184.65 108.149 184.529C108.258 184.408 108.418 184.348 108.629 184.348C108.836 184.348 108.995 184.408 109.104 184.529C109.217 184.65 109.274 184.799 109.274 184.975C109.274 185.143 109.217 185.287 109.104 185.408C108.995 185.525 108.836 185.584 108.629 185.584C108.418 185.584 108.258 185.525 108.149 185.408C108.043 185.287 107.991 185.143 107.991 184.975ZM114.899 191.766V183.996H115.989V192.996H114.993L114.899 191.766ZM110.633 189.896V189.773C110.633 189.289 110.692 188.85 110.809 188.455C110.93 188.057 111.1 187.715 111.319 187.43C111.542 187.145 111.805 186.926 112.11 186.773C112.418 186.617 112.762 186.539 113.141 186.539C113.54 186.539 113.887 186.609 114.184 186.75C114.485 186.887 114.739 187.088 114.946 187.354C115.157 187.615 115.323 187.932 115.444 188.303C115.565 188.674 115.649 189.094 115.696 189.562V190.102C115.653 190.566 115.569 190.984 115.444 191.355C115.323 191.727 115.157 192.043 114.946 192.305C114.739 192.566 114.485 192.768 114.184 192.908C113.883 193.045 113.532 193.113 113.129 193.113C112.758 193.113 112.418 193.033 112.11 192.873C111.805 192.713 111.542 192.488 111.319 192.199C111.1 191.91 110.93 191.57 110.809 191.18C110.692 190.785 110.633 190.357 110.633 189.896ZM111.723 189.773V189.896C111.723 190.213 111.754 190.51 111.817 190.787C111.883 191.064 111.985 191.309 112.122 191.52C112.258 191.73 112.432 191.896 112.643 192.018C112.854 192.135 113.106 192.193 113.399 192.193C113.758 192.193 114.053 192.117 114.284 191.965C114.518 191.812 114.706 191.611 114.846 191.361C114.987 191.111 115.096 190.84 115.174 190.547V189.135C115.127 188.92 115.059 188.713 114.969 188.514C114.883 188.311 114.77 188.131 114.629 187.975C114.493 187.814 114.323 187.688 114.12 187.594C113.92 187.5 113.684 187.453 113.411 187.453C113.114 187.453 112.858 187.516 112.643 187.641C112.432 187.762 112.258 187.93 112.122 188.145C111.985 188.355 111.883 188.602 111.817 188.883C111.754 189.16 111.723 189.457 111.723 189.773ZM120.307 193.113C119.866 193.113 119.465 193.039 119.106 192.891C118.75 192.738 118.444 192.525 118.186 192.252C117.932 191.979 117.737 191.654 117.6 191.279C117.463 190.904 117.395 190.494 117.395 190.049V189.803C117.395 189.287 117.471 188.828 117.624 188.426C117.776 188.02 117.983 187.676 118.245 187.395C118.506 187.113 118.803 186.9 119.135 186.756C119.467 186.611 119.811 186.539 120.167 186.539C120.62 186.539 121.01 186.617 121.338 186.773C121.67 186.93 121.942 187.148 122.153 187.43C122.364 187.707 122.52 188.035 122.622 188.414C122.723 188.789 122.774 189.199 122.774 189.645V190.131H118.04V189.246H121.69V189.164C121.674 188.883 121.616 188.609 121.514 188.344C121.417 188.078 121.26 187.859 121.045 187.688C120.831 187.516 120.538 187.43 120.167 187.43C119.92 187.43 119.694 187.482 119.487 187.588C119.28 187.689 119.102 187.842 118.954 188.045C118.805 188.248 118.69 188.496 118.608 188.789C118.526 189.082 118.485 189.42 118.485 189.803V190.049C118.485 190.35 118.526 190.633 118.608 190.898C118.694 191.16 118.817 191.391 118.977 191.59C119.141 191.789 119.338 191.945 119.569 192.059C119.803 192.172 120.069 192.229 120.366 192.229C120.749 192.229 121.073 192.15 121.338 191.994C121.604 191.838 121.836 191.629 122.036 191.367L122.692 191.889C122.555 192.096 122.381 192.293 122.17 192.48C121.959 192.668 121.7 192.82 121.391 192.938C121.086 193.055 120.725 193.113 120.307 193.113ZM123.752 189.896V189.762C123.752 189.305 123.819 188.881 123.952 188.49C124.084 188.096 124.276 187.754 124.526 187.465C124.776 187.172 125.079 186.945 125.434 186.785C125.79 186.621 126.188 186.539 126.629 186.539C127.075 186.539 127.475 186.621 127.831 186.785C128.19 186.945 128.495 187.172 128.745 187.465C128.999 187.754 129.192 188.096 129.325 188.49C129.458 188.881 129.524 189.305 129.524 189.762V189.896C129.524 190.354 129.458 190.777 129.325 191.168C129.192 191.559 128.999 191.9 128.745 192.193C128.495 192.482 128.192 192.709 127.836 192.873C127.485 193.033 127.086 193.113 126.641 193.113C126.196 193.113 125.795 193.033 125.44 192.873C125.084 192.709 124.78 192.482 124.526 192.193C124.276 191.9 124.084 191.559 123.952 191.168C123.819 190.777 123.752 190.354 123.752 189.896ZM124.836 189.762V189.896C124.836 190.213 124.874 190.512 124.948 190.793C125.022 191.07 125.133 191.316 125.282 191.531C125.434 191.746 125.624 191.916 125.85 192.041C126.077 192.162 126.34 192.223 126.641 192.223C126.938 192.223 127.198 192.162 127.42 192.041C127.647 191.916 127.834 191.746 127.983 191.531C128.131 191.316 128.243 191.07 128.317 190.793C128.395 190.512 128.434 190.213 128.434 189.896V189.762C128.434 189.449 128.395 189.154 128.317 188.877C128.243 188.596 128.129 188.348 127.977 188.133C127.829 187.914 127.641 187.742 127.415 187.617C127.192 187.492 126.93 187.43 126.629 187.43C126.333 187.43 126.071 187.492 125.844 187.617C125.622 187.742 125.434 187.914 125.282 188.133C125.133 188.348 125.022 188.596 124.948 188.877C124.874 189.154 124.836 189.449 124.836 189.762ZM137.551 191.314C137.551 191.158 137.516 191.014 137.446 190.881C137.379 190.744 137.241 190.621 137.03 190.512C136.823 190.398 136.51 190.301 136.092 190.219C135.741 190.145 135.422 190.057 135.137 189.955C134.856 189.854 134.616 189.73 134.417 189.586C134.221 189.441 134.071 189.271 133.965 189.076C133.86 188.881 133.807 188.652 133.807 188.391C133.807 188.141 133.862 187.904 133.971 187.682C134.084 187.459 134.243 187.262 134.446 187.09C134.653 186.918 134.901 186.783 135.19 186.686C135.479 186.588 135.801 186.539 136.157 186.539C136.665 186.539 137.098 186.629 137.458 186.809C137.817 186.988 138.092 187.229 138.284 187.529C138.475 187.826 138.571 188.156 138.571 188.52H137.487C137.487 188.344 137.434 188.174 137.329 188.01C137.227 187.842 137.077 187.703 136.877 187.594C136.682 187.484 136.442 187.43 136.157 187.43C135.856 187.43 135.612 187.477 135.424 187.57C135.241 187.66 135.106 187.775 135.02 187.916C134.938 188.057 134.897 188.205 134.897 188.361C134.897 188.479 134.917 188.584 134.956 188.678C134.999 188.768 135.073 188.852 135.178 188.93C135.284 189.004 135.432 189.074 135.624 189.141C135.815 189.207 136.059 189.273 136.356 189.34C136.875 189.457 137.303 189.598 137.639 189.762C137.975 189.926 138.225 190.127 138.389 190.365C138.553 190.604 138.635 190.893 138.635 191.232C138.635 191.51 138.577 191.764 138.459 191.994C138.346 192.225 138.18 192.424 137.961 192.592C137.747 192.756 137.489 192.885 137.188 192.979C136.891 193.068 136.557 193.113 136.186 193.113C135.627 193.113 135.155 193.014 134.768 192.814C134.381 192.615 134.088 192.357 133.889 192.041C133.69 191.725 133.59 191.391 133.59 191.039H134.68C134.696 191.336 134.782 191.572 134.938 191.748C135.094 191.92 135.286 192.043 135.512 192.117C135.739 192.188 135.963 192.223 136.186 192.223C136.483 192.223 136.731 192.184 136.93 192.105C137.133 192.027 137.288 191.92 137.393 191.783C137.499 191.646 137.551 191.49 137.551 191.314ZM142.69 193.113C142.249 193.113 141.848 193.039 141.489 192.891C141.133 192.738 140.827 192.525 140.569 192.252C140.315 191.979 140.12 191.654 139.983 191.279C139.846 190.904 139.778 190.494 139.778 190.049V189.803C139.778 189.287 139.854 188.828 140.006 188.426C140.159 188.02 140.366 187.676 140.627 187.395C140.889 187.113 141.186 186.9 141.518 186.756C141.85 186.611 142.194 186.539 142.549 186.539C143.002 186.539 143.393 186.617 143.721 186.773C144.053 186.93 144.325 187.148 144.536 187.43C144.747 187.707 144.903 188.035 145.004 188.414C145.106 188.789 145.157 189.199 145.157 189.645V190.131H140.422V189.246H144.073V189.164C144.057 188.883 143.999 188.609 143.897 188.344C143.799 188.078 143.643 187.859 143.428 187.688C143.213 187.516 142.92 187.43 142.549 187.43C142.303 187.43 142.077 187.482 141.87 187.588C141.663 187.689 141.485 187.842 141.336 188.045C141.188 188.248 141.073 188.496 140.991 188.789C140.909 189.082 140.868 189.42 140.868 189.803V190.049C140.868 190.35 140.909 190.633 140.991 190.898C141.077 191.16 141.2 191.391 141.36 191.59C141.524 191.789 141.721 191.945 141.952 192.059C142.186 192.172 142.452 192.229 142.749 192.229C143.131 192.229 143.456 192.15 143.721 191.994C143.987 191.838 144.219 191.629 144.418 191.367L145.075 191.889C144.938 192.096 144.764 192.293 144.553 192.48C144.342 192.668 144.083 192.82 143.774 192.938C143.469 193.055 143.108 193.113 142.69 193.113ZM150.114 191.314C150.114 191.158 150.079 191.014 150.008 190.881C149.942 190.744 149.803 190.621 149.592 190.512C149.385 190.398 149.073 190.301 148.655 190.219C148.303 190.145 147.985 190.057 147.7 189.955C147.418 189.854 147.178 189.73 146.979 189.586C146.784 189.441 146.633 189.271 146.528 189.076C146.422 188.881 146.37 188.652 146.37 188.391C146.37 188.141 146.424 187.904 146.534 187.682C146.647 187.459 146.805 187.262 147.008 187.09C147.215 186.918 147.463 186.783 147.752 186.686C148.042 186.588 148.364 186.539 148.719 186.539C149.227 186.539 149.661 186.629 150.02 186.809C150.379 186.988 150.655 187.229 150.846 187.529C151.038 187.826 151.133 188.156 151.133 188.52H150.049C150.049 188.344 149.997 188.174 149.891 188.01C149.79 187.842 149.639 187.703 149.44 187.594C149.245 187.484 149.004 187.43 148.719 187.43C148.418 187.43 148.174 187.477 147.987 187.57C147.803 187.66 147.668 187.775 147.583 187.916C147.5 188.057 147.459 188.205 147.459 188.361C147.459 188.479 147.479 188.584 147.518 188.678C147.561 188.768 147.635 188.852 147.741 188.93C147.846 189.004 147.995 189.074 148.186 189.141C148.377 189.207 148.622 189.273 148.918 189.34C149.438 189.457 149.866 189.598 150.202 189.762C150.538 189.926 150.788 190.127 150.952 190.365C151.116 190.604 151.198 190.893 151.198 191.232C151.198 191.51 151.139 191.764 151.022 191.994C150.909 192.225 150.743 192.424 150.524 192.592C150.309 192.756 150.051 192.885 149.75 192.979C149.454 193.068 149.12 193.113 148.749 193.113C148.19 193.113 147.717 193.014 147.331 192.814C146.944 192.615 146.651 192.357 146.452 192.041C146.252 191.725 146.153 191.391 146.153 191.039H147.243C147.258 191.336 147.344 191.572 147.5 191.748C147.657 191.92 147.848 192.043 148.075 192.117C148.301 192.188 148.526 192.223 148.749 192.223C149.045 192.223 149.293 192.184 149.493 192.105C149.696 192.027 149.85 191.92 149.956 191.783C150.061 191.646 150.114 191.49 150.114 191.314ZM156.5 191.531V186.656H157.59V192.996H156.553L156.5 191.531ZM156.706 190.195L157.157 190.184C157.157 190.605 157.112 190.996 157.022 191.355C156.936 191.711 156.795 192.02 156.6 192.281C156.405 192.543 156.149 192.748 155.833 192.896C155.516 193.041 155.131 193.113 154.678 193.113C154.37 193.113 154.086 193.068 153.829 192.979C153.575 192.889 153.356 192.75 153.172 192.562C152.989 192.375 152.846 192.131 152.745 191.83C152.647 191.529 152.598 191.168 152.598 190.746V186.656H153.682V190.758C153.682 191.043 153.713 191.279 153.776 191.467C153.842 191.65 153.93 191.797 154.04 191.906C154.153 192.012 154.278 192.086 154.415 192.129C154.555 192.172 154.7 192.193 154.848 192.193C155.309 192.193 155.674 192.105 155.944 191.93C156.213 191.75 156.407 191.51 156.524 191.209C156.645 190.904 156.706 190.566 156.706 190.195ZM162.981 191.912V188.648C162.981 188.398 162.93 188.182 162.829 187.998C162.731 187.811 162.583 187.666 162.383 187.564C162.184 187.463 161.938 187.412 161.645 187.412C161.372 187.412 161.131 187.459 160.924 187.553C160.721 187.646 160.561 187.77 160.444 187.922C160.331 188.074 160.274 188.238 160.274 188.414H159.19C159.19 188.188 159.249 187.963 159.366 187.74C159.483 187.518 159.651 187.316 159.87 187.137C160.092 186.953 160.358 186.809 160.667 186.703C160.979 186.594 161.327 186.539 161.709 186.539C162.17 186.539 162.577 186.617 162.928 186.773C163.284 186.93 163.561 187.166 163.76 187.482C163.963 187.795 164.065 188.188 164.065 188.66V191.613C164.065 191.824 164.083 192.049 164.118 192.287C164.157 192.525 164.213 192.73 164.288 192.902V192.996H163.157C163.102 192.871 163.059 192.705 163.028 192.498C162.997 192.287 162.981 192.092 162.981 191.912ZM163.168 189.152L163.18 189.914H162.084C161.776 189.914 161.5 189.939 161.258 189.99C161.016 190.037 160.813 190.109 160.649 190.207C160.485 190.305 160.36 190.428 160.274 190.576C160.188 190.721 160.145 190.891 160.145 191.086C160.145 191.285 160.19 191.467 160.28 191.631C160.37 191.795 160.504 191.926 160.684 192.023C160.868 192.117 161.092 192.164 161.358 192.164C161.69 192.164 161.983 192.094 162.237 191.953C162.491 191.812 162.692 191.641 162.84 191.438C162.993 191.234 163.075 191.037 163.086 190.846L163.549 191.367C163.522 191.531 163.448 191.713 163.327 191.912C163.206 192.111 163.043 192.303 162.84 192.486C162.641 192.666 162.403 192.816 162.125 192.938C161.852 193.055 161.543 193.113 161.2 193.113C160.77 193.113 160.393 193.029 160.069 192.861C159.749 192.693 159.499 192.469 159.319 192.188C159.143 191.902 159.055 191.584 159.055 191.232C159.055 190.893 159.122 190.594 159.254 190.336C159.387 190.074 159.579 189.857 159.829 189.686C160.079 189.51 160.379 189.377 160.731 189.287C161.083 189.197 161.475 189.152 161.909 189.152H163.168ZM166.948 186.656V192.996H165.858V186.656H166.948ZM165.776 184.975C165.776 184.799 165.829 184.65 165.934 184.529C166.043 184.408 166.204 184.348 166.415 184.348C166.622 184.348 166.78 184.408 166.889 184.529C167.002 184.65 167.059 184.799 167.059 184.975C167.059 185.143 167.002 185.287 166.889 185.408C166.78 185.525 166.622 185.584 166.415 185.584C166.204 185.584 166.043 185.525 165.934 185.408C165.829 185.287 165.776 185.143 165.776 184.975ZM175.661 191.766V183.996H176.75V192.996H175.754L175.661 191.766ZM171.395 189.896V189.773C171.395 189.289 171.454 188.85 171.571 188.455C171.692 188.057 171.862 187.715 172.081 187.43C172.303 187.145 172.567 186.926 172.872 186.773C173.18 186.617 173.524 186.539 173.903 186.539C174.301 186.539 174.649 186.609 174.946 186.75C175.247 186.887 175.5 187.088 175.708 187.354C175.918 187.615 176.084 187.932 176.206 188.303C176.327 188.674 176.411 189.094 176.458 189.562V190.102C176.415 190.566 176.331 190.984 176.206 191.355C176.084 191.727 175.918 192.043 175.708 192.305C175.5 192.566 175.247 192.768 174.946 192.908C174.645 193.045 174.293 193.113 173.891 193.113C173.52 193.113 173.18 193.033 172.872 192.873C172.567 192.713 172.303 192.488 172.081 192.199C171.862 191.91 171.692 191.57 171.571 191.18C171.454 190.785 171.395 190.357 171.395 189.896ZM172.485 189.773V189.896C172.485 190.213 172.516 190.51 172.579 190.787C172.645 191.064 172.747 191.309 172.883 191.52C173.02 191.73 173.194 191.896 173.405 192.018C173.616 192.135 173.868 192.193 174.161 192.193C174.52 192.193 174.815 192.117 175.045 191.965C175.28 191.812 175.467 191.611 175.608 191.361C175.749 191.111 175.858 190.84 175.936 190.547V189.135C175.889 188.92 175.821 188.713 175.731 188.514C175.645 188.311 175.532 188.131 175.391 187.975C175.254 187.814 175.084 187.688 174.881 187.594C174.682 187.5 174.446 187.453 174.172 187.453C173.875 187.453 173.62 187.516 173.405 187.641C173.194 187.762 173.02 187.93 172.883 188.145C172.747 188.355 172.645 188.602 172.579 188.883C172.516 189.16 172.485 189.457 172.485 189.773ZM181.069 193.113C180.627 193.113 180.227 193.039 179.868 192.891C179.512 192.738 179.206 192.525 178.948 192.252C178.694 191.979 178.499 191.654 178.362 191.279C178.225 190.904 178.157 190.494 178.157 190.049V189.803C178.157 189.287 178.233 188.828 178.385 188.426C178.538 188.02 178.745 187.676 179.006 187.395C179.268 187.113 179.565 186.9 179.897 186.756C180.229 186.611 180.573 186.539 180.928 186.539C181.381 186.539 181.772 186.617 182.1 186.773C182.432 186.93 182.704 187.148 182.915 187.43C183.125 187.707 183.282 188.035 183.383 188.414C183.485 188.789 183.536 189.199 183.536 189.645V190.131H178.801V189.246H182.452V189.164C182.436 188.883 182.377 188.609 182.276 188.344C182.178 188.078 182.022 187.859 181.807 187.688C181.592 187.516 181.299 187.43 180.928 187.43C180.682 187.43 180.456 187.482 180.249 187.588C180.042 187.689 179.864 187.842 179.715 188.045C179.567 188.248 179.452 188.496 179.37 188.789C179.288 189.082 179.247 189.42 179.247 189.803V190.049C179.247 190.35 179.288 190.633 179.37 190.898C179.456 191.16 179.579 191.391 179.739 191.59C179.903 191.789 180.1 191.945 180.331 192.059C180.565 192.172 180.831 192.229 181.127 192.229C181.51 192.229 181.834 192.15 182.1 191.994C182.366 191.838 182.598 191.629 182.797 191.367L183.454 191.889C183.317 192.096 183.143 192.293 182.932 192.48C182.721 192.668 182.461 192.82 182.153 192.938C181.848 193.055 181.487 193.113 181.069 193.113ZM185.879 187.916V192.996H184.79V186.656H185.821L185.879 187.916ZM185.657 189.586L185.153 189.568C185.157 189.135 185.213 188.734 185.323 188.367C185.432 187.996 185.594 187.674 185.809 187.4C186.024 187.127 186.292 186.916 186.612 186.768C186.932 186.615 187.303 186.539 187.725 186.539C188.022 186.539 188.295 186.582 188.545 186.668C188.795 186.75 189.012 186.881 189.196 187.061C189.379 187.24 189.522 187.471 189.624 187.752C189.725 188.033 189.776 188.373 189.776 188.771V192.996H188.692V188.824C188.692 188.492 188.635 188.227 188.522 188.027C188.413 187.828 188.256 187.684 188.053 187.594C187.85 187.5 187.612 187.453 187.338 187.453C187.018 187.453 186.75 187.51 186.536 187.623C186.321 187.736 186.149 187.893 186.02 188.092C185.891 188.291 185.797 188.52 185.739 188.777C185.684 189.031 185.657 189.301 185.657 189.586ZM189.764 188.988L189.038 189.211C189.042 188.863 189.098 188.529 189.208 188.209C189.321 187.889 189.483 187.604 189.694 187.354C189.909 187.104 190.172 186.906 190.485 186.762C190.797 186.613 191.155 186.539 191.557 186.539C191.897 186.539 192.198 186.584 192.459 186.674C192.725 186.764 192.948 186.902 193.127 187.09C193.311 187.273 193.45 187.51 193.543 187.799C193.637 188.088 193.684 188.432 193.684 188.83V192.996H192.594V188.818C192.594 188.463 192.538 188.188 192.424 187.992C192.315 187.793 192.159 187.654 191.956 187.576C191.756 187.494 191.518 187.453 191.241 187.453C191.002 187.453 190.792 187.494 190.608 187.576C190.424 187.658 190.27 187.771 190.145 187.916C190.02 188.057 189.924 188.219 189.858 188.402C189.795 188.586 189.764 188.781 189.764 188.988ZM195.038 189.896V189.762C195.038 189.305 195.104 188.881 195.237 188.49C195.37 188.096 195.561 187.754 195.811 187.465C196.061 187.172 196.364 186.945 196.719 186.785C197.075 186.621 197.473 186.539 197.915 186.539C198.36 186.539 198.76 186.621 199.116 186.785C199.475 186.945 199.78 187.172 200.03 187.465C200.284 187.754 200.477 188.096 200.61 188.49C200.743 188.881 200.809 189.305 200.809 189.762V189.896C200.809 190.354 200.743 190.777 200.61 191.168C200.477 191.559 200.284 191.9 200.03 192.193C199.78 192.482 199.477 192.709 199.122 192.873C198.77 193.033 198.372 193.113 197.926 193.113C197.481 193.113 197.081 193.033 196.725 192.873C196.37 192.709 196.065 192.482 195.811 192.193C195.561 191.9 195.37 191.559 195.237 191.168C195.104 190.777 195.038 190.354 195.038 189.896ZM196.122 189.762V189.896C196.122 190.213 196.159 190.512 196.233 190.793C196.307 191.07 196.418 191.316 196.567 191.531C196.719 191.746 196.909 191.916 197.135 192.041C197.362 192.162 197.625 192.223 197.926 192.223C198.223 192.223 198.483 192.162 198.706 192.041C198.932 191.916 199.12 191.746 199.268 191.531C199.417 191.316 199.528 191.07 199.602 190.793C199.68 190.512 199.719 190.213 199.719 189.896V189.762C199.719 189.449 199.68 189.154 199.602 188.877C199.528 188.596 199.415 188.348 199.262 188.133C199.114 187.914 198.926 187.742 198.7 187.617C198.477 187.492 198.215 187.43 197.915 187.43C197.618 187.43 197.356 187.492 197.129 187.617C196.907 187.742 196.719 187.914 196.567 188.133C196.418 188.348 196.307 188.596 196.233 188.877C196.159 189.154 196.122 189.449 196.122 189.762Z" fill="#4F3515"/>
</g>
</g>
<defs>
<filter id="filter0_d_905_201" x="0" y="0" width="264" height="642" filterUnits="userSpaceOnUse" color-interpolation-filters="sRGB">
<feFlood flood-opacity="0" result="BackgroundImageFix"/>
<feColorMatrix in="SourceAlpha" type="matrix" values="0 0 0 0 0 0 0 0 0 0 0 0 0 0 0 0 0 0 127 0" result="hardAlpha"/>
<feOffset dy="2"/>
<feGaussianBlur stdDeviation="5"/>
<feComposite in2="hardAlpha" operator="out"/>
<feColorMatrix type="matrix" values="0 0 0 0 0.23 0 0 0 0 0.23 0 0 0 0 0.23 0 0 0 0.25 0"/>
<feBlend mode="normal" in2="BackgroundImageFix" result="effect1_dropShadow_905_201"/>
<feBlend mode="normal" in="SourceGraphic" in2="effect1_dropShadow_905_201" result="shape"/>
</filter>
<linearGradient id="paint0_linear_905_201" x1="134.38" y1="2.14435" x2="148.534" y2="733.919" gradientUnits="userSpaceOnUse">
<stop stop-color="#F7D628" stop-opacity="0.2"/>
<stop offset="1" stop-color="#F9DB9B" stop-opacity="0"/>
</linearGradient>
<linearGradient id="paint1_linear_905_201" x1="45.8109" y1="269.183" x2="46.5561" y2="9.40564" gradientUnits="userSpaceOnUse">
<stop stop-color="#FFD700"/>
<stop offset="1" stop-color="#FFEA79" stop-opacity="0.5"/>
</linearGradient>
<linearGradient id="paint2_linear_905_201" x1="217.932" y1="187.679" x2="218.698" y2="8.46084" gradientUnits="userSpaceOnUse">
<stop stop-color="#FFD700"/>
<stop offset="1" stop-color="#FFEA79" stop-opacity="0.5"/>
</linearGradient>
<linearGradient id="paint3_linear_905_201" x1="170.823" y1="136.618" x2="216.47" y2="-89.7775" gradientUnits="userSpaceOnUse">
<stop stop-color="#FFD700"/>
<stop offset="1" stop-color="#FFEA79" stop-opacity="0.5"/>
</linearGradient>
<linearGradient id="paint4_linear_905_201" x1="171.761" y1="165.985" x2="167.65" y2="2.29768" gradientUnits="userSpaceOnUse">
<stop stop-color="#F4CE00"/>
<stop offset="0.688027" stop-color="#FDEB8B"/>
</linearGradient>
<clipPath id="clip0_905_201">
<rect x="10" y="8" width="244" height="622" rx="15" fill="white"/>
</clipPath>
<clipPath id="clip1_905_201">
<rect width="244" height="173.776" fill="white" transform="translate(10 7)"/>
</clipPath>
</defs>
</svg>
