<svg width="264" height="748" viewBox="0 0 264 748" fill="none" xmlns="http://www.w3.org/2000/svg">
<g filter="url(#filter0_d_910_307)">
<g clip-path="url(#clip0_910_307)">
<rect x="10" y="8" width="244" height="728" rx="15" fill="white"/>
<rect x="10" y="8" width="244" height="728" fill="url(#paint0_linear_910_307)"/>
<rect x="159.922" y="20.9863" width="94.439" height="110.966" fill="url(#paint1_linear_910_307)"/>
<rect x="-76.1758" y="27.1504" width="203.893" height="160.843" transform="rotate(-18.2958 -76.1758 27.1504)" fill="url(#paint2_linear_910_307)"/>
<path opacity="0.2" d="M-3.0517 -75.0678C5.08353 -94.0905 27.0072 -103.03 46.1244 -95.1195L244.579 -13.0015C264.688 -4.68087 273.625 18.8653 264.103 38.4333L218.879 131.366C210.064 149.482 188.582 157.491 170.058 149.569L-22.7682 67.105C-41.9505 58.9015 -50.8507 36.7008 -42.6471 17.5185L-3.0517 -75.0678Z" fill="url(#paint3_linear_910_307)"/>
<path d="M30.0823 -80.7891C40.4172 -98.6896 63.2198 -104.96 81.2542 -94.8607L243.072 -4.24292C262.012 6.36383 268.137 30.7144 256.469 49.0204L200.959 136.112C190.092 153.162 167.726 158.632 150.216 148.522L-6.46443 58.0629C-24.5322 47.6314 -30.7227 24.5282 -20.2912 6.46046L30.0823 -80.7891Z" fill="url(#paint4_linear_910_307)"/>
<path d="M116.424 41.954C116.512 41.954 116.59 41.988 116.658 42.056L117.294 42.746C116.942 43.182 116.508 43.516 115.992 43.748C115.48 43.98 114.864 44.096 114.144 44.096C113.5 44.096 112.92 43.986 112.404 43.766C111.892 43.546 111.454 43.24 111.09 42.848C110.726 42.456 110.446 41.988 110.25 41.444C110.058 40.9 109.962 40.306 109.962 39.662C109.962 39.01 110.066 38.414 110.274 37.874C110.482 37.33 110.774 36.862 111.15 36.47C111.53 36.078 111.982 35.774 112.506 35.558C113.03 35.338 113.61 35.228 114.246 35.228C114.878 35.228 115.438 35.332 115.926 35.54C116.418 35.748 116.836 36.02 117.18 36.356L116.64 37.106C116.608 37.154 116.566 37.196 116.514 37.232C116.466 37.268 116.398 37.286 116.31 37.286C116.25 37.286 116.188 37.27 116.124 37.238C116.06 37.202 115.99 37.16 115.914 37.112C115.838 37.06 115.75 37.004 115.65 36.944C115.55 36.884 115.434 36.83 115.302 36.782C115.17 36.73 115.016 36.688 114.84 36.656C114.668 36.62 114.468 36.602 114.24 36.602C113.852 36.602 113.496 36.672 113.172 36.812C112.852 36.948 112.576 37.148 112.344 37.412C112.112 37.672 111.932 37.992 111.804 38.372C111.676 38.748 111.612 39.178 111.612 39.662C111.612 40.15 111.68 40.584 111.816 40.964C111.956 41.344 112.144 41.664 112.38 41.924C112.616 42.184 112.894 42.384 113.214 42.524C113.534 42.66 113.878 42.728 114.246 42.728C114.466 42.728 114.664 42.716 114.84 42.692C115.02 42.668 115.184 42.63 115.332 42.578C115.484 42.526 115.626 42.46 115.758 42.38C115.894 42.296 116.028 42.194 116.16 42.074C116.2 42.038 116.242 42.01 116.286 41.99C116.33 41.966 116.376 41.954 116.424 41.954ZM123.748 37.844V44H122.842C122.646 44 122.522 43.91 122.47 43.73L122.368 43.238C122.116 43.494 121.838 43.702 121.534 43.862C121.23 44.018 120.872 44.096 120.46 44.096C120.124 44.096 119.826 44.04 119.566 43.928C119.31 43.812 119.094 43.65 118.918 43.442C118.742 43.234 118.608 42.988 118.516 42.704C118.428 42.416 118.384 42.1 118.384 41.756V37.844H119.866V41.756C119.866 42.132 119.952 42.424 120.124 42.632C120.3 42.836 120.562 42.938 120.91 42.938C121.166 42.938 121.406 42.882 121.63 42.77C121.854 42.654 122.066 42.496 122.266 42.296V37.844H123.748ZM129.333 39.044C129.293 39.108 129.251 39.154 129.207 39.182C129.163 39.206 129.107 39.218 129.039 39.218C128.967 39.218 128.889 39.198 128.805 39.158C128.725 39.118 128.631 39.074 128.523 39.026C128.415 38.974 128.291 38.928 128.151 38.888C128.015 38.848 127.853 38.828 127.665 38.828C127.373 38.828 127.143 38.89 126.975 39.014C126.811 39.138 126.729 39.3 126.729 39.5C126.729 39.632 126.771 39.744 126.855 39.836C126.943 39.924 127.057 40.002 127.197 40.07C127.341 40.138 127.503 40.2 127.683 40.256C127.863 40.308 128.045 40.366 128.229 40.43C128.417 40.494 128.601 40.568 128.781 40.652C128.961 40.732 129.121 40.836 129.261 40.964C129.405 41.088 129.519 41.238 129.603 41.414C129.691 41.59 129.735 41.802 129.735 42.05C129.735 42.346 129.681 42.62 129.573 42.872C129.469 43.12 129.313 43.336 129.105 43.52C128.897 43.7 128.639 43.842 128.331 43.946C128.027 44.046 127.675 44.096 127.275 44.096C127.063 44.096 126.855 44.076 126.651 44.036C126.451 44 126.257 43.948 126.069 43.88C125.885 43.812 125.713 43.732 125.553 43.64C125.397 43.548 125.259 43.448 125.139 43.34L125.481 42.776C125.525 42.708 125.577 42.656 125.637 42.62C125.697 42.584 125.773 42.566 125.865 42.566C125.957 42.566 126.043 42.592 126.123 42.644C126.207 42.696 126.303 42.752 126.411 42.812C126.519 42.872 126.645 42.928 126.789 42.98C126.937 43.032 127.123 43.058 127.347 43.058C127.523 43.058 127.673 43.038 127.797 42.998C127.925 42.954 128.029 42.898 128.109 42.83C128.193 42.762 128.253 42.684 128.289 42.596C128.329 42.504 128.349 42.41 128.349 42.314C128.349 42.17 128.305 42.052 128.217 41.96C128.133 41.868 128.019 41.788 127.875 41.72C127.735 41.652 127.573 41.592 127.389 41.54C127.209 41.484 127.023 41.424 126.831 41.36C126.643 41.296 126.457 41.222 126.273 41.138C126.093 41.05 125.931 40.94 125.787 40.808C125.647 40.676 125.533 40.514 125.445 40.322C125.361 40.13 125.319 39.898 125.319 39.626C125.319 39.374 125.369 39.134 125.469 38.906C125.569 38.678 125.715 38.48 125.907 38.312C126.103 38.14 126.345 38.004 126.633 37.904C126.925 37.8 127.261 37.748 127.641 37.748C128.065 37.748 128.451 37.818 128.799 37.958C129.147 38.098 129.437 38.282 129.669 38.51L129.333 39.044ZM133.262 44.096C132.726 44.096 132.314 43.946 132.026 43.646C131.742 43.342 131.6 42.924 131.6 42.392V38.954H130.97C130.89 38.954 130.822 38.928 130.766 38.876C130.71 38.824 130.682 38.746 130.682 38.642V38.054L131.672 37.892L131.984 36.212C132.004 36.132 132.042 36.07 132.098 36.026C132.154 35.982 132.226 35.96 132.314 35.96H133.082V37.898H134.726V38.954H133.082V42.29C133.082 42.482 133.128 42.632 133.22 42.74C133.316 42.848 133.446 42.902 133.61 42.902C133.702 42.902 133.778 42.892 133.838 42.872C133.902 42.848 133.956 42.824 134 42.8C134.048 42.776 134.09 42.754 134.126 42.734C134.162 42.71 134.198 42.698 134.234 42.698C134.278 42.698 134.314 42.71 134.342 42.734C134.37 42.754 134.4 42.786 134.432 42.83L134.876 43.55C134.66 43.73 134.412 43.866 134.132 43.958C133.852 44.05 133.562 44.096 133.262 44.096ZM138.712 37.748C139.168 37.748 139.582 37.822 139.954 37.97C140.33 38.118 140.65 38.328 140.914 38.6C141.182 38.872 141.388 39.204 141.532 39.596C141.676 39.988 141.748 40.426 141.748 40.91C141.748 41.398 141.676 41.838 141.532 42.23C141.388 42.622 141.182 42.956 140.914 43.232C140.65 43.508 140.33 43.72 139.954 43.868C139.582 44.016 139.168 44.09 138.712 44.09C138.252 44.09 137.834 44.016 137.458 43.868C137.082 43.72 136.76 43.508 136.492 43.232C136.228 42.956 136.022 42.622 135.874 42.23C135.73 41.838 135.658 41.398 135.658 40.91C135.658 40.426 135.73 39.988 135.874 39.596C136.022 39.204 136.228 38.872 136.492 38.6C136.76 38.328 137.082 38.118 137.458 37.97C137.834 37.822 138.252 37.748 138.712 37.748ZM138.712 42.95C139.224 42.95 139.602 42.778 139.846 42.434C140.094 42.09 140.218 41.586 140.218 40.922C140.218 40.258 140.094 39.752 139.846 39.404C139.602 39.056 139.224 38.882 138.712 38.882C138.192 38.882 137.806 39.058 137.554 39.41C137.306 39.758 137.182 40.262 137.182 40.922C137.182 41.582 137.306 42.086 137.554 42.434C137.806 42.778 138.192 42.95 138.712 42.95ZM143.239 44V37.844H144.145C144.337 37.844 144.463 37.934 144.523 38.114L144.619 38.57C144.727 38.45 144.839 38.34 144.955 38.24C145.075 38.14 145.201 38.054 145.333 37.982C145.469 37.91 145.613 37.854 145.765 37.814C145.921 37.77 146.091 37.748 146.275 37.748C146.663 37.748 146.981 37.854 147.229 38.066C147.481 38.274 147.669 38.552 147.793 38.9C147.889 38.696 148.009 38.522 148.153 38.378C148.297 38.23 148.455 38.11 148.627 38.018C148.799 37.926 148.981 37.858 149.173 37.814C149.369 37.77 149.565 37.748 149.761 37.748C150.101 37.748 150.403 37.8 150.667 37.904C150.931 38.008 151.153 38.16 151.333 38.36C151.513 38.56 151.649 38.804 151.741 39.092C151.837 39.38 151.885 39.71 151.885 40.082V44H150.403V40.082C150.403 39.69 150.317 39.396 150.145 39.2C149.973 39 149.721 38.9 149.389 38.9C149.237 38.9 149.095 38.926 148.963 38.978C148.835 39.03 148.721 39.106 148.621 39.206C148.525 39.302 148.449 39.424 148.393 39.572C148.337 39.72 148.309 39.89 148.309 40.082V44H146.821V40.082C146.821 39.67 146.737 39.37 146.569 39.182C146.405 38.994 146.163 38.9 145.843 38.9C145.627 38.9 145.425 38.954 145.237 39.062C145.053 39.166 144.881 39.31 144.721 39.494V44H143.239Z" fill="#444444"/>
<rect x="100" y="28.5" width="63" height="21" rx="10.5" stroke="#444444"/>
<path d="M51.0956 180.367C55.9277 180.367 59.9071 184.346 59.9071 189.178C59.9071 194.046 55.9277 197.99 51.0956 197.99C46.2281 197.99 42.2842 194.046 42.2842 189.178C42.2842 184.346 46.2281 180.367 51.0956 180.367ZM51.0956 182.072C47.1518 182.072 43.9897 185.27 43.9897 189.178C43.9897 193.122 47.1518 196.284 51.0956 196.284C55.0039 196.284 58.2016 193.122 58.2016 189.178C58.2016 185.27 55.0039 182.072 51.0956 182.072ZM56.0698 186.727C56.212 186.869 56.212 187.153 56.0698 187.331L49.9232 193.406C49.7455 193.584 49.4968 193.584 49.3192 193.406L46.0859 190.138C45.9438 189.995 45.9438 189.711 46.0859 189.534L46.9031 188.752C47.0808 188.574 47.3295 188.574 47.5071 188.752L49.6389 190.884L54.6486 185.91C54.8263 185.732 55.1105 185.732 55.2526 185.91L56.0698 186.727Z" fill="#45B516"/>
<path d="M70.5024 184.465V192.996H69.3716V184.465H70.5024ZM75.6528 184.465L72.1079 188.443L70.1157 190.512L69.9282 189.305L71.4282 187.652L74.2935 184.465H75.6528ZM74.563 192.996L71.4048 188.836L72.0786 187.939L75.9106 192.996H74.563ZM79.2212 193.113C78.7798 193.113 78.3794 193.039 78.02 192.891C77.6646 192.738 77.3579 192.525 77.1001 192.252C76.8462 191.979 76.6509 191.654 76.5142 191.279C76.3774 190.904 76.3091 190.494 76.3091 190.049V189.803C76.3091 189.287 76.3853 188.828 76.5376 188.426C76.6899 188.02 76.897 187.676 77.1587 187.395C77.4204 187.113 77.7173 186.9 78.0493 186.756C78.3813 186.611 78.7251 186.539 79.0806 186.539C79.5337 186.539 79.9243 186.617 80.2524 186.773C80.5845 186.93 80.856 187.148 81.0669 187.43C81.2778 187.707 81.4341 188.035 81.5356 188.414C81.6372 188.789 81.688 189.199 81.688 189.645V190.131H76.9536V189.246H80.604V189.164C80.5884 188.883 80.5298 188.609 80.4282 188.344C80.3306 188.078 80.1743 187.859 79.9595 187.688C79.7446 187.516 79.4517 187.43 79.0806 187.43C78.8345 187.43 78.6079 187.482 78.4009 187.588C78.1938 187.689 78.0161 187.842 77.8677 188.045C77.7192 188.248 77.604 188.496 77.522 188.789C77.4399 189.082 77.3989 189.42 77.3989 189.803V190.049C77.3989 190.35 77.4399 190.633 77.522 190.898C77.6079 191.16 77.731 191.391 77.8911 191.59C78.0552 191.789 78.2524 191.945 78.4829 192.059C78.7173 192.172 78.9829 192.229 79.2798 192.229C79.6626 192.229 79.9868 192.15 80.2524 191.994C80.5181 191.838 80.7505 191.629 80.9497 191.367L81.606 191.889C81.4692 192.096 81.2954 192.293 81.0845 192.48C80.8735 192.668 80.6138 192.82 80.3052 192.938C80.0005 193.055 79.6392 193.113 79.2212 193.113ZM85.6079 186.656V187.488H82.1802V186.656H85.6079ZM83.3403 185.115H84.4243V191.426C84.4243 191.641 84.4575 191.803 84.5239 191.912C84.5903 192.021 84.6763 192.094 84.7817 192.129C84.8872 192.164 85.0005 192.182 85.1216 192.182C85.2114 192.182 85.3052 192.174 85.4028 192.158C85.5044 192.139 85.5806 192.123 85.6313 192.111L85.6372 192.996C85.5513 193.023 85.438 193.049 85.2974 193.072C85.1606 193.1 84.9946 193.113 84.7993 193.113C84.5337 193.113 84.2896 193.061 84.0669 192.955C83.8442 192.85 83.6665 192.674 83.5337 192.428C83.4048 192.178 83.3403 191.842 83.3403 191.42V185.115ZM89.5103 193.113C89.0688 193.113 88.6685 193.039 88.3091 192.891C87.9536 192.738 87.647 192.525 87.3892 192.252C87.1353 191.979 86.9399 191.654 86.8032 191.279C86.6665 190.904 86.5981 190.494 86.5981 190.049V189.803C86.5981 189.287 86.6743 188.828 86.8267 188.426C86.979 188.02 87.186 187.676 87.4478 187.395C87.7095 187.113 88.0063 186.9 88.3384 186.756C88.6704 186.611 89.0142 186.539 89.3696 186.539C89.8228 186.539 90.2134 186.617 90.5415 186.773C90.8735 186.93 91.145 187.148 91.356 187.43C91.5669 187.707 91.7231 188.035 91.8247 188.414C91.9263 188.789 91.9771 189.199 91.9771 189.645V190.131H87.2427V189.246H90.8931V189.164C90.8774 188.883 90.8188 188.609 90.7173 188.344C90.6196 188.078 90.4634 187.859 90.2485 187.688C90.0337 187.516 89.7407 187.43 89.3696 187.43C89.1235 187.43 88.897 187.482 88.6899 187.588C88.4829 187.689 88.3052 187.842 88.1567 188.045C88.0083 188.248 87.8931 188.496 87.811 188.789C87.729 189.082 87.688 189.42 87.688 189.803V190.049C87.688 190.35 87.729 190.633 87.811 190.898C87.897 191.16 88.02 191.391 88.1802 191.59C88.3442 191.789 88.5415 191.945 88.772 192.059C89.0063 192.172 89.272 192.229 89.5688 192.229C89.9517 192.229 90.2759 192.15 90.5415 191.994C90.8071 191.838 91.0396 191.629 91.2388 191.367L91.895 191.889C91.7583 192.096 91.5845 192.293 91.3735 192.48C91.1626 192.668 90.9028 192.82 90.5942 192.938C90.2896 193.055 89.9282 193.113 89.5103 193.113ZM94.3267 187.652V192.996H93.2427V186.656H94.2974L94.3267 187.652ZM96.3071 186.621L96.3013 187.629C96.2114 187.609 96.1255 187.598 96.0435 187.594C95.9653 187.586 95.8755 187.582 95.7739 187.582C95.5239 187.582 95.3032 187.621 95.1118 187.699C94.9204 187.777 94.7583 187.887 94.6255 188.027C94.4927 188.168 94.3872 188.336 94.3091 188.531C94.2349 188.723 94.186 188.934 94.1626 189.164L93.8579 189.34C93.8579 188.957 93.895 188.598 93.9692 188.262C94.0474 187.926 94.1665 187.629 94.3267 187.371C94.4868 187.109 94.6899 186.906 94.936 186.762C95.186 186.613 95.4829 186.539 95.8267 186.539C95.9048 186.539 95.9946 186.549 96.0962 186.568C96.1978 186.584 96.2681 186.602 96.3071 186.621ZM100.813 191.912V188.648C100.813 188.398 100.762 188.182 100.661 187.998C100.563 187.811 100.415 187.666 100.215 187.564C100.016 187.463 99.77 187.412 99.4771 187.412C99.2036 187.412 98.9634 187.459 98.7563 187.553C98.5532 187.646 98.3931 187.77 98.2759 187.922C98.1626 188.074 98.106 188.238 98.106 188.414H97.022C97.022 188.188 97.0806 187.963 97.1978 187.74C97.3149 187.518 97.4829 187.316 97.7017 187.137C97.9243 186.953 98.1899 186.809 98.4985 186.703C98.811 186.594 99.1587 186.539 99.5415 186.539C100.002 186.539 100.409 186.617 100.76 186.773C101.116 186.93 101.393 187.166 101.592 187.482C101.795 187.795 101.897 188.188 101.897 188.66V191.613C101.897 191.824 101.915 192.049 101.95 192.287C101.989 192.525 102.045 192.73 102.12 192.902V192.996H100.989C100.934 192.871 100.891 192.705 100.86 192.498C100.829 192.287 100.813 192.092 100.813 191.912ZM101 189.152L101.012 189.914H99.9165C99.6079 189.914 99.3325 189.939 99.0903 189.99C98.8481 190.037 98.645 190.109 98.481 190.207C98.3169 190.305 98.1919 190.428 98.106 190.576C98.02 190.721 97.9771 190.891 97.9771 191.086C97.9771 191.285 98.022 191.467 98.1118 191.631C98.2017 191.795 98.3364 191.926 98.5161 192.023C98.6997 192.117 98.9243 192.164 99.1899 192.164C99.522 192.164 99.8149 192.094 100.069 191.953C100.323 191.812 100.524 191.641 100.672 191.438C100.825 191.234 100.907 191.037 100.918 190.846L101.381 191.367C101.354 191.531 101.28 191.713 101.159 191.912C101.038 192.111 100.875 192.303 100.672 192.486C100.473 192.666 100.235 192.816 99.9575 192.938C99.6841 193.055 99.3755 193.113 99.0317 193.113C98.6021 193.113 98.2251 193.029 97.9009 192.861C97.5806 192.693 97.3306 192.469 97.1509 192.188C96.9751 191.902 96.8872 191.584 96.8872 191.232C96.8872 190.893 96.9536 190.594 97.0864 190.336C97.2192 190.074 97.4106 189.857 97.6606 189.686C97.9106 189.51 98.2114 189.377 98.563 189.287C98.9146 189.197 99.3071 189.152 99.7407 189.152H101ZM104.686 188.01V192.996H103.602V186.656H104.627L104.686 188.01ZM104.428 189.586L103.977 189.568C103.981 189.135 104.045 188.734 104.17 188.367C104.295 187.996 104.471 187.674 104.698 187.4C104.924 187.127 105.194 186.916 105.506 186.768C105.823 186.615 106.172 186.539 106.555 186.539C106.868 186.539 107.149 186.582 107.399 186.668C107.649 186.75 107.862 186.883 108.038 187.066C108.217 187.25 108.354 187.488 108.448 187.781C108.542 188.07 108.588 188.424 108.588 188.842V192.996H107.499V188.83C107.499 188.498 107.45 188.232 107.352 188.033C107.254 187.83 107.112 187.684 106.924 187.594C106.737 187.5 106.506 187.453 106.233 187.453C105.963 187.453 105.717 187.51 105.495 187.623C105.276 187.736 105.086 187.893 104.926 188.092C104.77 188.291 104.647 188.52 104.557 188.777C104.471 189.031 104.428 189.301 104.428 189.586ZM114.342 186.656H115.327V192.861C115.327 193.42 115.213 193.896 114.987 194.291C114.76 194.686 114.444 194.984 114.038 195.188C113.635 195.395 113.17 195.498 112.643 195.498C112.424 195.498 112.167 195.463 111.87 195.393C111.577 195.326 111.288 195.211 111.002 195.047C110.721 194.887 110.485 194.67 110.293 194.396L110.862 193.752C111.127 194.072 111.405 194.295 111.694 194.42C111.987 194.545 112.276 194.607 112.561 194.607C112.905 194.607 113.202 194.543 113.452 194.414C113.702 194.285 113.895 194.094 114.032 193.84C114.172 193.59 114.243 193.281 114.243 192.914V188.051L114.342 186.656ZM109.977 189.896V189.773C109.977 189.289 110.034 188.85 110.147 188.455C110.264 188.057 110.43 187.715 110.645 187.43C110.864 187.145 111.127 186.926 111.436 186.773C111.745 186.617 112.092 186.539 112.479 186.539C112.877 186.539 113.225 186.609 113.522 186.75C113.823 186.887 114.077 187.088 114.284 187.354C114.495 187.615 114.661 187.932 114.782 188.303C114.903 188.674 114.987 189.094 115.034 189.562V190.102C114.991 190.566 114.907 190.984 114.782 191.355C114.661 191.727 114.495 192.043 114.284 192.305C114.077 192.566 113.823 192.768 113.522 192.908C113.221 193.045 112.87 193.113 112.467 193.113C112.088 193.113 111.745 193.033 111.436 192.873C111.131 192.713 110.87 192.488 110.651 192.199C110.432 191.91 110.264 191.57 110.147 191.18C110.034 190.785 109.977 190.357 109.977 189.896ZM111.061 189.773V189.896C111.061 190.213 111.092 190.51 111.155 190.787C111.221 191.064 111.321 191.309 111.454 191.52C111.59 191.73 111.764 191.896 111.975 192.018C112.186 192.135 112.438 192.193 112.731 192.193C113.09 192.193 113.387 192.117 113.622 191.965C113.856 191.812 114.042 191.611 114.178 191.361C114.319 191.111 114.428 190.84 114.506 190.547V189.135C114.463 188.92 114.397 188.713 114.307 188.514C114.221 188.311 114.108 188.131 113.967 187.975C113.831 187.814 113.661 187.688 113.458 187.594C113.254 187.5 113.016 187.453 112.743 187.453C112.446 187.453 112.19 187.516 111.975 187.641C111.764 187.762 111.59 187.93 111.454 188.145C111.321 188.355 111.221 188.602 111.155 188.883C111.092 189.16 111.061 189.457 111.061 189.773ZM120.711 191.912V188.648C120.711 188.398 120.661 188.182 120.559 187.998C120.461 187.811 120.313 187.666 120.114 187.564C119.915 187.463 119.668 187.412 119.375 187.412C119.102 187.412 118.862 187.459 118.655 187.553C118.452 187.646 118.292 187.77 118.174 187.922C118.061 188.074 118.004 188.238 118.004 188.414H116.92C116.92 188.188 116.979 187.963 117.096 187.74C117.213 187.518 117.381 187.316 117.6 187.137C117.823 186.953 118.088 186.809 118.397 186.703C118.709 186.594 119.057 186.539 119.44 186.539C119.901 186.539 120.307 186.617 120.659 186.773C121.014 186.93 121.292 187.166 121.491 187.482C121.694 187.795 121.795 188.188 121.795 188.66V191.613C121.795 191.824 121.813 192.049 121.848 192.287C121.887 192.525 121.944 192.73 122.018 192.902V192.996H120.887C120.833 192.871 120.79 192.705 120.758 192.498C120.727 192.287 120.711 192.092 120.711 191.912ZM120.899 189.152L120.911 189.914H119.815C119.506 189.914 119.231 189.939 118.989 189.99C118.747 190.037 118.543 190.109 118.379 190.207C118.215 190.305 118.09 190.428 118.004 190.576C117.918 190.721 117.875 190.891 117.875 191.086C117.875 191.285 117.92 191.467 118.01 191.631C118.1 191.795 118.235 191.926 118.415 192.023C118.598 192.117 118.823 192.164 119.088 192.164C119.42 192.164 119.713 192.094 119.967 191.953C120.221 191.812 120.422 191.641 120.571 191.438C120.723 191.234 120.805 191.037 120.817 190.846L121.28 191.367C121.252 191.531 121.178 191.713 121.057 191.912C120.936 192.111 120.774 192.303 120.571 192.486C120.372 192.666 120.133 192.816 119.856 192.938C119.583 193.055 119.274 193.113 118.93 193.113C118.5 193.113 118.124 193.029 117.799 192.861C117.479 192.693 117.229 192.469 117.049 192.188C116.874 191.902 116.786 191.584 116.786 191.232C116.786 190.893 116.852 190.594 116.985 190.336C117.118 190.074 117.309 189.857 117.559 189.686C117.809 189.51 118.11 189.377 118.461 189.287C118.813 189.197 119.206 189.152 119.639 189.152H120.899ZM124.584 188.01V192.996H123.5V186.656H124.526L124.584 188.01ZM124.327 189.586L123.875 189.568C123.879 189.135 123.944 188.734 124.069 188.367C124.194 187.996 124.37 187.674 124.596 187.4C124.823 187.127 125.092 186.916 125.405 186.768C125.721 186.615 126.071 186.539 126.454 186.539C126.766 186.539 127.047 186.582 127.297 186.668C127.547 186.75 127.76 186.883 127.936 187.066C128.116 187.25 128.252 187.488 128.346 187.781C128.44 188.07 128.487 188.424 128.487 188.842V192.996H127.397V188.83C127.397 188.498 127.348 188.232 127.25 188.033C127.153 187.83 127.01 187.684 126.823 187.594C126.635 187.5 126.405 187.453 126.131 187.453C125.862 187.453 125.616 187.51 125.393 187.623C125.174 187.736 124.985 187.893 124.825 188.092C124.668 188.291 124.545 188.52 124.456 188.777C124.37 189.031 124.327 189.301 124.327 189.586Z" fill="#4F3515"/>
</g>
</g>
<defs>
<filter id="filter0_d_910_307" x="0" y="0" width="264" height="748" filterUnits="userSpaceOnUse" color-interpolation-filters="sRGB">
<feFlood flood-opacity="0" result="BackgroundImageFix"/>
<feColorMatrix in="SourceAlpha" type="matrix" values="0 0 0 0 0 0 0 0 0 0 0 0 0 0 0 0 0 0 127 0" result="hardAlpha"/>
<feOffset dy="2"/>
<feGaussianBlur stdDeviation="5"/>
<feComposite in2="hardAlpha" operator="out"/>
<feColorMatrix type="matrix" values="0 0 0 0 0.23 0 0 0 0 0.23 0 0 0 0 0.23 0 0 0 0.25 0"/>
<feBlend mode="normal" in2="BackgroundImageFix" result="effect1_dropShadow_910_307"/>
<feBlend mode="normal" in="SourceGraphic" in2="effect1_dropShadow_910_307" result="shape"/>
</filter>
<linearGradient id="paint0_linear_910_307" x1="134.38" y1="1.14644" x2="153.766" y2="857.51" gradientUnits="userSpaceOnUse">
<stop stop-color="#66FFFF" stop-opacity="0.15"/>
<stop offset="1" stop-color="#0CD6E1" stop-opacity="0"/>
</linearGradient>
<linearGradient id="paint1_linear_910_307" x1="231.961" y1="108.695" x2="189.589" y2="79.3334" gradientUnits="userSpaceOnUse">
<stop stop-color="#00DFFF"/>
<stop offset="1" stop-color="#00F1F0"/>
</linearGradient>
<linearGradient id="paint2_linear_910_307" x1="79.3556" y1="154.282" x2="13.7935" y2="86.6129" gradientUnits="userSpaceOnUse">
<stop stop-color="#00DFFF"/>
<stop offset="1" stop-color="#00F1F0"/>
</linearGradient>
<linearGradient id="paint3_linear_910_307" x1="183.457" y1="169.779" x2="66.969" y2="-103.592" gradientUnits="userSpaceOnUse">
<stop offset="0.167064" stop-color="#00ABD7"/>
<stop offset="1" stop-color="#02C6C6"/>
</linearGradient>
<linearGradient id="paint4_linear_910_307" x1="189.389" y1="141.483" x2="119.449" y2="-8.73325" gradientUnits="userSpaceOnUse">
<stop stop-color="#0FBCE8"/>
<stop offset="1" stop-color="#1EF1F1"/>
</linearGradient>
<clipPath id="clip0_910_307">
<rect x="10" y="8" width="244" height="728" rx="15" fill="white"/>
</clipPath>
</defs>
</svg>
